<?xml version="1.0" encoding="utf-8"?>
<!-- Generator: Adobe Illustrator 24.3.0, SVG Export Plug-In . SVG Version: 6.00 Build 0)  -->
<svg version="1.1" id="VVD_Logo" xmlns="http://www.w3.org/2000/svg" xmlns:xlink="http://www.w3.org/1999/xlink" x="0px" y="0px"
	 viewBox="0 0 170.08 170.08" style="enable-background:new 0 0 170.08 170.08;" xml:space="preserve">
<style type="text/css">
	.st0{fill:#999999;}
</style>
<g>
	<polygon points="58.88,50.37 56.93,35.94 49.41,28.35 53.93,61.88 	"/>
	<path d="M62.13,119.84l0.59-13.91h5.93c0.82,0,1.58,0.05,2.3,0.15c-0.65-4.88-3.67-7.55-9.85-7.55h-5.02l-0.91,21.41l4.91,0
		C60.81,119.94,61.49,119.91,62.13,119.84z"/>
	<path d="M82.28,46.89l7.25,0l5.29-10.96l-7.52-7.59L63.23,78.16l-23.56,0l6.14,6.19H62.4c3.11,0,5.98,0.31,8.6,0.9L84.11,58.1
		L82.28,46.89z"/>
	<polygon points="109.63,68.91 107.69,54.48 100.16,46.89 104.68,80.43 	"/>
	<polygon points="138.05,46.89 113.98,96.71 90.42,96.71 97.94,104.3 121.51,104.3 145.57,54.48 	"/>
</g>
<polygon class="st0" points="68.34,28.35 53.93,61.88 49.41,28.35 31.53,28.35 39.67,78.16 63.23,78.16 87.3,28.35 "/>
<path class="st0" d="M62.4,84.35H39.58l-2.2,49.78H61.3c16.11,0,26.68-8.99,27.45-24.76S79.6,84.35,62.4,84.35z M71.05,109.37
	c-0.37,7.08-3.65,10.57-10.97,10.57h-4.89l0.89-21.41h5.02C68.54,98.53,71.41,102.42,71.05,109.37z"/>
<polygon class="st0" points="119.09,46.89 104.68,80.43 100.16,46.89 82.28,46.89 90.42,96.71 113.98,96.71 138.05,46.89 "/>
<path d="M90.36,99.06L90.36,99.06l-7.41-7.48c0.03,0.03,0.05,0.06,0.08,0.09c4.05,4.25,6.08,10.25,5.72,17.7
	c-0.77,15.78-11.35,24.76-27.45,24.76H37.38l7.52,7.59l0,0.01h21.56c16.11,0,28.55-9.01,29.9-24.75
	C97.01,109.5,94.55,103.33,90.36,99.06z"/>
</svg>
