<?xml version="1.0" encoding="UTF-8" standalone="no"?>
<!-- Generator: Adobe Illustrator 26.0.1, SVG Export Plug-In . SVG Version: 6.00 Build 0)  -->

<svg
   version="1.1"
   id="Laag_1"
   x="0px"
   y="0px"
   viewBox="0 0 200.8 79.300005"
   xml:space="preserve"
   sodipodi:docname="logo-PVV-Tweede-Kamerfractie.svg"
   width="200.8"
   height="79.300003"
   inkscape:export-filename="C:\Users\tifmc\Downloads\logo-PVV-Tweede-Kamerfractie.png"
   inkscape:export-xdpi="152.98805"
   inkscape:export-ydpi="152.98805"
   inkscape:version="1.1.2 (b8e25be833, 2022-02-05)"
   xmlns:inkscape="http://www.inkscape.org/namespaces/inkscape"
   xmlns:sodipodi="http://sodipodi.sourceforge.net/DTD/sodipodi-0.dtd"
   xmlns="http://www.w3.org/2000/svg"
   xmlns:svg="http://www.w3.org/2000/svg"><defs
   id="defs89" /><sodipodi:namedview
   id="namedview87"
   pagecolor="#505050"
   bordercolor="#eeeeee"
   borderopacity="1"
   inkscape:pageshadow="0"
   inkscape:pageopacity="0"
   inkscape:pagecheckerboard="0"
   showgrid="false"
   fit-margin-top="0"
   fit-margin-left="0"
   fit-margin-right="0"
   fit-margin-bottom="0"
   inkscape:zoom="1.4199134"
   inkscape:cx="106.34451"
   inkscape:cy="45.777439"
   inkscape:window-width="1920"
   inkscape:window-height="1017"
   inkscape:window-x="-8"
   inkscape:window-y="-8"
   inkscape:window-maximized="1"
   inkscape:current-layer="Laag_1" />
<style
   type="text/css"
   id="style2">
	.st0{fill:#234672;}
	.st1{fill:#E4032E;}
	.st2{fill:#FFFFFF;}
	.st3{fill:#BDBCBC;}
</style>



<g
   id="g84"
   transform="translate(-297.8,-25.5)">
	<path
   class="st0"
   d="m 391.3,55.4 c 0,0 -29.2,-10.1 -32.4,-13 -3.2,-2.9 -2.3,-2.2 -8.2,-3.2 -5.9,-1 -34.8,-6.4 -42.8,-9.3 -8,-2.9 -9.6,-4.2 -9.6,-4.2 0,0 8,8.6 16.1,15.2 8,6.6 21.3,15 28.3,18.9 7,3.9 20.3,10.9 25.9,11.9 5.6,1 13.5,2.6 13.5,2.6 l 8,-15.9 z"
   id="path46" />
	<path
   d="m 391.3,55.4 0.1,-0.3 c 0,0 -0.5,-0.2 -1.3,-0.4 -2.8,-1 -9.9,-3.5 -16.6,-6.1 -3.4,-1.3 -6.6,-2.6 -9.2,-3.7 -1.3,-0.6 -2.4,-1.1 -3.3,-1.6 -0.9,-0.5 -1.5,-0.9 -1.9,-1.1 -0.8,-0.7 -1.3,-1.2 -1.8,-1.6 -0.7,-0.6 -1.3,-0.8 -2.2,-1 -0.9,-0.2 -2.1,-0.3 -4.4,-0.7 -3,-0.5 -11.6,-2.1 -20.6,-4 -9,-1.8 -18.2,-3.9 -22.2,-5.3 -4,-1.4 -6.4,-2.5 -7.8,-3.2 -0.7,-0.3 -1.1,-0.6 -1.4,-0.7 -0.1,-0.1 -0.2,-0.1 -0.3,-0.2 h -0.1 v 0 0 0 0 0 0 l -0.5,0.5 c 0,0 8,8.6 16.1,15.2 8.1,6.6 21.3,15 28.4,18.9 3.5,1.9 8.6,4.7 13.5,7 4.9,2.4 9.7,4.4 12.6,4.9 2.8,0.5 6.2,1.1 8.9,1.7 1.3,0.3 2.5,0.5 3.3,0.7 0.8,0.2 1.3,0.3 1.3,0.3 l 0.3,0.1 8.1,-16.1 1.4,-3.2 -0.4,-0.1 v 0 l -0.3,-0.1 -1.2,2.9 -8,15.9 0.3,0.1 0.1,-0.3 c 0,0 -7.9,-1.6 -13.6,-2.6 -2.8,-0.5 -7.5,-2.5 -12.4,-4.8 -4.9,-2.4 -10,-5.1 -13.5,-7 -7,-3.8 -20.3,-12.3 -28.3,-18.8 -4,-3.3 -8,-7.1 -11,-10 -1.5,-1.5 -2.7,-2.8 -3.6,-3.7 -0.4,-0.5 -0.8,-0.8 -1,-1.1 -0.2,-0.2 -0.4,-0.4 -0.4,-0.4 l -0.2,0.2 -0.2,0.3 c 0.1,0 1.7,1.3 9.7,4.2 4.1,1.5 13.3,3.5 22.3,5.4 9,1.8 17.7,3.4 20.6,4 3,0.5 4.2,0.6 5.1,0.9 0.4,0.1 0.8,0.3 1.2,0.7 0.5,0.3 1,0.8 1.8,1.6 0.4,0.4 1.3,0.9 2.4,1.4 3.9,2 11.4,4.9 18,7.3 6.5,2.4 12.1,4.4 12.1,4.4 l 0.1,-0.5 -0.3,-0.1 z"
   id="path48" />
	<path
   class="st0"
   d="m 407.6,58.7 c 0,0 22,-0.3 29.3,0 7.3,0.3 13.1,0.3 13.1,0.3 0,0 9.8,2.4 17.7,3.9 8,1.5 17.6,2.6 21.8,2.9 4.2,0.3 8.4,1 8.4,1 0,0 4,0.6 -15.5,4.8 -19.5,4.2 -28.8,6.4 -40.8,7.7 -12.1,1.3 -26.5,1.9 -32.6,0.6 -6.1,-1.3 -7.8,-2.1 -7.8,-2.1 0,0 4,-10 5.3,-13.5 1.1,-3.5 1.1,-5.6 1.1,-5.6"
   id="path50" />
	<path
   d="M 407.6,58.7 V 59 c 0,0 0.6,0 1.7,0 3.2,0 10.3,-0.1 16.8,-0.1 4.3,0 8.4,0 10.8,0.1 7.3,0.3 13.1,0.3 13.1,0.3 V 59 l -0.1,0.3 c 0,0 9.8,2.4 17.7,3.9 8,1.5 17.6,2.6 21.8,2.9 2.1,0.2 4.2,0.4 5.7,0.6 0.8,0.1 1.4,0.2 1.9,0.3 0.4,0.1 0.7,0.1 0.7,0.1 V 67 67.1 67 67.1 h 0.1 v 0 0 0 0 0 0 l 0.1,-0.1 h -0.2 c 0,0.1 0,0.1 0,0.1 l 0.1,-0.1 h -0.2 0.1 l -0.1,-0.1 V 67 h 0.1 l -0.1,-0.1 v 0 0 0 0 c 0,0 -0.2,0.2 -0.7,0.4 -1.4,0.7 -5.3,1.9 -14.9,3.9 -19.5,4.2 -28.8,6.4 -40.8,7.7 -7.4,0.8 -15.8,1.3 -22.5,1.3 -4.1,0 -7.7,-0.2 -10,-0.7 -3,-0.6 -5,-1.2 -6.2,-1.5 -0.6,-0.2 -1,-0.3 -1.2,-0.4 -0.1,0 -0.2,-0.1 -0.3,-0.1 h -0.1 v 0 l -0.1,0.3 0.3,0.1 c 0,0 4,-10 5.3,-13.5 1.3,-3.5 1.3,-5.7 1.3,-5.8 h -0.1 v 0.3 -0.2 h -0.3 v 0.1 c 0,0.4 -0.1,2.4 -1.3,5.4 -0.6,1.7 -1.9,5.1 -3.1,8 -0.6,1.5 -1.1,2.8 -1.5,3.8 -0.4,1 -0.6,1.6 -0.6,1.6 l -0.1,0.3 0.3,0.1 c 0,0 1.8,0.8 7.9,2.1 2.4,0.5 5.9,0.7 10.1,0.7 6.8,0 15.1,-0.5 22.6,-1.3 12.1,-1.3 21.4,-3.5 40.9,-7.7 6.9,-1.5 10.9,-2.5 13.1,-3.2 1.1,-0.4 1.8,-0.7 2.3,-0.9 0.2,-0.1 0.4,-0.2 0.5,-0.3 0.1,-0.1 0.2,-0.2 0.2,-0.4 0,-0.2 -0.1,-0.3 -0.2,-0.4 -0.1,-0.1 -0.2,-0.1 -0.3,-0.2 -0.1,0 -0.2,0 -0.2,0 0,0 -4.2,-0.6 -8.4,-1 -4.2,-0.3 -13.8,-1.4 -21.7,-2.9 -4,-0.7 -8.4,-1.7 -11.8,-2.5 -1.7,-0.4 -3.2,-0.7 -4.2,-1 -1,-0.2 -1.6,-0.4 -1.6,-0.4 v 0 0 c 0,0 -0.4,0 -1,0 -2,0 -6.6,-0.1 -12.1,-0.3 -2.5,-0.1 -6.5,-0.1 -10.9,-0.1 -8.7,0 -18.4,0.1 -18.4,0.1 h -0.3 v 0.3 h 0.1"
   id="path52" />
	<path
   class="st1"
   d="m 381.1,77 -20.4,7.3 c 0,0 6.8,13.4 13.9,17 8.3,4.2 14.4,4.2 24.5,-0.1 6.9,-3 9.3,-6.2 9.3,-6.2 L 399.1,81.2 386.6,79 Z"
   id="path54" />
	<path
   d="m 381.1,77 -0.1,-0.3 -20.7,7.5 0.2,0.3 c 0,0 1.7,3.4 4.3,7.2 2.6,3.8 6.1,8.1 9.7,9.9 4.2,2.1 7.8,3.2 11.7,3.2 3.9,0 8,-1.1 13.1,-3.3 7,-3 9.4,-6.3 9.4,-6.3 l 0.1,-0.2 -9.5,-14.1 -12.6,-2.3 -5.5,-2 h -0.1 V 77 l -0.1,0.3 5.5,1.9 12.4,2.2 9.2,13.7 0.3,-0.2 -0.3,-0.2 v 0 c -0.1,0.1 -2.5,3.3 -9.1,6.1 -5,2.2 -9,3.2 -12.8,3.2 -3.7,0 -7.3,-1 -11.4,-3.1 -3.4,-1.7 -6.9,-5.9 -9.5,-9.7 -1.3,-1.9 -2.3,-3.7 -3.1,-5 -0.4,-0.7 -0.7,-1.2 -0.9,-1.6 C 361.1,84.2 361,84 361,84 l -0.3,0.2 0.1,0.3 20.4,-7.3 -0.1,-0.2 -0.1,0.3 z"
   id="path56" />
	<path
   class="st2"
   d="m 390.5,55.3 5.1,-1.4 c 0,0 0.7,-2 2.5,-3.6 0.5,-0.4 0.8,-1.5 1.7,-1.9 2.8,-1.3 3,-1.6 4.6,-0.3 1.5,1.3 2.2,5.5 2.2,5.5 l 0.6,2.6 0.6,2.2 c 0,0 0.2,2.7 -1.7,8.1 -3.3,9.3 -3.1,10.8 -6.9,14.7 -3.9,3.9 -6.1,5.5 -6.1,5.5 l -2.1,4.2 c 0,0 -1.2,7.7 -2.8,8 -1.5,0.3 -3.1,-1.3 -1.5,-3.2 1.5,-1.9 3.3,-7.1 3.3,-7.1 0,0 0,-1.3 -1.9,-0.1 -1.9,1.3 -2.1,0.3 -3.5,3.2 -1.5,3 -2.1,4.9 -2.1,4.9 0,0 -1,-1.4 -0.3,-4.3 0.6,-2.9 -0.3,-2 -0.3,-6.2 0,-4.2 -1,-7.9 0,-10.4 1,-2.6 3.7,-9.6 5.7,-13.2 1.7,-3.6 2.9,-7.2 2.9,-7.2"
   id="path58" />
	<path
   d="m 390.5,55.3 0.1,0.3 5.2,-1.4 0.1,-0.2 v 0 c 0.1,-0.2 0.7,-2 2.4,-3.4 0.3,-0.3 0.5,-0.6 0.8,-1 0.2,-0.3 0.5,-0.7 0.9,-0.8 0.8,-0.4 1.4,-0.6 1.8,-0.8 0.5,-0.2 0.8,-0.3 1,-0.3 0.2,0 0.3,0 0.6,0.2 0.2,0.1 0.5,0.3 0.8,0.6 0.3,0.3 0.6,0.7 0.9,1.3 0.4,0.8 0.7,1.8 0.9,2.6 0.1,0.4 0.2,0.7 0.2,1 0,0.2 0.1,0.4 0.1,0.4 v 0 l 0.6,2.6 0.6,2.2 0.3,-0.1 h -0.3 v 0 c 0,0 0,0.1 0,0.1 0,0.7 -0.1,3.2 -1.7,7.8 -1.6,4.7 -2.4,7.4 -3.2,9.4 -0.8,2 -1.7,3.3 -3.6,5.2 -1.9,1.9 -3.4,3.3 -4.5,4.2 -0.5,0.4 -0.9,0.8 -1.2,1 -0.1,0.1 -0.2,0.2 -0.3,0.2 -0.1,0 -0.1,0.1 -0.1,0.1 h -0.1 l -2.2,4.3 v 0.1 c 0,0 0,0.1 0,0.3 -0.1,0.7 -0.5,2.6 -0.9,4.2 -0.2,0.8 -0.5,1.6 -0.8,2.2 -0.1,0.3 -0.3,0.5 -0.4,0.7 -0.1,0.2 -0.2,0.2 -0.3,0.2 -0.1,0 -0.2,0 -0.3,0 -0.4,0 -0.8,-0.1 -1,-0.4 -0.3,-0.2 -0.4,-0.6 -0.4,-1 0,-0.4 0.1,-0.8 0.6,-1.4 0.8,-1 1.6,-2.8 2.3,-4.3 0.6,-1.5 1.1,-2.8 1.1,-2.8 v -0.1 -0.1 c 0,0 0,-0.2 -0.1,-0.5 0,-0.1 -0.1,-0.2 -0.3,-0.3 -0.1,-0.1 -0.3,-0.2 -0.5,-0.2 -0.4,0 -0.8,0.2 -1.5,0.6 -0.9,0.6 -1.3,0.7 -1.9,1 -0.3,0.2 -0.5,0.4 -0.8,0.7 -0.3,0.4 -0.6,0.9 -0.9,1.6 -1.5,3 -2.1,5 -2.1,5 l 0.3,0.1 0.3,-0.2 c 0,-0.1 -0.5,-0.8 -0.5,-2.2 0,-0.5 0.1,-1.1 0.2,-1.8 0.2,-0.8 0.2,-1.3 0.2,-1.7 0,-0.6 -0.1,-1 -0.2,-1.6 -0.1,-0.6 -0.2,-1.4 -0.2,-2.9 0,-2.8 -0.4,-5.4 -0.4,-7.5 0,-1.1 0.1,-2 0.4,-2.8 1,-2.6 3.7,-9.6 5.6,-13.2 2,-3.6 3.2,-7.4 3.2,-7.4 l -0.8,0.2 0.1,0.3 -0.1,-0.3 -0.3,-0.1 c 0,0 -0.1,0.2 -0.2,0.6 -0.5,1.2 -1.5,3.9 -2.9,6.6 -2,3.7 -4.7,10.7 -5.7,13.3 -0.3,0.9 -0.5,1.9 -0.5,3 0,2.2 0.4,4.8 0.4,7.5 0,1.6 0.1,2.4 0.2,3.1 0.1,0.6 0.2,1 0.2,1.5 0,0.4 -0.1,0.8 -0.2,1.6 -0.2,0.7 -0.2,1.4 -0.2,1.9 0,1.7 0.6,2.5 0.6,2.6 l 0.4,0.6 0.2,-0.6 v -0.1 c 0.1,-0.4 0.8,-2.2 2.1,-4.8 0.4,-0.7 0.6,-1.2 0.9,-1.5 0.4,-0.5 0.6,-0.6 0.9,-0.7 0.4,-0.1 0.9,-0.3 1.6,-0.8 0.6,-0.4 0.9,-0.5 1.1,-0.5 0.1,0 0.1,0 0.2,0 0.1,0 0.1,0.1 0.1,0.1 v 0.1 0 0 0 0 0 0 h 0.3 l -0.3,-0.1 c 0,0 -0.1,0.3 -0.3,0.8 -0.3,0.8 -0.7,2 -1.3,3.1 -0.5,1.2 -1.1,2.3 -1.7,3 -0.5,0.6 -0.7,1.2 -0.7,1.8 0,0.6 0.3,1.1 0.6,1.5 0.4,0.3 0.9,0.5 1.5,0.5 0.1,0 0.3,0 0.5,0 0.3,-0.1 0.6,-0.3 0.8,-0.6 0.4,-0.5 0.7,-1.2 0.9,-2 0.8,-2.4 1.3,-5.7 1.3,-5.7 l -0.3,-0.1 0.3,0.1 2.1,-4.2 -0.3,-0.2 0.2,0.3 c 0,0 2.3,-1.6 6.1,-5.5 1.9,-1.9 2.9,-3.4 3.8,-5.4 0.9,-2.1 1.6,-4.8 3.3,-9.4 1.6,-4.6 1.8,-7.3 1.8,-8 0,-0.1 0,-0.2 0,-0.2 v 0 l -0.6,-2.2 -0.6,-2.6 -0.3,0.1 0.3,-0.1 c 0,0 -0.2,-1.1 -0.5,-2.3 -0.2,-0.6 -0.4,-1.3 -0.7,-1.9 -0.3,-0.6 -0.6,-1.1 -1.1,-1.5 -0.3,-0.3 -0.6,-0.5 -0.9,-0.7 -0.3,-0.1 -0.6,-0.2 -0.9,-0.2 -0.4,0 -0.8,0.1 -1.3,0.3 -0.5,0.2 -1.1,0.5 -1.9,0.8 -0.5,0.2 -0.9,0.7 -1.1,1 -0.3,0.4 -0.5,0.8 -0.6,0.9 -1.9,1.7 -2.5,3.7 -2.6,3.7 l 0.3,0.1 -0.1,-0.3 -5.2,1.4 -0.1,0.2 z"
   id="path60" />
	<path
   class="st3"
   d="m 388.7,88.6 c -1.2,0.4 -1.6,0.5 -2.6,1.5 -1.3,1.2 -2.9,3 -2.9,3 0,0 -0.8,2 -1,0.9 -0.2,-1.1 0.2,-2.2 0.2,-2.2 0,0 -0.4,-1.1 -0.6,-1.6 -0.3,-1 -0.6,-2.4 -0.8,-4.2 -0.3,-2.8 -0.6,-7.6 -0.3,-9.7 0.2,-1.5 0.8,-2.5 0.8,-2.5 l 2.6,-5.4 3,-6.2 3.3,-7.2 3,-1 2.2,-0.6 c 0,0 0.8,-1.5 1.5,-2.6 0.5,-0.7 0.5,-0.8 1.6,-1.8 1.2,-1 2.3,-1 2.3,-1 l 0.3,2 c 0,0 -0.2,9.9 0,12.2 0.2,2.2 0.8,2.4 -0.8,6.9 -1.6,4.5 -2.2,5.3 -4.2,8.9 -2,3.5 -6.4,10.6 -6.4,10.6 0,0 -0.2,-0.3 -1.2,0"
   id="path62" />
	<path
   d="m 388.7,88.6 -0.1,-0.3 c -0.6,0.2 -1.1,0.3 -1.5,0.5 -0.4,0.2 -0.8,0.5 -1.3,1 -1.3,1.2 -2.9,3.1 -2.9,3.1 v 0 0 c 0,0 0,0.1 -0.1,0.2 -0.1,0.2 -0.2,0.4 -0.3,0.6 -0.1,0.1 -0.1,0.2 -0.2,0.2 v 0 l 0.1,0.1 v -0.2 h -0.1 l 0.1,0.1 v -0.2 0.2 l 0.1,-0.2 h -0.1 v 0.2 l 0.1,-0.2 -0.1,0.1 0.1,-0.1 v 0 l -0.1,0.1 0.1,-0.1 v 0 h 0.1 v 0 0 h 0.1 v 0 -0.1 c 0,-0.2 -0.1,-0.4 -0.1,-0.6 0,-0.4 0.1,-0.7 0.1,-1 0,-0.1 0.1,-0.2 0.1,-0.3 v -0.1 0 -0.1 -0.1 c 0,0 -0.1,-0.3 -0.2,-0.6 -0.1,-0.3 -0.3,-0.7 -0.3,-0.9 -0.3,-0.9 -0.6,-2.4 -0.8,-4.1 -0.2,-1.9 -0.4,-4.7 -0.4,-7 0,-1.1 0,-2 0.1,-2.7 0.1,-0.7 0.3,-1.3 0.5,-1.7 0.1,-0.2 0.2,-0.4 0.2,-0.5 l 0.1,-0.1 v 0 0 0 l 2.6,-5.4 3,-6.2 3.2,-7.1 2.8,-0.9 2.3,-0.6 0.1,-0.1 c 0,0 0.2,-0.4 0.5,-0.9 0.3,-0.5 0.7,-1.1 1,-1.7 0.2,-0.4 0.3,-0.5 0.5,-0.8 0.2,-0.2 0.5,-0.5 1,-1 1.1,-1 2,-1 2.1,-1 v 0 0 0 0 -0.3 l -0.3,0.1 0.3,2 0.3,-0.1 h -0.3 c 0,0 -0.1,4.4 -0.1,8 0,1.8 0,3.4 0.1,4.2 0.1,1.1 0.3,1.6 0.3,2.4 0,0.8 -0.2,2 -1.1,4.4 -1.6,4.5 -2.2,5.3 -4.2,8.8 -1,1.8 -2.6,4.4 -3.9,6.6 -0.7,1.1 -1.3,2.1 -1.8,2.8 -0.5,0.7 -0.7,1.2 -0.7,1.2 l 0.3,0.2 0.3,-0.2 C 390.2,88.1 390,88 389.8,88 c -0.2,0 -0.6,0.1 -1,0.2 l -0.1,0.4 0.1,0.3 c 0.4,-0.1 0.7,-0.2 0.9,-0.2 0.1,0 0.1,0 0.1,0 l 0.1,-0.2 -0.1,0.1 0.1,0.1 0.1,-0.2 -0.1,0.1 0.3,0.3 0.2,-0.4 c 0,0 4.5,-7.1 6.4,-10.6 1.9,-3.5 2.6,-4.4 4.2,-8.9 0.9,-2.4 1.1,-3.6 1.1,-4.6 0,-0.9 -0.2,-1.4 -0.3,-2.4 -0.1,-0.7 -0.1,-2.3 -0.1,-4.1 0,-1.8 0,-3.8 0,-5.4 0,-1.5 0,-2.7 0,-2.7 v 0 l -0.3,-2.3 h -0.3 v 0 c -0.2,0 -1.3,0.1 -2.5,1.2 -0.5,0.5 -0.8,0.8 -1,1.1 -0.2,0.3 -0.4,0.5 -0.6,0.8 -0.7,1.1 -1.6,2.6 -1.6,2.6 l 0.3,0.2 -0.1,-0.3 -2.2,0.6 -3.1,1 -3.3,7.4 -3,6.2 -2.6,5.4 0.3,0.1 -0.3,-0.2 c 0,0 -0.6,1.1 -0.9,2.6 -0.1,0.7 -0.1,1.7 -0.1,2.8 0,2.3 0.2,5.1 0.4,7.1 0.2,1.8 0.5,3.2 0.8,4.3 0.1,0.5 0.6,1.6 0.6,1.6 l 0.3,-0.1 -0.3,-0.1 c 0,0 -0.3,0.7 -0.3,1.6 0,0.2 0,0.5 0.1,0.7 0,0.1 0.1,0.3 0.1,0.4 0,0.1 0.1,0.1 0.1,0.2 0.1,0 0.2,0.1 0.3,0.1 0.2,0 0.2,-0.1 0.3,-0.1 0.1,-0.1 0.2,-0.2 0.3,-0.4 0.3,-0.4 0.5,-1 0.5,-1 l -0.3,-0.1 0.3,0.2 c 0,0 0.1,-0.1 0.3,-0.3 0.5,-0.6 1.7,-1.8 2.6,-2.7 0.5,-0.5 0.8,-0.7 1.2,-0.9 0.3,-0.2 0.7,-0.3 1.3,-0.5 z"
   id="path64" />
	<path
   d="m 401.3,50.5 c 0,0 -2.5,2.5 -2.5,4.2 0,1.7 1.2,3.4 1.2,3.4 l 1.3,-0.4 c 0,0 1.5,-1.4 1.1,-2.9 -0.4,-1.7 -1.1,-4.3 -1.1,-4.3"
   id="path66" />
	<path
   d="m 401.3,50.5 -0.2,-0.2 c 0,0 -0.6,0.6 -1.3,1.5 -0.3,0.4 -0.6,0.9 -0.9,1.4 -0.2,0.5 -0.4,1 -0.4,1.5 0,0.9 0.3,1.8 0.7,2.5 0.3,0.6 0.6,1.1 0.6,1.1 l 0.2,0.2 1.6,-0.5 v -0.1 c 0,0 0.3,-0.3 0.6,-0.8 0.3,-0.5 0.6,-1.1 0.6,-1.9 0,-0.2 0,-0.4 -0.1,-0.6 -0.4,-1.6 -1.1,-4.2 -1.1,-4.2 l -0.2,-0.6 -0.4,0.4 0.3,0.3 -0.3,0.1 c 0,0 0.2,0.6 0.4,1.5 0.2,0.8 0.5,1.9 0.7,2.7 0,0.2 0,0.3 0,0.5 0,0.6 -0.3,1.1 -0.5,1.5 -0.1,0.2 -0.3,0.4 -0.4,0.5 l -0.1,0.1 v 0 0 l 0.2,0.2 -0.1,-0.3 -1.3,0.4 0.1,0.3 0.3,-0.2 v 0 c -0.1,-0.1 -0.4,-0.5 -0.6,-1.1 -0.3,-0.6 -0.5,-1.3 -0.5,-2.1 0,-0.3 0.1,-0.8 0.4,-1.2 0.3,-0.7 0.9,-1.4 1.3,-1.9 0.2,-0.3 0.4,-0.5 0.5,-0.6 0.1,-0.1 0.1,-0.1 0.2,-0.2 l 0.1,-0.1 -0.4,-0.1 -0.3,0.1 z"
   id="path68" />
	<path
   d="m 398.6,50.9 c 0.2,0 0.4,-0.2 0.4,-0.5 0,-0.3 -0.2,-0.5 -0.4,-0.5 -0.2,0 -0.4,0.3 -0.4,0.5 0,0.2 0.2,0.5 0.4,0.5"
   id="path70" />
	<path
   d="m 398.6,50.9 v 0.3 c 0.2,0 0.4,-0.1 0.6,-0.3 0.1,-0.2 0.2,-0.4 0.2,-0.6 0,-0.2 -0.1,-0.4 -0.2,-0.6 -0.1,-0.2 -0.3,-0.3 -0.6,-0.3 -0.2,0 -0.4,0.1 -0.6,0.3 -0.1,0.2 -0.2,0.4 -0.2,0.6 0,0.2 0.1,0.4 0.2,0.6 0.1,0.2 0.3,0.3 0.6,0.3 v -0.3 -0.3 0 c 0,0 -0.1,-0.1 -0.1,-0.2 0,-0.1 0,-0.1 0.1,-0.2 v 0 0 c 0,0 0.1,0.1 0.1,0.2 0,0.1 0,0.2 0,0.2 v 0 0 0.3 z"
   id="path72" />
	<path
   d="m 392.9,86.3 -0.2,-1.7 -2.5,3.3 -1,2.4 c 0,0 -0.8,2.3 -1.3,3.2 -0.5,0.9 -1.8,2.4 -1.9,3 -0.1,0.9 -0.1,1 0.5,1.5 0.5,0.5 1.1,0.8 1.5,0.5 0.5,-0.2 1.7,-1.8 1.8,-2.8 0.1,-1 0.9,-3.8 0.9,-4.5 0,-0.7 1.7,-3.7 1.7,-3.7 l 0.6,-1.1 z"
   id="path74" />
	<path
   d="m 386.6,85.6 -0.2,-1.7 -2.5,3.3 -1,2.4 c 0,0 -0.8,2.3 -1.3,3.3 -0.5,0.9 -1.8,2.4 -1.9,3 -0.1,0.8 -0.1,1.1 0.4,1.6 0.5,0.5 1.1,0.5 1.6,0.4 0.5,-0.1 1.5,-1.8 1.8,-2.8 0.3,-1 0.9,-3.8 0.9,-4.5 0,-0.7 1.7,-3.7 1.7,-3.7 l 0.6,-1.1 z"
   id="path76" />
	<path
   d="m 386.6,85.6 h 0.3 l -0.3,-2.5 -3,4 -1,2.5 v 0 c 0,0 0,0.1 -0.1,0.4 -0.1,0.3 -0.3,0.9 -0.5,1.4 -0.2,0.5 -0.4,1.1 -0.6,1.4 -0.2,0.4 -0.7,1 -1.1,1.6 -0.2,0.3 -0.4,0.6 -0.5,0.8 -0.2,0.3 -0.3,0.5 -0.3,0.7 0,0.2 0,0.4 0,0.6 0,0.2 0,0.4 0.1,0.7 0.1,0.2 0.2,0.4 0.4,0.6 0.4,0.4 0.9,0.6 1.3,0.6 0.2,0 0.4,0 0.5,-0.1 0.1,0 0.2,-0.1 0.3,-0.2 0.3,-0.3 0.7,-0.7 1,-1.3 0.3,-0.5 0.6,-1.1 0.7,-1.6 0.2,-0.5 0.4,-1.5 0.6,-2.4 0.1,-0.5 0.2,-0.9 0.2,-1.3 0.1,-0.4 0.1,-0.7 0.1,-0.9 0,0 0,-0.1 0.1,-0.3 0.1,-0.5 0.6,-1.3 0.9,-2 0.2,-0.3 0.4,-0.7 0.5,-0.9 0.1,-0.2 0.2,-0.4 0.2,-0.4 v 0 l 0.7,-1.2 -0.2,-0.5 -0.3,0.3 h 0.3 -0.3 l -0.3,0.1 0.1,0.1 -0.5,0.9 v 0 c 0,0 -0.4,0.8 -0.9,1.6 -0.2,0.4 -0.4,0.9 -0.6,1.3 -0.1,0.2 -0.2,0.4 -0.2,0.5 -0.1,0.2 -0.1,0.3 -0.1,0.5 0,0.1 0,0.4 -0.1,0.8 -0.2,1.1 -0.6,2.9 -0.8,3.6 -0.1,0.4 -0.5,1.1 -0.8,1.6 -0.2,0.3 -0.4,0.5 -0.5,0.7 -0.1,0.1 -0.2,0.2 -0.2,0.2 h -0.1 v 0 0 0 0 0 0 c -0.1,0 -0.3,0.1 -0.4,0.1 -0.3,0 -0.5,-0.1 -0.8,-0.4 -0.2,-0.2 -0.3,-0.3 -0.3,-0.4 0,-0.1 -0.1,-0.2 -0.1,-0.4 0,-0.1 0,-0.3 0,-0.6 0,-0.1 0.1,-0.2 0.2,-0.5 0.2,-0.3 0.5,-0.8 0.8,-1.2 0.3,-0.4 0.6,-0.9 0.8,-1.2 0.3,-0.5 0.6,-1.3 0.9,-2 0.3,-0.7 0.4,-1.3 0.4,-1.3 l -0.3,-0.1 0.3,0.1 1,-2.4 2,-2.6 0.1,0.9 v 0 z"
   id="path78" />
	<path
   d="m 405.7,52.8 c 0.2,0 0.4,-0.2 0.4,-0.5 0,-0.3 -0.2,-0.5 -0.4,-0.5 -0.2,0 -0.4,0.2 -0.4,0.5 0,0.2 0.2,0.5 0.4,0.5"
   id="path80" />
	<path
   d="m 405.7,52.8 v 0.3 c 0.2,0 0.4,-0.1 0.6,-0.3 0.1,-0.2 0.2,-0.4 0.2,-0.6 0,-0.2 -0.1,-0.4 -0.2,-0.6 -0.1,-0.2 -0.3,-0.3 -0.6,-0.3 -0.2,0 -0.4,0.1 -0.6,0.3 -0.1,0.2 -0.2,0.4 -0.2,0.6 0,0.2 0.1,0.4 0.2,0.6 0.1,0.2 0.3,0.3 0.6,0.3 v -0.3 -0.3 c 0,0 -0.1,-0.1 -0.1,-0.2 0,-0.1 0,-0.1 0,-0.2 v 0 c 0,0 0.1,0.1 0.1,0.2 0,0.1 0,0.1 -0.1,0.2 v 0 0.3 z"
   id="path82" />
</g>
</svg>
