<?xml version="1.0" encoding="utf-8"?>
<!-- Generator: Adobe Illustrator 26.0.1, SVG Export Plug-In . SVG Version: 6.00 Build 0)  -->
<svg version="1.1" id="Laag_1" xmlns="http://www.w3.org/2000/svg" xmlns:xlink="http://www.w3.org/1999/xlink" x="0px" y="0px"
	 viewBox="0 0 808.5 141.7" style="enable-background:new 0 0 808.5 141.7;" xml:space="preserve">
<style type="text/css">
	.st0{fill:#234672;}
	.st1{fill:#E4032E;}
	.st2{fill:#FFFFFF;}
	.st3{fill:#BDBCBC;}
</style>
<path d="M419.6,117.2h2.5v-6.6h2.1c4.2,0,6.7-1.8,6.7-5.4c0-3.5-2.7-5-6.4-5h-4.9V117.2L419.6,117.2z M422.1,108.5v-6.4h2.2
	c3,0,4.2,1.1,4.2,3.1c0,2.3-1.3,3.3-4.2,3.3H422.1L422.1,108.5z M435.1,113.3h8.1l1.5,3.9h2.6l-6.9-17H438l-6.8,17h2.4L435.1,113.3
	L435.1,113.3z M442.4,111.2h-6.5l2.2-5.6c0.5-1.4,1.1-3.1,1.1-3.1h0.1c0,0,0.5,1.6,1.1,3.1L442.4,111.2L442.4,111.2z M450.6,117.2
	h2.5v-7.6h0.3c1.1,0,1.5,0.2,3.3,2.7l3.5,4.9h2.9l-4.3-5.7c-1.1-1.4-1.6-2-2-2.2v-0.1c2.7-0.2,4.9-1.5,4.9-4.5c0-3-2.2-4.6-6.1-4.6
	h-5.1V117.2L450.6,117.2z M453.1,107.7v-5.5h2.4c2.6,0,3.8,0.8,3.8,2.7c0,1.8-1.1,2.8-3.6,2.8H453.1L453.1,107.7z M469.6,117.2h2.5
	v-15h5.2v-2.1h-13v2.1h5.2V117.2L469.6,117.2z M480.8,117.2h2.5v-17h-2.5V117.2L480.8,117.2z M487.4,122.1c2.8,0,4.3-1.7,4.3-4.7
	v-17.3h-2.5v16.9c0,2-0.7,2.9-2.1,2.9c-0.5,0-0.9-0.1-1.1-0.2l-0.4,2.1C485.9,122,486.5,122.1,487.4,122.1L487.4,122.1z
	 M509.2,117.2h2.4l6.6-17h-2.4l-4.3,11.5c-0.5,1.3-1,2.9-1,2.9h-0.1c0,0-0.5-1.7-1-2.9l-4.5-11.5h-2.6L509.2,117.2L509.2,117.2z
	 M529,117.5c5.6,0,8.8-4.2,8.8-8.9c0-4.7-3.3-8.8-8.9-8.8c-5.6,0-8.9,4.2-8.9,8.9C520,113.4,523.4,117.5,529,117.5L529,117.5z
	 M528.9,115.4c-4.1,0-6.3-3.2-6.3-6.8c0-3.6,2.2-6.7,6.3-6.7c4.1,0,6.2,3.2,6.2,6.8C535.2,112.3,533,115.4,528.9,115.4L528.9,115.4z
	 M549.7,117.5c5.6,0,8.8-4.2,8.8-8.9c0-4.7-3.3-8.8-8.9-8.8c-5.6,0-8.9,4.2-8.9,8.9C540.8,113.4,544.1,117.5,549.7,117.5
	L549.7,117.5z M549.7,115.4c-4.1,0-6.3-3.2-6.3-6.8c0-3.6,2.2-6.7,6.3-6.7c4.1,0,6.2,3.2,6.2,6.8
	C555.9,112.3,553.8,115.4,549.7,115.4L549.7,115.4z M562.7,117.2h2.5v-7.6h0.3c1.1,0,1.5,0.2,3.3,2.7l3.5,4.9h2.9l-4.3-5.7
	c-1.1-1.4-1.6-2-2-2.2v-0.1c2.7-0.2,4.9-1.5,4.9-4.5c0-3-2.2-4.6-6.1-4.6h-5.1V117.2L562.7,117.2z M565.2,107.7v-5.5h2.4
	c2.6,0,3.8,0.8,3.8,2.7c0,1.8-1.1,2.8-3.6,2.8H565.2L565.2,107.7z M586.2,117.2h4.4c7.1,0,10.2-3.7,10.2-8.7c0-5-3.1-8.3-10.1-8.3
	h-4.5V117.2L586.2,117.2z M588.7,115.2v-13h1.9c5.2,0,7.6,1.8,7.6,6.4c0,4.5-2.6,6.6-7.4,6.6H588.7L588.7,115.2z M604.9,117.2h10.4
	v-2.1h-7.9v-5.9h6.9v-2h-6.9v-5h7.7v-2.1h-10.2V117.2L604.9,117.2z"/>
<path d="M631.4,117.2h4.2l6.7-17.4h-4.4l-3.4,9.9c-0.5,1.3-0.9,2.8-0.9,2.9h-0.1c0-0.1-0.4-1.5-0.9-2.9l-3.6-9.9h-4.8L631.4,117.2
	L631.4,117.2z M645.2,117.2h4.5v-6.8h0.2c0.8,0,1.2,0.2,2.3,1.8l3.2,5h4.8l-3.2-4.8c-1-1.5-1.8-2.3-2.3-2.7v0c2-0.4,4.1-1.7,4.1-4.7
	c0-3.4-2.6-5.2-7-5.2h-6.4V117.2L645.2,117.2z M649.7,107.4v-4.4h1.7c2,0,2.9,0.7,2.9,2.2c0,1.4-0.9,2.2-2.7,2.2H649.7L649.7,107.4z
	 M663.1,117.2h4.5V99.8h-4.5V117.2L663.1,117.2z M671.8,122.9c3.4,0,5.6-1.9,5.6-5.6V99.8h-4.5v17c0,1.7-0.6,2.4-2.1,2.4
	c-0.5,0-1.1-0.2-1.4-0.3l-0.7,3.5C669.4,122.6,670.3,122.9,671.8,122.9L671.8,122.9z M682,117.2h4.5V110h7.4v7.2h4.4V99.8h-4.4v6.6
	h-7.4v-6.6H682V117.2L682,117.2z M702.9,117.2h11.6v-3.5h-7.2v-3.9h6.3v-3.2h-6.3v-3.4h7.1v-3.5h-11.4V117.2L702.9,117.2z
	 M718.7,117.2h4.5V99.8h-4.5V117.2L718.7,117.2z M727.9,117.2h5.8c7.2,0,10.6-3.9,10.6-8.9c0-5.1-3.3-8.4-10.4-8.4h-6V117.2
	L727.9,117.2z M732.3,113.7v-10.4h1.5c3.9,0,5.7,1.5,5.7,5.1c0,3.6-1.9,5.3-5.6,5.3H732.3L732.3,113.7z"/>
<g>
	<path d="M60.6,100.5v16.7h-2.1v-16.7H54v-2h11.1v2H60.6z"/>
	<path d="M69.4,98.6l4.9,14l5.9-15l5.5,15l5.5-14h2.3l-7.8,19.7l-5.5-15l-5.9,15l-7.2-19.7H69.4z"/>
	<path d="M107.2,100.5h-7.6v5.5h7.4v2h-7.4v7.3h7.6v2h-9.7V98.6h9.7V100.5z"/>
	<path d="M122.1,100.5h-7.6v5.5h7.4v2h-7.4v7.3h7.6v2h-9.7V98.6h9.7V100.5z"/>
	<path d="M127.3,98.6h3.8c1.9,0,4.5,0.2,6.9,2.2c1.7,1.4,3.2,3.8,3.2,7.2c0,3.9-1.9,6-3.3,7.2c-1.7,1.5-3.5,2.2-6.8,2.2h-3.8V98.6z
		 M129.4,115.3h1.8c1.5,0,3.5-0.2,5.3-1.7c1.4-1.2,2.5-3,2.5-5.7c0-4.5-3.1-7.4-7.9-7.4h-1.8V115.3z"/>
	<path d="M156.1,100.5h-7.6v5.5h7.4v2h-7.4v7.3h7.6v2h-9.7V98.6h9.7V100.5z"/>
	<path d="M171.3,106.6l8-8h2.8l-8.7,8.7l9,10h-2.9l-7.6-8.6l-0.5,0.5v8h-2.1V98.6h2.1V106.6z"/>
	<path d="M196.9,112h-8l-2.2,5.3h-2.3l8.6-19.6l8.4,19.6h-2.3L196.9,112z M196.1,110l-3.1-7.5l-3.2,7.5H196.1z"/>
	<path d="M204.7,117.3l3.1-19.7l7.2,15.8l7.3-15.8l2.9,19.7h-2.1l-1.8-13L215,118l-6.3-13.8l-1.8,13H204.7z"/>
	<path d="M240.6,100.5H233v5.5h7.4v2H233v7.3h7.6v2h-9.7V98.6h9.7V100.5z"/>
	<path d="M248.8,98.6c1.3,0,3.1,0.1,4.5,1c1.1,0.7,2,2.2,2,4.1c0,2.9-1.9,5-4.7,5.2l5.9,8.3h-2.5l-5.7-8.2h-0.5v8.2h-2.1V98.6H248.8
		z M247.9,107.2h1.3c2.6,0,4.1-1.2,4.1-3.4c0-1-0.3-2.1-1.5-2.7c-0.8-0.5-1.8-0.5-2.7-0.5h-1.3V107.2z"/>
	<path d="M269.8,100.5h-6.4v5.5h6.2v2h-6.2v9.2h-2.1V98.6h8.5V100.5z"/>
	<path d="M277.8,98.6c1.3,0,3.1,0.1,4.5,1c1.1,0.7,2,2.2,2,4.1c0,2.9-1.9,5-4.7,5.2l5.9,8.3h-2.5l-5.7-8.2h-0.5v8.2h-2.1V98.6H277.8
		z M276.9,107.2h1.3c2.6,0,4.1-1.2,4.1-3.4c0-1-0.3-2.1-1.5-2.7c-0.8-0.5-1.8-0.5-2.7-0.5h-1.3V107.2z"/>
	<path d="M300.6,112h-8l-2.2,5.3h-2.3l8.6-19.6l8.4,19.6h-2.3L300.6,112z M299.8,110l-3.1-7.5l-3.2,7.5H299.8z"/>
	<path d="M322.8,102.7c-0.6-0.6-1.5-1.3-2.4-1.7c-1-0.4-2.1-0.7-3.2-0.7c-4.3,0-7.5,3.5-7.5,7.8c0,5.1,4.1,7.6,7.5,7.6
		c1.3,0,2.5-0.4,3.5-0.9c1.1-0.5,1.8-1.2,2.2-1.6v2.6c-2.1,1.5-4.2,1.8-5.6,1.8c-5.5,0-9.7-4.2-9.7-9.6c0-5.6,4.2-9.7,9.8-9.7
		c1.1,0,3.3,0.1,5.5,1.8V102.7z"/>
	<path d="M332.6,100.5v16.7h-2.1v-16.7H326v-2h11.1v2H332.6z"/>
	<path d="M343.4,98.6v18.7h-2.1V98.6H343.4z"/>
	<path d="M359.3,100.5h-7.6v5.5h7.4v2h-7.4v7.3h7.6v2h-9.7V98.6h9.7V100.5z"/>
</g>
<g>
	<path class="st0" d="M391.3,55.4c0,0-29.2-10.1-32.4-13c-3.2-2.9-2.3-2.2-8.2-3.2c-5.9-1-34.8-6.4-42.8-9.3c-8-2.9-9.6-4.2-9.6-4.2
		s8,8.6,16.1,15.2c8,6.6,21.3,15,28.3,18.9c7,3.9,20.3,10.9,25.9,11.9c5.6,1,13.5,2.6,13.5,2.6l8-15.9L391.3,55.4z"/>
	<path d="M391.3,55.4l0.1-0.3c0,0-0.5-0.2-1.3-0.4c-2.8-1-9.9-3.5-16.6-6.1c-3.4-1.3-6.6-2.6-9.2-3.7c-1.3-0.6-2.4-1.1-3.3-1.6
		c-0.9-0.5-1.5-0.9-1.9-1.1c-0.8-0.7-1.3-1.2-1.8-1.6c-0.7-0.6-1.3-0.8-2.2-1c-0.9-0.2-2.1-0.3-4.4-0.7c-3-0.5-11.6-2.1-20.6-4
		c-9-1.8-18.2-3.9-22.2-5.3c-4-1.4-6.4-2.5-7.8-3.2c-0.7-0.3-1.1-0.6-1.4-0.7c-0.1-0.1-0.2-0.1-0.3-0.2l-0.1,0l0,0l0,0l0,0l0,0l0,0
		l0,0l-0.5,0.5c0,0,8,8.6,16.1,15.2c8.1,6.6,21.3,15,28.4,18.9c3.5,1.9,8.6,4.7,13.5,7c4.9,2.4,9.7,4.4,12.6,4.9
		c2.8,0.5,6.2,1.1,8.9,1.7c1.3,0.3,2.5,0.5,3.3,0.7c0.8,0.2,1.3,0.3,1.3,0.3l0.3,0.1l8.1-16.1l1.4-3.2l-0.4-0.1L391.3,55.4l-0.3-0.1
		l-1.2,2.9l-8,15.9l0.3,0.1l0.1-0.3c0,0-7.9-1.6-13.6-2.6c-2.8-0.5-7.5-2.5-12.4-4.8c-4.9-2.4-10-5.1-13.5-7
		c-7-3.8-20.3-12.3-28.3-18.8c-4-3.3-8-7.1-11-10c-1.5-1.5-2.7-2.8-3.6-3.7c-0.4-0.5-0.8-0.8-1-1.1c-0.2-0.2-0.4-0.4-0.4-0.4
		l-0.2,0.2l-0.2,0.3c0.1,0,1.7,1.3,9.7,4.2c4.1,1.5,13.3,3.5,22.3,5.4c9,1.8,17.7,3.4,20.6,4c3,0.5,4.2,0.6,5.1,0.9
		c0.4,0.1,0.8,0.3,1.2,0.7c0.5,0.3,1,0.8,1.8,1.6c0.4,0.4,1.3,0.9,2.4,1.4c3.9,2,11.4,4.9,18,7.3c6.5,2.4,12.1,4.4,12.1,4.4
		L391.3,55.4l-0.3-0.1L391.3,55.4z"/>
	<path class="st0" d="M407.6,58.7c0,0,22-0.3,29.3,0c7.3,0.3,13.1,0.3,13.1,0.3s9.8,2.4,17.7,3.9c8,1.5,17.6,2.6,21.8,2.9
		c4.2,0.3,8.4,1,8.4,1s4,0.6-15.5,4.8c-19.5,4.2-28.8,6.4-40.8,7.7c-12.1,1.3-26.5,1.9-32.6,0.6c-6.1-1.3-7.8-2.1-7.8-2.1
		s4-10,5.3-13.5C407.6,60.8,407.6,58.7,407.6,58.7"/>
	<path d="M407.6,58.7l0,0.3c0,0,0.6,0,1.7,0c3.2,0,10.3-0.1,16.8-0.1c4.3,0,8.4,0,10.8,0.1c7.3,0.3,13.1,0.3,13.1,0.3V59l-0.1,0.3
		c0,0,9.8,2.4,17.7,3.9c8,1.5,17.6,2.6,21.8,2.9c2.1,0.2,4.2,0.4,5.7,0.6c0.8,0.1,1.4,0.2,1.9,0.3c0.4,0.1,0.7,0.1,0.7,0.1l0-0.1
		l0,0.1l0-0.1l0,0.1l0.1,0l0,0l0,0l0,0h0l0,0l0,0l0.1-0.1h-0.2c0,0.1,0,0.1,0,0.1l0.1-0.1h-0.2h0.1l-0.1-0.1l0,0.1h0.1l-0.1-0.1l0,0
		l0,0l0,0l0,0c0,0-0.2,0.2-0.7,0.4c-1.4,0.7-5.3,1.9-14.9,3.9c-19.5,4.2-28.8,6.4-40.8,7.7c-7.4,0.8-15.8,1.3-22.5,1.3
		c-4.1,0-7.7-0.2-10-0.7c-3-0.6-5-1.2-6.2-1.5c-0.6-0.2-1-0.3-1.2-0.4c-0.1,0-0.2-0.1-0.3-0.1l-0.1,0l0,0l-0.1,0.3l0.3,0.1
		c0,0,4-10,5.3-13.5c1.3-3.5,1.3-5.7,1.3-5.8H407.6l0,0.3L407.6,58.7h-0.3v0.1c0,0.4-0.1,2.4-1.3,5.4c-0.6,1.7-1.9,5.1-3.1,8
		c-0.6,1.5-1.1,2.8-1.5,3.8c-0.4,1-0.6,1.6-0.6,1.6l-0.1,0.3l0.3,0.1c0,0,1.8,0.8,7.9,2.1c2.4,0.5,5.9,0.7,10.1,0.7
		c6.8,0,15.1-0.5,22.6-1.3c12.1-1.3,21.4-3.5,40.9-7.7c6.9-1.5,10.9-2.5,13.1-3.2c1.1-0.4,1.8-0.7,2.3-0.9c0.2-0.1,0.4-0.2,0.5-0.3
		c0.1-0.1,0.2-0.2,0.2-0.4c0-0.2-0.1-0.3-0.2-0.4c-0.1-0.1-0.2-0.1-0.3-0.2c-0.1,0-0.2,0-0.2,0c0,0-4.2-0.6-8.4-1
		c-4.2-0.3-13.8-1.4-21.7-2.9c-4-0.7-8.4-1.7-11.8-2.5c-1.7-0.4-3.2-0.7-4.2-1c-1-0.2-1.6-0.4-1.6-0.4l0,0h0c0,0-0.4,0-1,0
		c-2,0-6.6-0.1-12.1-0.3c-2.5-0.1-6.5-0.1-10.9-0.1c-8.7,0-18.4,0.1-18.4,0.1l-0.3,0v0.3H407.6"/>
	<path class="st1" d="M381.1,77l-20.4,7.3c0,0,6.8,13.4,13.9,17c8.3,4.2,14.4,4.2,24.5-0.1c6.9-3,9.3-6.2,9.3-6.2l-9.3-13.8
		l-12.5-2.2L381.1,77z"/>
	<path d="M381.1,77l-0.1-0.3l-20.7,7.5l0.2,0.3c0,0,1.7,3.4,4.3,7.2c2.6,3.8,6.1,8.1,9.7,9.9c4.2,2.1,7.8,3.2,11.7,3.2
		c3.9,0,8-1.1,13.1-3.3c7-3,9.4-6.3,9.4-6.3l0.1-0.2l-9.5-14.1l-12.6-2.3l-5.5-2l-0.1,0L381.1,77l-0.1,0.3l5.5,1.9l12.4,2.2
		l9.2,13.7l0.3-0.2l-0.3-0.2h0c-0.1,0.1-2.5,3.3-9.1,6.1c-5,2.2-9,3.2-12.8,3.2c-3.7,0-7.3-1-11.4-3.1c-3.4-1.7-6.9-5.9-9.5-9.7
		c-1.3-1.9-2.3-3.7-3.1-5c-0.4-0.7-0.7-1.2-0.9-1.6c-0.2-0.4-0.3-0.6-0.3-0.6l-0.3,0.2l0.1,0.3l20.4-7.3L381.1,77l-0.1,0.3L381.1,77
		z"/>
	<path class="st2" d="M390.5,55.3l5.1-1.4c0,0,0.7-2,2.5-3.6c0.5-0.4,0.8-1.5,1.7-1.9c2.8-1.3,3-1.6,4.6-0.3
		c1.5,1.3,2.2,5.5,2.2,5.5l0.6,2.6l0.6,2.2c0,0,0.2,2.7-1.7,8.1c-3.3,9.3-3.1,10.8-6.9,14.7c-3.9,3.9-6.1,5.5-6.1,5.5l-2.1,4.2
		c0,0-1.2,7.7-2.8,8c-1.5,0.3-3.1-1.3-1.5-3.2c1.5-1.9,3.3-7.1,3.3-7.1s0-1.3-1.9-0.1c-1.9,1.3-2.1,0.3-3.5,3.2
		c-1.5,3-2.1,4.9-2.1,4.9s-1-1.4-0.3-4.3c0.6-2.9-0.3-2-0.3-6.2s-1-7.9,0-10.4c1-2.6,3.7-9.6,5.7-13.2
		C389.3,58.9,390.5,55.3,390.5,55.3"/>
	<path d="M390.5,55.3l0.1,0.3l5.2-1.4l0.1-0.2l0,0c0.1-0.2,0.7-2,2.4-3.4c0.3-0.3,0.5-0.6,0.8-1c0.2-0.3,0.5-0.7,0.9-0.8
		c0.8-0.4,1.4-0.6,1.8-0.8c0.5-0.2,0.8-0.3,1-0.3c0.2,0,0.3,0,0.6,0.2c0.2,0.1,0.5,0.3,0.8,0.6c0.3,0.3,0.6,0.7,0.9,1.3
		c0.4,0.8,0.7,1.8,0.9,2.6c0.1,0.4,0.2,0.7,0.2,1c0,0.2,0.1,0.4,0.1,0.4l0,0l0.6,2.6l0.6,2.2l0.3-0.1l-0.3,0l0,0c0,0,0,0.1,0,0.1
		c0,0.7-0.1,3.2-1.7,7.8c-1.6,4.7-2.4,7.4-3.2,9.4c-0.8,2-1.7,3.3-3.6,5.2c-1.9,1.9-3.4,3.3-4.5,4.2c-0.5,0.4-0.9,0.8-1.2,1
		c-0.1,0.1-0.2,0.2-0.3,0.2c-0.1,0-0.1,0.1-0.1,0.1l-0.1,0l-2.2,4.3l0,0.1c0,0,0,0.1,0,0.3c-0.1,0.7-0.5,2.6-0.9,4.2
		c-0.2,0.8-0.5,1.6-0.8,2.2c-0.1,0.3-0.3,0.5-0.4,0.7c-0.1,0.2-0.2,0.2-0.3,0.2c-0.1,0-0.2,0-0.3,0c-0.4,0-0.8-0.1-1-0.4
		c-0.3-0.2-0.4-0.6-0.4-1c0-0.4,0.1-0.8,0.6-1.4c0.8-1,1.6-2.8,2.3-4.3c0.6-1.5,1.1-2.8,1.1-2.8l0-0.1l0-0.1c0,0,0-0.2-0.1-0.5
		c0-0.1-0.1-0.2-0.3-0.3c-0.1-0.1-0.3-0.2-0.5-0.2c-0.4,0-0.8,0.2-1.5,0.6c-0.9,0.6-1.3,0.7-1.9,1c-0.3,0.2-0.5,0.4-0.8,0.7
		c-0.3,0.4-0.6,0.9-0.9,1.6c-1.5,3-2.1,5-2.1,5l0.3,0.1l0.3-0.2c0-0.1-0.5-0.8-0.5-2.2c0-0.5,0.1-1.1,0.2-1.8
		c0.2-0.8,0.2-1.3,0.2-1.7c0-0.6-0.1-1-0.2-1.6c-0.1-0.6-0.2-1.4-0.2-2.9c0-2.8-0.4-5.4-0.4-7.5c0-1.1,0.1-2,0.4-2.8
		c1-2.6,3.7-9.6,5.6-13.2c2-3.6,3.2-7.4,3.2-7.4L390.5,55.3l0.1,0.3L390.5,55.3l-0.3-0.1c0,0-0.1,0.2-0.2,0.6
		c-0.5,1.2-1.5,3.9-2.9,6.6c-2,3.7-4.7,10.7-5.7,13.3c-0.3,0.9-0.5,1.9-0.5,3c0,2.2,0.4,4.8,0.4,7.5c0,1.6,0.1,2.4,0.2,3.1
		c0.1,0.6,0.2,1,0.2,1.5c0,0.4-0.1,0.8-0.2,1.6c-0.2,0.7-0.2,1.4-0.2,1.9c0,1.7,0.6,2.5,0.6,2.6l0.4,0.6l0.2-0.6l0-0.1
		c0.1-0.4,0.8-2.2,2.1-4.8c0.4-0.7,0.6-1.2,0.9-1.5c0.4-0.5,0.6-0.6,0.9-0.7c0.4-0.1,0.9-0.3,1.6-0.8c0.6-0.4,0.9-0.5,1.1-0.5
		c0.1,0,0.1,0,0.2,0c0.1,0,0.1,0.1,0.1,0.1l0,0.1v0h0h0l0,0h0h0l0.3,0l-0.3-0.1c0,0-0.1,0.3-0.3,0.8c-0.3,0.8-0.7,2-1.3,3.1
		c-0.5,1.2-1.1,2.3-1.7,3c-0.5,0.6-0.7,1.2-0.7,1.8c0,0.6,0.3,1.1,0.6,1.5c0.4,0.3,0.9,0.5,1.5,0.5c0.1,0,0.3,0,0.5,0
		c0.3-0.1,0.6-0.3,0.8-0.6c0.4-0.5,0.7-1.2,0.9-2c0.8-2.4,1.3-5.7,1.3-5.7l-0.3-0.1l0.3,0.1l2.1-4.2l-0.3-0.2l0.2,0.3
		c0,0,2.3-1.6,6.1-5.5c1.9-1.9,2.9-3.4,3.8-5.4c0.9-2.1,1.6-4.8,3.3-9.4c1.6-4.6,1.8-7.3,1.8-8c0-0.1,0-0.2,0-0.2l0,0l-0.6-2.2
		l-0.6-2.6l-0.3,0.1l0.3-0.1c0,0-0.2-1.1-0.5-2.3c-0.2-0.6-0.4-1.3-0.7-1.9c-0.3-0.6-0.6-1.1-1.1-1.5c-0.3-0.3-0.6-0.5-0.9-0.7
		c-0.3-0.1-0.6-0.2-0.9-0.2c-0.4,0-0.8,0.1-1.3,0.3c-0.5,0.2-1.1,0.5-1.9,0.8c-0.5,0.2-0.9,0.7-1.1,1c-0.3,0.4-0.5,0.8-0.6,0.9
		c-1.9,1.7-2.5,3.7-2.6,3.7l0.3,0.1l-0.1-0.3l-5.2,1.4l-0.1,0.2L390.5,55.3z"/>
	<path class="st3" d="M388.7,88.6c-1.2,0.4-1.6,0.5-2.6,1.5c-1.3,1.2-2.9,3-2.9,3s-0.8,2-1,0.9c-0.2-1.1,0.2-2.2,0.2-2.2
		s-0.4-1.1-0.6-1.6c-0.3-1-0.6-2.4-0.8-4.2c-0.3-2.8-0.6-7.6-0.3-9.7c0.2-1.5,0.8-2.5,0.8-2.5l2.6-5.4l3-6.2l3.3-7.2l3-1l2.2-0.6
		c0,0,0.8-1.5,1.5-2.6c0.5-0.7,0.5-0.8,1.6-1.8C399.9,48,401,48,401,48l0.3,2c0,0-0.2,9.9,0,12.2c0.2,2.2,0.8,2.4-0.8,6.9
		c-1.6,4.5-2.2,5.3-4.2,8.9c-2,3.5-6.4,10.6-6.4,10.6S389.7,88.3,388.7,88.6"/>
	<path d="M388.7,88.6l-0.1-0.3c-0.6,0.2-1.1,0.3-1.5,0.5c-0.4,0.2-0.8,0.5-1.3,1c-1.3,1.2-2.9,3.1-2.9,3.1l0,0l0,0
		c0,0,0,0.1-0.1,0.2c-0.1,0.2-0.2,0.4-0.3,0.6c-0.1,0.1-0.1,0.2-0.2,0.2l0,0l0.1,0.1v-0.2l-0.1,0l0.1,0.1v-0.2v0.2l0.1-0.2l-0.1,0
		v0.2l0.1-0.2l-0.1,0.1l0.1-0.1l0,0l-0.1,0.1l0.1-0.1l0,0l0.1,0h0l0,0l0.1,0l0,0l0-0.1c0-0.2-0.1-0.4-0.1-0.6c0-0.4,0.1-0.7,0.1-1
		c0-0.1,0.1-0.2,0.1-0.3l0-0.1l0,0l0-0.1l0-0.1c0,0-0.1-0.3-0.2-0.6c-0.1-0.3-0.3-0.7-0.3-0.9c-0.3-0.9-0.6-2.4-0.8-4.1
		c-0.2-1.9-0.4-4.7-0.4-7c0-1.1,0-2,0.1-2.7c0.1-0.7,0.3-1.3,0.5-1.7c0.1-0.2,0.2-0.4,0.2-0.5l0.1-0.1l0,0v0l0,0l2.6-5.4l3-6.2
		l3.2-7.1l2.8-0.9l2.3-0.6l0.1-0.1c0,0,0.2-0.4,0.5-0.9c0.3-0.5,0.7-1.1,1-1.7c0.2-0.4,0.3-0.5,0.5-0.8c0.2-0.2,0.5-0.5,1-1
		c1.1-1,2-1,2.1-1v0v0v0v0l0-0.3l-0.3,0.1l0.3,2l0.3-0.1l-0.3,0c0,0-0.1,4.4-0.1,8c0,1.8,0,3.4,0.1,4.2c0.1,1.1,0.3,1.6,0.3,2.4
		c0,0.8-0.2,2-1.1,4.4c-1.6,4.5-2.2,5.3-4.2,8.8c-1,1.8-2.6,4.4-3.9,6.6c-0.7,1.1-1.3,2.1-1.8,2.8c-0.5,0.7-0.7,1.2-0.7,1.2l0.3,0.2
		l0.3-0.2c-0.1-0.1-0.3-0.2-0.5-0.2c-0.2,0-0.6,0.1-1,0.2L388.7,88.6l0.1,0.3c0.4-0.1,0.7-0.2,0.9-0.2c0.1,0,0.1,0,0.1,0l0.1-0.2
		l-0.1,0.1l0.1,0.1l0.1-0.2l-0.1,0.1l0.3,0.3l0.2-0.4c0,0,4.5-7.1,6.4-10.6c1.9-3.5,2.6-4.4,4.2-8.9c0.9-2.4,1.1-3.6,1.1-4.6
		c0-0.9-0.2-1.4-0.3-2.4c-0.1-0.7-0.1-2.3-0.1-4.1c0-1.8,0-3.8,0-5.4c0-1.5,0-2.7,0-2.7v0l-0.3-2.3l-0.3,0h0c-0.2,0-1.3,0.1-2.5,1.2
		c-0.5,0.5-0.8,0.8-1,1.1c-0.2,0.3-0.4,0.5-0.6,0.8c-0.7,1.1-1.6,2.6-1.6,2.6l0.3,0.2l-0.1-0.3l-2.2,0.6l-3.1,1l-3.3,7.4l-3,6.2
		l-2.6,5.4l0.3,0.1l-0.3-0.2c0,0-0.6,1.1-0.9,2.6c-0.1,0.7-0.1,1.7-0.1,2.8c0,2.3,0.2,5.1,0.4,7.1c0.2,1.8,0.5,3.2,0.8,4.3
		c0.1,0.5,0.6,1.6,0.6,1.6l0.3-0.1l-0.3-0.1c0,0-0.3,0.7-0.3,1.6c0,0.2,0,0.5,0.1,0.7c0,0.1,0.1,0.3,0.1,0.4c0,0.1,0.1,0.1,0.1,0.2
		c0.1,0,0.2,0.1,0.3,0.1c0.2,0,0.2-0.1,0.3-0.1c0.1-0.1,0.2-0.2,0.3-0.4c0.3-0.4,0.5-1,0.5-1l-0.3-0.1l0.3,0.2c0,0,0.1-0.1,0.3-0.3
		c0.5-0.6,1.7-1.8,2.6-2.7c0.5-0.5,0.8-0.7,1.2-0.9c0.3-0.2,0.7-0.3,1.3-0.5L388.7,88.6z"/>
	<path d="M401.3,50.5c0,0-2.5,2.5-2.5,4.2c0,1.7,1.2,3.4,1.2,3.4l1.3-0.4c0,0,1.5-1.4,1.1-2.9C402,53.1,401.3,50.5,401.3,50.5"/>
	<path d="M401.3,50.5l-0.2-0.2c0,0-0.6,0.6-1.3,1.5c-0.3,0.4-0.6,0.9-0.9,1.4c-0.2,0.5-0.4,1-0.4,1.5c0,0.9,0.3,1.8,0.7,2.5
		c0.3,0.6,0.6,1.1,0.6,1.1l0.2,0.2l1.6-0.5l0-0.1c0,0,0.3-0.3,0.6-0.8c0.3-0.5,0.6-1.1,0.6-1.9c0-0.2,0-0.4-0.1-0.6
		c-0.4-1.6-1.1-4.2-1.1-4.2l-0.2-0.6l-0.4,0.4L401.3,50.5l-0.3,0.1c0,0,0.2,0.6,0.4,1.5c0.2,0.8,0.5,1.9,0.7,2.7c0,0.2,0,0.3,0,0.5
		c0,0.6-0.3,1.1-0.5,1.5c-0.1,0.2-0.3,0.4-0.4,0.5l-0.1,0.1l0,0l0,0l0.2,0.2l-0.1-0.3l-1.3,0.4l0.1,0.3l0.3-0.2l0,0
		c-0.1-0.1-0.4-0.5-0.6-1.1c-0.3-0.6-0.5-1.3-0.5-2.1c0-0.3,0.1-0.8,0.4-1.2c0.3-0.7,0.9-1.4,1.3-1.9c0.2-0.3,0.4-0.5,0.5-0.6
		c0.1-0.1,0.1-0.1,0.2-0.2l0.1-0.1L401.3,50.5l-0.3,0.1L401.3,50.5z"/>
	<path d="M398.6,50.9c0.2,0,0.4-0.2,0.4-0.5c0-0.3-0.2-0.5-0.4-0.5c-0.2,0-0.4,0.3-0.4,0.5C398.2,50.6,398.4,50.9,398.6,50.9"/>
	<path d="M398.6,50.9v0.3c0.2,0,0.4-0.1,0.6-0.3c0.1-0.2,0.2-0.4,0.2-0.6c0-0.2-0.1-0.4-0.2-0.6c-0.1-0.2-0.3-0.3-0.6-0.3
		c-0.2,0-0.4,0.1-0.6,0.3c-0.1,0.2-0.2,0.4-0.2,0.6c0,0.2,0.1,0.4,0.2,0.6c0.1,0.2,0.3,0.3,0.6,0.3V50.9v-0.3l0,0
		c0,0-0.1-0.1-0.1-0.2c0-0.1,0-0.1,0.1-0.2l0,0l0,0c0,0,0.1,0.1,0.1,0.2c0,0.1,0,0.2,0,0.2l0,0l0,0V50.9z"/>
	<path d="M392.9,86.3l-0.2-1.7l-2.5,3.3l-1,2.4c0,0-0.8,2.3-1.3,3.2c-0.5,0.9-1.8,2.4-1.9,3c-0.1,0.9-0.1,1,0.5,1.5
		c0.5,0.5,1.1,0.8,1.5,0.5c0.5-0.2,1.7-1.8,1.8-2.8c0.1-1,0.9-3.8,0.9-4.5c0-0.7,1.7-3.7,1.7-3.7l0.6-1.1L392.9,86.3z"/>
	<path d="M386.6,85.6l-0.2-1.7l-2.5,3.3l-1,2.4c0,0-0.8,2.3-1.3,3.3c-0.5,0.9-1.8,2.4-1.9,3c-0.1,0.8-0.1,1.1,0.4,1.6
		c0.5,0.5,1.1,0.5,1.6,0.4c0.5-0.1,1.5-1.8,1.8-2.8c0.3-1,0.9-3.8,0.9-4.5c0-0.7,1.7-3.7,1.7-3.7l0.6-1.1L386.6,85.6z"/>
	<path d="M386.6,85.6l0.3,0l-0.3-2.5l-3,4l-1,2.5v0c0,0,0,0.1-0.1,0.4c-0.1,0.3-0.3,0.9-0.5,1.4c-0.2,0.5-0.4,1.1-0.6,1.4
		c-0.2,0.4-0.7,1-1.1,1.6c-0.2,0.3-0.4,0.6-0.5,0.8c-0.2,0.3-0.3,0.5-0.3,0.7c0,0.2,0,0.4,0,0.6c0,0.2,0,0.4,0.1,0.7
		c0.1,0.2,0.2,0.4,0.4,0.6c0.4,0.4,0.9,0.6,1.3,0.6c0.2,0,0.4,0,0.5-0.1c0.1,0,0.2-0.1,0.3-0.2c0.3-0.3,0.7-0.7,1-1.3
		c0.3-0.5,0.6-1.1,0.7-1.6c0.2-0.5,0.4-1.5,0.6-2.4c0.1-0.5,0.2-0.9,0.2-1.3c0.1-0.4,0.1-0.7,0.1-0.9c0,0,0-0.1,0.1-0.3
		c0.1-0.5,0.6-1.3,0.9-2c0.2-0.3,0.4-0.7,0.5-0.9c0.1-0.2,0.2-0.4,0.2-0.4l0,0l0.7-1.2l-0.2-0.5L386.6,85.6l0.3,0L386.6,85.6
		l-0.3,0.1l0.1,0.1l-0.5,0.9l0,0c0,0-0.4,0.8-0.9,1.6c-0.2,0.4-0.4,0.9-0.6,1.3c-0.1,0.2-0.2,0.4-0.2,0.5c-0.1,0.2-0.1,0.3-0.1,0.5
		c0,0.1,0,0.4-0.1,0.8c-0.2,1.1-0.6,2.9-0.8,3.6c-0.1,0.4-0.5,1.1-0.8,1.6c-0.2,0.3-0.4,0.5-0.5,0.7c-0.1,0.1-0.2,0.2-0.2,0.2
		l-0.1,0l0,0l0,0l0,0h0l0,0l0,0c-0.1,0-0.3,0.1-0.4,0.1c-0.3,0-0.5-0.1-0.8-0.4c-0.2-0.2-0.3-0.3-0.3-0.4c0-0.1-0.1-0.2-0.1-0.4
		c0-0.1,0-0.3,0-0.6c0-0.1,0.1-0.2,0.2-0.5c0.2-0.3,0.5-0.8,0.8-1.2c0.3-0.4,0.6-0.9,0.8-1.2c0.3-0.5,0.6-1.3,0.9-2
		c0.3-0.7,0.4-1.3,0.4-1.3l-0.3-0.1l0.3,0.1l1-2.4l2-2.6l0.1,0.9l0,0L386.6,85.6z"/>
	<path d="M405.7,52.8c0.2,0,0.4-0.2,0.4-0.5c0-0.3-0.2-0.5-0.4-0.5c-0.2,0-0.4,0.2-0.4,0.5C405.3,52.5,405.5,52.8,405.7,52.8"/>
	<path d="M405.7,52.8v0.3c0.2,0,0.4-0.1,0.6-0.3c0.1-0.2,0.2-0.4,0.2-0.6c0-0.2-0.1-0.4-0.2-0.6c-0.1-0.2-0.3-0.3-0.6-0.3
		c-0.2,0-0.4,0.1-0.6,0.3c-0.1,0.2-0.2,0.4-0.2,0.6c0,0.2,0.1,0.4,0.2,0.6c0.1,0.2,0.3,0.3,0.6,0.3V52.8v-0.3c0,0-0.1-0.1-0.1-0.2
		c0-0.1,0-0.1,0-0.2l0,0c0,0,0.1,0.1,0.1,0.2c0,0.1,0,0.1-0.1,0.2l0,0V52.8z"/>
</g>
</svg>
