<svg height="80" width="80" viewBox="0 0 222 222" xmlns="http://www.w3.org/2000/svg" fill-rule="evenodd" clip-rule="evenodd" stroke-linejoin="round" stroke-miterlimit="1.414" class="logo">
                                <circle cx="108.512" cy="113.031" r="66.912" fill="#a5191c" transform="translate(-68.932 -76.42) scale(1.65704)"></circle>
                                <path d="M39.702 68.284l.016-5.23 72.435-30.662 73.474 30.389.035 5.303-145.96.2zM48.74 72.205l127.002-.004.082 6.843-127.079.034-.005-6.873z" fill="#fff"></path>
                                <path d="M53.643 84.215l20.973-.106.136 6.106-2.882 2.989 2.826 50.07-20.97-.114 2.944-49.966-3.05-3.192.023-5.787M85.455 84.215l20.973-.106.136 6.106-2.882 2.989 2.826 50.07-20.97-.114 2.944-49.966-3.051-3.192.024-5.787M117.257 84.215l20.973-.106.136 6.106-2.882 2.989 2.826 50.07-20.97-.114 2.944-49.966-3.051-3.192.024-5.787M149.042 84.215l20.973-.106.136 6.106-2.882 2.989 2.826 50.07-20.97-.114 2.944-49.966-3.051-3.192.024-5.787M48.666 148.137h127.467v6.879H48.666zM44.59 159.13H179.9v6.925H44.59zM38.85 170.019H185.5v6.886H38.85z" fill="#f2f2f2"></path>
                            </svg>