<svg xmlns="http://www.w3.org/2000/svg" xmlns:xlink="http://www.w3.org/1999/xlink" width="80" zoomAndPan="magnify" viewBox="0 0 60 60" height="80" preserveAspectRatio="xMidYMid meet" version="1.0"><path fill="#ffffff" d="M 3 20.398438 L 55.199219 20.398438 L 55.199219 40.800781 L 3 40.800781 Z M 3 20.398438 " fill-opacity="1" fill-rule="nonzero"/><path fill="#2cc84d" d="M 30.960938 26.683594 L 29.597656 26.683594 L 27.265625 33.359375 C 31.726562 33.359375 32.84375 29.476562 32.84375 28.039062 C 32.84375 27.085938 31.914062 26.683594 30.953125 26.683594 M 44.671875 32.484375 L 47.476562 32.484375 L 47.914062 27.46875 L 47.574219 27.46875 Z M 44.671875 32.484375 " fill-opacity="1" fill-rule="nonzero"/><path fill="#2cc84d" d="M 0 30 C 0 46.542969 13.457031 60 30 60 C 46.542969 60 60 46.542969 60 30 C 60 13.457031 46.542969 0 30 0 C 13.457031 0 0 13.457031 0 30 Z M 17.621094 37.308594 C 16.519531 37.632812 14.683594 37.914062 12.804688 37.914062 C 8.425781 37.914062 5.945312 34.746094 5.945312 32.394531 C 5.945312 26.238281 11.976562 22.085938 18.203125 22.085938 C 19.691406 22.085938 21.378906 22.273438 22.597656 22.585938 L 20.910156 27.460938 C 20.128906 27.136719 18.75 26.964844 17.292969 26.964844 C 15.378906 26.964844 12.167969 28.390625 12.167969 30.984375 C 12.167969 32.460938 13.324219 33.1875 15.457031 33.1875 C 16.9375 33.1875 17.953125 32.863281 19.355469 32.320312 L 17.621094 37.300781 Z M 26.875 37.824219 L 19.980469 37.824219 L 25.457031 22.164062 L 31.558594 22.164062 C 37.519531 22.164062 38.890625 25.132812 38.890625 27.625 C 38.890625 32.257812 34.445312 37.824219 26.867188 37.824219 Z M 47.039062 37.824219 L 47.25 35.363281 L 43.027344 35.363281 L 41.59375 37.824219 L 35.460938 37.824219 L 47.039062 22.164062 L 52.679688 22.164062 L 52.679688 37.824219 Z M 47.039062 37.824219 " fill-opacity="1" fill-rule="nonzero"/></svg>