<svg xmlns="http://www.w3.org/2000/svg" xmlns:xlink="http://www.w3.org/1999/xlink" width="2560" zoomAndPan="magnify" viewBox="0 0 1920 244.499993" height="326" preserveAspectRatio="xMidYMid meet" version="1.0"><defs><clipPath id="1f060490d1"><path d="M 1.960938 9 L 218 9 L 218 243.253906 L 1.960938 243.253906 Z M 1.960938 9 " clip-rule="nonzero"/></clipPath><clipPath id="fb94f5617e"><path d="M 608 72 L 754 72 L 754 243.253906 L 608 243.253906 Z M 608 72 " clip-rule="nonzero"/></clipPath><clipPath id="254178a6ca"><path d="M 762 31 L 873 31 L 873 243.253906 L 762 243.253906 Z M 762 31 " clip-rule="nonzero"/></clipPath><clipPath id="a912114fd5"><path d="M 879 72 L 1047 72 L 1047 243.253906 L 879 243.253906 Z M 879 72 " clip-rule="nonzero"/></clipPath><clipPath id="264eb77118"><path d="M 1257 13 L 1461 13 L 1461 243.253906 L 1257 243.253906 Z M 1257 13 " clip-rule="nonzero"/></clipPath><clipPath id="a77211ec87"><path d="M 1750 72 L 1918.039062 72 L 1918.039062 243.253906 L 1750 243.253906 Z M 1750 72 " clip-rule="nonzero"/></clipPath></defs><g clip-path="url(#1f060490d1)"><path fill="#202852" d="M 1.960938 127.148438 C 1.960938 57.433594 54.671875 9.820312 120.988281 9.820312 C 172.679688 9.820312 201.585938 37.023438 217.570312 65.253906 L 176.082031 85.65625 C 166.558594 67.292969 146.152344 52.667969 120.988281 52.667969 C 81.539062 52.667969 51.609375 84.296875 51.609375 127.148438 C 51.609375 169.996094 81.539062 201.625 120.988281 201.625 C 146.152344 201.625 166.558594 187.34375 176.082031 168.636719 L 217.570312 188.703125 C 201.246094 216.929688 172.679688 244.476562 120.988281 244.476562 C 54.671875 244.476562 1.960938 196.863281 1.960938 127.148438 " fill-opacity="1" fill-rule="nonzero"/></g><path fill="#202852" d="M 348.679688 240.394531 L 348.679688 140.410156 C 348.679688 117.625 336.777344 110.484375 318.074219 110.484375 C 301.410156 110.484375 288.148438 120.003906 280.664062 129.867188 L 280.664062 240.394531 L 237.472656 240.394531 L 237.472656 13.5625 L 280.664062 13.5625 L 280.664062 97.5625 C 291.207031 84.980469 311.613281 72.054688 338.476562 72.054688 C 374.527344 72.054688 391.871094 91.777344 391.871094 123.746094 L 391.871094 240.394531 L 348.679688 240.394531 " fill-opacity="1" fill-rule="nonzero"/><path fill="#202852" d="M 427.789062 240.394531 L 427.789062 76.136719 L 470.976562 76.136719 L 470.976562 98.582031 C 482.542969 83.957031 502.945312 72.394531 523.351562 72.394531 L 523.351562 114.5625 C 520.289062 113.886719 516.210938 113.542969 511.449219 113.542969 C 497.164062 113.542969 478.121094 121.367188 470.976562 131.910156 L 470.976562 240.394531 L 427.789062 240.394531 " fill-opacity="1" fill-rule="nonzero"/><path fill="#202852" d="M 542.160156 240.394531 L 542.160156 76.136719 L 585.347656 76.136719 L 585.347656 240.394531 Z M 537.738281 26.144531 C 537.738281 11.859375 549.640625 0.296875 563.582031 0.296875 C 577.867188 0.296875 589.429688 11.859375 589.429688 26.144531 C 589.429688 40.429688 577.867188 51.992188 563.582031 51.992188 C 549.640625 51.992188 537.738281 40.429688 537.738281 26.144531 " fill-opacity="1" fill-rule="nonzero"/><g clip-path="url(#fb94f5617e)"><path fill="#202852" d="M 627.316406 188.703125 C 639.21875 199.925781 663.703125 211.148438 684.109375 211.148438 C 702.8125 211.148438 711.65625 204.6875 711.65625 194.484375 C 711.65625 182.921875 697.371094 178.839844 678.667969 175.101562 C 650.441406 169.660156 614.050781 162.855469 614.050781 123.746094 C 614.050781 96.199219 638.199219 72.054688 681.386719 72.054688 C 709.273438 72.054688 731.378906 81.578125 747.363281 94.5 L 730.359375 124.085938 C 720.496094 113.542969 701.792969 105.042969 681.726562 105.042969 C 666.085938 105.042969 655.882812 110.824219 655.882812 120.347656 C 655.882812 130.546875 668.804688 134.289062 687.167969 138.03125 C 715.394531 143.472656 753.144531 150.953125 753.144531 191.765625 C 753.144531 222.03125 727.636719 244.476562 682.066406 244.476562 C 653.5 244.476562 625.953125 234.953125 608.609375 218.96875 L 627.316406 188.703125 " fill-opacity="1" fill-rule="nonzero"/></g><g clip-path="url(#254178a6ca)"><path fill="#202852" d="M 790.011719 199.585938 L 790.011719 113.886719 L 762.808594 113.886719 L 762.808594 76.136719 L 790.011719 76.136719 L 790.011719 31.242188 L 833.542969 31.242188 L 833.542969 76.136719 L 866.871094 76.136719 L 866.871094 113.886719 L 833.542969 113.886719 L 833.542969 188.023438 C 833.542969 198.226562 838.984375 206.046875 848.507812 206.046875 C 854.96875 206.046875 861.089844 203.667969 863.472656 201.285156 L 872.652344 233.933594 C 866.191406 239.714844 854.628906 244.476562 836.605469 244.476562 C 806.335938 244.476562 790.011719 228.832031 790.011719 199.585938 " fill-opacity="1" fill-rule="nonzero"/></g><g clip-path="url(#a912114fd5)"><path fill="#202852" d="M 924.007812 142.792969 L 1004.949219 142.792969 C 1003.929688 127.148438 993.046875 106.402344 964.480469 106.402344 C 937.613281 106.402344 926.050781 126.46875 924.007812 142.792969 Z M 964.480469 72.054688 C 1013.449219 72.054688 1046.777344 108.785156 1046.777344 162.515625 L 1046.777344 172.039062 L 924.691406 172.039062 C 927.410156 192.785156 944.074219 210.128906 971.960938 210.128906 C 987.265625 210.128906 1005.289062 204.007812 1015.832031 193.804688 L 1034.875 221.6875 C 1018.210938 236.996094 992.707031 244.476562 967.199219 244.476562 C 917.207031 244.476562 879.457031 210.808594 879.457031 158.09375 C 879.457031 110.484375 914.488281 72.054688 964.480469 72.054688 " fill-opacity="1" fill-rule="nonzero"/></g><path fill="#202852" d="M 1183.089844 240.394531 L 1183.089844 141.089844 C 1183.089844 118.304688 1171.1875 110.484375 1152.820312 110.484375 C 1135.820312 110.484375 1122.554688 120.003906 1115.414062 129.867188 L 1115.414062 240.394531 L 1072.222656 240.394531 L 1072.222656 76.136719 L 1115.414062 76.136719 L 1115.414062 97.5625 C 1125.957031 84.980469 1146.019531 72.054688 1172.886719 72.054688 C 1208.9375 72.054688 1226.277344 92.457031 1226.277344 124.425781 L 1226.277344 240.394531 L 1183.089844 240.394531 " fill-opacity="1" fill-rule="nonzero"/><g clip-path="url(#264eb77118)"><path fill="#00c1ed" d="M 1257.683594 13.5625 L 1306.65625 13.5625 L 1306.65625 148.234375 C 1306.65625 179.859375 1324 201.625 1359.371094 201.625 C 1394.058594 201.625 1411.402344 179.859375 1411.402344 148.234375 L 1411.402344 13.5625 L 1460.375 13.5625 L 1460.375 149.59375 C 1460.375 206.046875 1428.066406 244.476562 1359.371094 244.476562 C 1289.992188 244.476562 1257.683594 205.707031 1257.683594 149.933594 L 1257.683594 13.5625 " fill-opacity="1" fill-rule="nonzero"/></g><path fill="#00c1ed" d="M 1604.011719 240.394531 L 1604.011719 141.089844 C 1604.011719 118.304688 1592.109375 110.484375 1573.742188 110.484375 C 1556.738281 110.484375 1543.476562 120.003906 1536.332031 129.867188 L 1536.332031 240.394531 L 1493.144531 240.394531 L 1493.144531 76.136719 L 1536.332031 76.136719 L 1536.332031 97.5625 C 1546.875 84.980469 1566.941406 72.054688 1593.808594 72.054688 C 1629.855469 72.054688 1647.199219 92.457031 1647.199219 124.425781 L 1647.199219 240.394531 L 1604.011719 240.394531 " fill-opacity="1" fill-rule="nonzero"/><path fill="#00c1ed" d="M 1682.574219 240.394531 L 1682.574219 76.136719 L 1725.765625 76.136719 L 1725.765625 240.394531 Z M 1678.15625 26.144531 C 1678.15625 11.859375 1690.058594 0.296875 1704 0.296875 C 1718.285156 0.296875 1729.847656 11.859375 1729.847656 26.144531 C 1729.847656 40.429688 1718.285156 51.992188 1704 51.992188 C 1690.058594 51.992188 1678.15625 40.429688 1678.15625 26.144531 " fill-opacity="1" fill-rule="nonzero"/><g clip-path="url(#a77211ec87)"><path fill="#00c1ed" d="M 1795.28125 142.792969 L 1876.21875 142.792969 C 1875.199219 127.148438 1864.316406 106.402344 1835.75 106.402344 C 1808.882812 106.402344 1797.320312 126.46875 1795.28125 142.792969 Z M 1835.75 72.054688 C 1884.71875 72.054688 1918.046875 108.785156 1918.046875 162.515625 L 1918.046875 172.039062 L 1795.960938 172.039062 C 1798.679688 192.785156 1815.34375 210.128906 1843.230469 210.128906 C 1858.535156 210.128906 1876.558594 204.007812 1887.101562 193.804688 L 1906.144531 221.6875 C 1889.480469 236.996094 1863.976562 244.476562 1838.46875 244.476562 C 1788.476562 244.476562 1750.730469 210.808594 1750.730469 158.09375 C 1750.730469 110.484375 1785.757812 72.054688 1835.75 72.054688 " fill-opacity="1" fill-rule="nonzero"/></g></svg>