<svg xmlns="http://www.w3.org/2000/svg" xmlns:xlink="http://www.w3.org/1999/xlink" width="1227" zoomAndPan="magnify" viewBox="0 0 920.25 395.249997" height="527" preserveAspectRatio="xMidYMid meet" version="1.0"><defs><clipPath id="8c1be1ea03"><path d="M 3.757812 7 L 165 7 L 165 183 L 3.757812 183 Z M 3.757812 7 " clip-rule="nonzero"/></clipPath><clipPath id="7d157f32b1"><path d="M 801 53 L 915.527344 53 L 915.527344 180 L 801 180 Z M 801 53 " clip-rule="nonzero"/></clipPath><clipPath id="3bfd4a5dac"><path d="M 213.726562 222 L 365 222 L 365 394.234375 L 213.726562 394.234375 Z M 213.726562 222 " clip-rule="nonzero"/></clipPath><clipPath id="6af612c80b"><path d="M 527 212.332031 L 566 212.332031 L 566 392 L 527 392 Z M 527 212.332031 " clip-rule="nonzero"/></clipPath><clipPath id="061fbb5373"><path d="M 581 266 L 705.542969 266 L 705.542969 394.234375 L 581 394.234375 Z M 581 266 " clip-rule="nonzero"/></clipPath></defs><g clip-path="url(#8c1be1ea03)"><path fill="#202852" d="M 3.757812 94.722656 C 3.757812 42.78125 43.027344 7.3125 92.433594 7.3125 C 130.941406 7.3125 152.480469 27.578125 164.386719 48.609375 L 133.476562 63.8125 C 126.382812 50.128906 111.179688 39.234375 92.433594 39.234375 C 63.042969 39.234375 40.746094 62.796875 40.746094 94.722656 C 40.746094 126.644531 63.042969 150.207031 92.433594 150.207031 C 111.179688 150.207031 126.382812 139.566406 133.476562 125.632812 L 164.386719 140.582031 C 152.226562 161.605469 130.941406 182.128906 92.433594 182.128906 C 43.027344 182.128906 3.757812 146.660156 3.757812 94.722656 " fill-opacity="1" fill-rule="nonzero"/></g><path fill="#202852" d="M 262.0625 179.089844 L 262.0625 104.601562 C 262.0625 87.628906 253.195312 82.304688 239.261719 82.304688 C 226.847656 82.304688 216.964844 89.398438 211.390625 96.746094 L 211.390625 179.089844 L 179.214844 179.089844 L 179.214844 10.097656 L 211.390625 10.097656 L 211.390625 72.679688 C 219.246094 63.304688 234.449219 53.675781 254.464844 53.675781 C 281.320312 53.675781 294.242188 68.371094 294.242188 92.1875 L 294.242188 179.089844 L 262.0625 179.089844 " fill-opacity="1" fill-rule="nonzero"/><path fill="#202852" d="M 321 179.089844 L 321 56.71875 L 353.175781 56.71875 L 353.175781 73.4375 C 361.789062 62.542969 376.992188 53.929688 392.195312 53.929688 L 392.195312 85.347656 C 389.914062 84.839844 386.871094 84.585938 383.328125 84.585938 C 372.683594 84.585938 358.496094 90.414062 353.175781 98.269531 L 353.175781 179.089844 L 321 179.089844 " fill-opacity="1" fill-rule="nonzero"/><path fill="#202852" d="M 406.207031 179.089844 L 406.207031 56.71875 L 438.382812 56.71875 L 438.382812 179.089844 Z M 402.910156 19.472656 C 402.910156 8.832031 411.777344 0.21875 422.167969 0.21875 C 432.808594 0.21875 441.421875 8.832031 441.421875 19.472656 C 441.421875 30.113281 432.808594 38.730469 422.167969 38.730469 C 411.777344 38.730469 402.910156 30.113281 402.910156 19.472656 " fill-opacity="1" fill-rule="nonzero"/><path fill="#202852" d="M 469.648438 140.582031 C 478.515625 148.941406 496.757812 157.300781 511.957031 157.300781 C 525.890625 157.300781 532.480469 152.488281 532.480469 144.886719 C 532.480469 136.273438 521.839844 133.230469 507.902344 130.445312 C 486.875 126.390625 459.765625 121.324219 459.765625 92.1875 C 459.765625 71.664062 477.753906 53.675781 509.929688 53.675781 C 530.707031 53.675781 547.175781 60.769531 559.082031 70.398438 L 546.414062 92.441406 C 539.070312 84.585938 525.132812 78.253906 510.183594 78.253906 C 498.53125 78.253906 490.929688 82.558594 490.929688 89.652344 C 490.929688 97.253906 500.558594 100.042969 514.238281 102.828125 C 535.265625 106.882812 563.390625 112.457031 563.390625 142.859375 C 563.390625 165.40625 544.386719 182.128906 510.4375 182.128906 C 489.15625 182.128906 468.632812 175.035156 455.710938 163.128906 L 469.648438 140.582031 " fill-opacity="1" fill-rule="nonzero"/><path fill="#202852" d="M 590.855469 148.6875 L 590.855469 84.839844 L 570.589844 84.839844 L 570.589844 56.71875 L 590.855469 56.71875 L 590.855469 23.273438 L 623.289062 23.273438 L 623.289062 56.71875 L 648.117188 56.71875 L 648.117188 84.839844 L 623.289062 84.839844 L 623.289062 140.074219 C 623.289062 147.675781 627.339844 153.5 634.4375 153.5 C 639.25 153.5 643.808594 151.726562 645.582031 149.953125 L 652.421875 174.277344 C 647.609375 178.582031 638.996094 182.128906 625.570312 182.128906 C 603.019531 182.128906 590.855469 170.476562 590.855469 148.6875 " fill-opacity="1" fill-rule="nonzero"/><path fill="#202852" d="M 690.683594 106.375 L 750.984375 106.375 C 750.222656 94.722656 742.117188 79.265625 720.835938 79.265625 C 700.820312 79.265625 692.203125 94.214844 690.683594 106.375 Z M 720.835938 53.675781 C 757.316406 53.675781 782.148438 81.039062 782.148438 121.070312 L 782.148438 128.164062 L 691.191406 128.164062 C 693.21875 143.621094 705.632812 156.542969 726.410156 156.542969 C 737.808594 156.542969 751.238281 151.980469 759.09375 144.378906 L 773.28125 165.152344 C 760.867188 176.558594 741.863281 182.128906 722.859375 182.128906 C 685.617188 182.128906 657.496094 157.046875 657.496094 117.777344 C 657.496094 82.304688 683.589844 53.675781 720.835938 53.675781 " fill-opacity="1" fill-rule="nonzero"/><g clip-path="url(#7d157f32b1)"><path fill="#202852" d="M 883.699219 179.089844 L 883.699219 105.109375 C 883.699219 88.132812 874.832031 82.304688 861.148438 82.304688 C 848.484375 82.304688 838.601562 89.398438 833.28125 96.746094 L 833.28125 179.089844 L 801.105469 179.089844 L 801.105469 56.71875 L 833.28125 56.71875 L 833.28125 72.679688 C 841.136719 63.304688 856.082031 53.675781 876.097656 53.675781 C 902.957031 53.675781 915.875 68.878906 915.875 92.695312 L 915.875 179.089844 L 883.699219 179.089844 " fill-opacity="1" fill-rule="nonzero"/></g><g clip-path="url(#3bfd4a5dac)"><path fill="#00c1ed" d="M 213.800781 222.429688 L 250.285156 222.429688 L 250.285156 322.761719 C 250.285156 346.324219 263.207031 362.535156 289.554688 362.535156 C 315.398438 362.535156 328.320312 346.324219 328.320312 322.761719 L 328.320312 222.429688 L 364.804688 222.429688 L 364.804688 323.773438 C 364.804688 365.832031 340.734375 394.460938 289.554688 394.460938 C 237.871094 394.460938 213.800781 365.578125 213.800781 324.027344 L 213.800781 222.429688 " fill-opacity="1" fill-rule="nonzero"/></g><path fill="#00c1ed" d="M 471.8125 391.421875 L 471.8125 317.4375 C 471.8125 300.464844 462.945312 294.636719 449.265625 294.636719 C 436.597656 294.636719 426.714844 301.730469 421.394531 309.078125 L 421.394531 391.421875 L 389.21875 391.421875 L 389.21875 269.046875 L 421.394531 269.046875 L 421.394531 285.007812 C 429.25 275.636719 444.199219 266.007812 464.214844 266.007812 C 491.070312 266.007812 503.988281 281.207031 503.988281 305.023438 L 503.988281 391.421875 L 471.8125 391.421875 " fill-opacity="1" fill-rule="nonzero"/><g clip-path="url(#6af612c80b)"><path fill="#00c1ed" d="M 530.34375 391.421875 L 530.34375 269.046875 L 562.519531 269.046875 L 562.519531 391.421875 Z M 527.050781 231.804688 C 527.050781 221.164062 535.917969 212.546875 546.304688 212.546875 C 556.945312 212.546875 565.5625 221.164062 565.5625 231.804688 C 565.5625 242.445312 556.945312 251.058594 546.304688 251.058594 C 535.917969 251.058594 527.050781 242.445312 527.050781 231.804688 " fill-opacity="1" fill-rule="nonzero"/></g><g clip-path="url(#061fbb5373)"><path fill="#00c1ed" d="M 614.308594 318.707031 L 674.609375 318.707031 C 673.847656 307.050781 665.742188 291.597656 644.457031 291.597656 C 624.441406 291.597656 615.828125 306.542969 614.308594 318.707031 Z M 644.457031 266.007812 C 680.941406 266.007812 705.773438 293.371094 705.773438 333.402344 L 705.773438 340.496094 L 614.816406 340.496094 C 616.84375 355.949219 629.257812 368.871094 650.03125 368.871094 C 661.433594 368.871094 674.863281 364.3125 682.71875 356.710938 L 696.902344 377.484375 C 684.488281 388.886719 665.488281 394.460938 646.484375 394.460938 C 609.242188 394.460938 581.121094 369.378906 581.121094 330.105469 C 581.121094 294.636719 607.214844 266.007812 644.457031 266.007812 " fill-opacity="1" fill-rule="nonzero"/></g></svg>