<svg width="287" height="38" viewBox="0 0 287 38" fill="none" xmlns="http://www.w3.org/2000/svg">
<g clip-path="url(#clip0_10734_12195)">
<path d="M0.632812 19.6086C0.632812 9.16641 8.50188 2.02692 18.4006 2.02692C26.1177 2.02692 30.4267 6.10351 32.8146 10.3327L26.617 13.3956C25.1952 10.6379 22.1452 8.44701 18.3898 8.44701C12.4961 8.44701 8.03516 13.1885 8.03516 19.6086C8.03516 26.0287 12.507 30.7702 18.3898 30.7702C22.1452 30.7702 25.1952 28.6338 26.617 25.8216L32.8146 28.83C30.3833 33.0592 26.1177 37.1903 18.4006 37.1903C8.50188 37.2012 0.632812 30.0617 0.632812 19.6086Z" fill="white"></path>
<path d="M52.3842 36.5908V21.6033C52.3842 18.1916 50.6041 17.1125 47.8147 17.1125C45.3291 17.1125 43.3429 18.5404 42.2358 20.0228V36.5908H35.7886V2.58282H42.2358V15.1723C43.8096 13.2866 46.8595 11.3464 50.8646 11.3464C56.2482 11.3464 58.8314 14.3003 58.8314 19.0963V36.5799H52.3842V36.5908Z" fill="white"></path>
<path d="M64.1932 36.5908V11.9677H70.6404V15.3358C72.3662 13.1449 75.4161 11.4118 78.4552 11.4118V17.7338C77.9994 17.6357 77.3916 17.5812 76.6752 17.5812C74.5478 17.5812 71.7041 18.7584 70.6296 20.3389V36.6017H64.1824L64.1932 36.5908Z" fill="white"></path>
<path d="M80.6042 4.46852C80.6042 2.33213 82.3843 0.59903 84.4574 0.59903C86.5305 0.59903 88.3105 2.33213 88.3105 4.46852C88.3105 6.60492 86.5847 8.33802 84.4574 8.33802C82.33 8.33802 80.6042 6.60492 80.6042 4.46852ZM81.2663 36.5908V11.9677H87.7135V36.5908H81.2663Z" fill="white"></path>
<path d="M93.9763 28.8409C95.7564 30.5195 99.4033 32.209 102.453 32.209C105.243 32.209 106.567 31.2389 106.567 29.7129C106.567 27.9798 104.439 27.3694 101.639 26.8026C97.4279 25.9851 91.9901 24.9714 91.9901 19.1072C91.9901 14.9761 95.5936 11.3573 102.041 11.3573C106.198 11.3573 109.497 12.7852 111.885 14.7254L109.345 19.1617C107.869 17.5812 105.08 16.3059 102.084 16.3059C99.7506 16.3059 98.2311 17.1779 98.2311 18.5949C98.2311 20.1209 100.163 20.6877 102.898 21.2436C107.11 22.0611 112.743 23.1838 112.743 29.2987C112.743 33.8331 108.933 37.2012 102.138 37.2012C97.8729 37.2012 93.7593 35.7733 91.176 33.3753L93.9655 28.8409H93.9763Z" fill="white"></path>
<path d="M118.256 30.4759V17.6248H114.197V11.9677H118.256V5.24243H124.758V11.9677H129.729V17.6248H124.758V28.7428C124.758 30.2688 125.572 31.446 126.994 31.446C127.96 31.446 128.871 31.0863 129.23 30.7375L130.597 35.6316C129.631 36.5036 127.905 37.2121 125.214 37.2121C120.699 37.2121 118.256 34.8686 118.256 30.4868V30.4759Z" fill="white"></path>
<path d="M144.295 11.3573C151.6 11.3573 156.582 16.8618 156.582 24.9169V26.3448H138.358C138.76 29.4513 141.256 32.0564 145.413 32.0564C147.692 32.0564 150.384 31.1408 151.958 29.6148L154.802 33.7895C152.316 36.0785 148.506 37.2012 144.697 37.2012C137.24 37.2012 131.596 32.1545 131.596 24.252C131.596 17.1125 136.828 11.3573 144.284 11.3573H144.295ZM138.26 21.963H150.341C150.189 19.6195 148.561 16.513 144.295 16.513C140.29 16.513 138.564 19.5214 138.249 21.963H138.26Z" fill="white"></path>
<path d="M176.932 36.5908V21.7014C176.932 18.2897 175.152 17.1125 172.417 17.1125C169.877 17.1125 167.902 18.5404 166.838 20.0228V36.5908H160.391V11.9677H166.838V15.1832C168.412 13.2975 171.408 11.3573 175.413 11.3573C180.796 11.3573 183.38 14.4202 183.38 19.2053V36.5908H176.932Z" fill="white"></path>
<path d="M188.069 2.58282H195.374V22.7696C195.374 27.5111 197.968 30.7702 203.243 30.7702C208.518 30.7702 211.014 27.5111 211.014 22.7696V2.58282H218.319V22.9767C218.319 31.4351 213.5 37.2012 203.243 37.2012C192.986 37.2012 188.069 31.3915 188.069 23.0312V2.58282Z" fill="#00C1ED"></path>
<path d="M239.755 36.5908V21.7014C239.755 18.2897 237.975 17.1125 235.239 17.1125C232.7 17.1125 230.724 18.5404 229.661 20.0228V36.5908H223.213V11.9677H229.661V15.1832C231.234 13.2975 234.23 11.3573 238.235 11.3573C243.619 11.3573 246.202 14.4202 246.202 19.2053V36.5908H239.755Z" fill="#00C1ED"></path>
<path d="M250.826 4.46852C250.826 2.33213 252.606 0.59903 254.679 0.59903C256.752 0.59903 258.532 2.33213 258.532 4.46852C258.532 6.60492 256.806 8.33802 254.679 8.33802C252.551 8.33802 250.826 6.60492 250.826 4.46852ZM251.488 36.5908V11.9677H257.935V36.5908H251.488Z" fill="#00C1ED"></path>
<path d="M274.346 11.3573C281.651 11.3573 286.633 16.8618 286.633 24.9169V26.3448H268.409C268.811 29.4513 271.307 32.0564 275.464 32.0564C277.743 32.0564 280.435 31.1408 282.009 29.6148L284.853 33.7895C282.367 36.0785 278.557 37.2012 274.748 37.2012C267.291 37.2012 261.647 32.1545 261.647 24.252C261.647 17.1125 266.879 11.3573 274.335 11.3573H274.346ZM268.3 21.963H280.381C280.229 19.6195 278.601 16.513 274.335 16.513C270.33 16.513 268.604 19.5214 268.29 21.963H268.3Z" fill="#00C1ED"></path>
</g>
<defs>
<clipPath id="clip0_10734_12195">
<rect width="286" height="36.6021" fill="white" transform="translate(0.632812 0.59903)"></rect>
</clipPath>
</defs>
</svg>