<svg id="VVD_Logo" data-name="VVD Logo" xmlns="http://www.w3.org/2000/svg" viewBox="0 0 170.08 170.08"><defs><style>.cls-1{fill:none;}.cls-2{fill:#0a2cca;}.cls-3{fill:#fff;}</style></defs><rect class="cls-1" width="170.08" height="170.08"/><polygon class="cls-2" points="58.88 50.37 56.94 35.94 49.41 28.35 53.93 61.88 58.88 50.37"/><path class="cls-2" d="M62.13,119.84l.6-13.91h5.93a16.66,16.66,0,0,1,2.3.15c-.65-4.88-3.68-7.55-9.85-7.55h-5l-.9,21.41h4.9A18.83,18.83,0,0,0,62.13,119.84Z"/><path class="cls-2" d="M82.28,46.89h7.25l5.29-11L87.3,28.35,63.23,78.16H39.67l6.13,6.19H62.4a39.14,39.14,0,0,1,8.6.9L84.11,58.1Z"/><polygon class="cls-2" points="109.63 68.91 107.69 54.48 100.17 46.89 104.68 80.43 109.63 68.91"/><polygon class="cls-2" points="138.05 46.89 113.98 96.71 90.42 96.71 97.94 104.3 121.51 104.3 145.57 54.48 138.05 46.89"/><polygon class="cls-3" points="68.34 28.35 53.93 61.88 49.41 28.35 31.53 28.35 39.67 78.16 63.23 78.16 87.3 28.35 68.34 28.35"/><path class="cls-3" d="M62.4,84.35H39.58l-2.2,49.78H61.3c16.11,0,26.68-9,27.45-24.76S79.6,84.35,62.4,84.35Zm8.65,25c-.37,7.08-3.65,10.57-11,10.57H55.19l.89-21.41h5C68.54,98.53,71.41,102.42,71.05,109.37Z"/><polygon class="cls-3" points="119.09 46.89 104.68 80.43 100.17 46.89 82.28 46.89 90.42 96.71 113.98 96.71 138.05 46.89 119.09 46.89"/><path class="cls-2" d="M90.36,99.06h0L83,91.58l.08.09c4,4.25,6.08,10.25,5.71,17.7C88,125.15,77.41,134.13,61.3,134.13H37.38l7.53,7.6H66.47c16.11,0,28.55-9,29.9-24.74C97,109.5,94.55,103.33,90.36,99.06Z"/></svg>