<svg xmlns="http://www.w3.org/2000/svg" version="1" viewBox="0 0 214 120" class="max-h-full max-w-full h-full"><path fill="#e9161d" d="M24.93 78.932v8.089c0 6.569 2.14 12.368 10.706 12.368 6.274 0 9.02-5.645 9.02-11.445 0-9.618-7.95-13.282-14.994-17.562C21.403 65.65 14.37 61.226 9.32 55.417c-4.895-5.8-7.805-12.82-7.805-22.9C1.532 10.994 14.532 0 35.337 0 58.744 0 70.674 15.571 69.45 37.096H44.667c-.309-6.723 0-15.88-8.876-16.494-5.511-.453-8.72 2.596-9.328 7.636-.761 6.867 2.756 10.387 8.105 14.042 10.099 6.415 18.81 10.387 25.084 16.186 6.273 5.8 9.945 13.436 9.945 27.325 0 21.986-12.239 34.2-34.576 34.2-24.631 0-35.03-13.734-35.03-28.853V78.923h24.93zm57.212 38.317V2.751h31.974c10.398 0 25.393.913 32.89 9.463 6.273 7.021 7.497 15.572 7.497 24.882 0 12.359-2.91 26.256-15.149 31.902-9.328 4.578-20.188 3.203-30.287 3.664v44.578H82.142zm26.925-65.188c5.049-.154 10.86.461 15.139-2.905 2.756-3.049 3.363-7.636 3.363-11.599 0-4.424-.453-11.147-5.049-13.282-2.602-.914-6.274-.914-10.552-.914h-2.901zm97.762 20.086c-3.381-3.375-7.588-5.158-12.166-5.158-3.962 0-6.618 1.321-8.376 2.199l-.064.036-.072.036a.6.6 0 0 0-.3.715l1.043 3.185a.59.59 0 0 0 .562.407h6.699a.615.615 0 0 1 .563.416.59.59 0 0 1-.218.67l-5.412 3.935a.58.58 0 0 0-.218.66l2.058 6.361a.58.58 0 0 1-.208.661.59.59 0 0 1-.698 0l-5.422-3.918a.615.615 0 0 0-.698 0l-5.421 3.918a.59.59 0 0 1-.698 0 .59.59 0 0 1-.217-.66l2.057-6.361a.57.57 0 0 0-.217-.66l-5.412-3.936a.6.6 0 0 1-.218-.67.6.6 0 0 1 .571-.407h6.691a.62.62 0 0 0 .562-.416l1.042-3.185a.595.595 0 0 0-.299-.715l-.072-.036-.073-.036c-1.75-.878-4.406-2.199-8.376-2.199-4.579 0-8.794 1.783-12.166 5.157-4.488 4.48-7.171 11.437-7.171 18.603 0 14.738 13.344 26.727 29.753 26.727s29.753-11.989 29.753-26.727c0-7.166-2.684-14.115-7.171-18.602z"/></svg>