<svg xmlns="http://www.w3.org/2000/svg" width="31" height="40" viewBox="0 0 31 40" fill="none"><path d="m23.491 10.614-2.77-3.579h-5.55l-2.77 3.58v6.615l3.463-2.238-1.553-2.006v-1.963l1.617-2.09 2.002.874 2.037-.871 1.615 2.087v1.963l-1.217 1.572h3.126z" fill="#00ad00"/><path d="m19.598 10.329-1.673.715-1.633-.713-.83 1.074v1.2l1.511 1.953h1.946l1.512-1.954v-1.199zm10.416 11.962-1.421-1.767-3.918 5.126h-7.843l-2.035-1.45 1.004-.771 1.427 1.017h6.836l6.18-8.084-1.29-1.759-4.58 5.919H15.71l-5.484 4.208 5.55 4.414.652.439 7.942-.001zM7.578 12.005l3.673 4.745v-6.518l1.295-1.674h-2.3z" fill="#00ad00"/><path d="M1.672 21.601 6.7 28.097l6.132 2.161.905-1.17-5.503-4.376 2.56-1.964-3.975-5.136zm5.774-5.192L9.52 19.09l1.496-.967-3.571-4.615z" fill="#00ad00"/><path d="M26.82 5.497h-3.793l-1.274-3.293L15.498 0 9.243 2.204 7.97 5.497H4.177L.206 10.63v5.914l2.245 2.902 3.964-3.072v-4.54l3.32-4.29h3.597l1.27-1.64h6.69l3.35 4.329v5.126l-3.052 3.945h2.17l6.872-8.88z" fill="#00ad00"/><path d="m16.908 15.777-6.634 4.286 1.498 1.935 3.514-2.695h4.858l2.728-3.526z" fill="#00ad00"/><path d="m8.233 24.713 5.504 4.376-.904 1.17L6.7 28.096 1.673 21.6l5.146-3.99 3.976 5.137-2.561 1.964m13.348-11.727v-1.963l-1.615-2.087-2.037.872-2.002-.875-1.617 2.09v1.963l1.553 2.006-3.464 2.24v-6.616l2.77-3.579h5.55l2.77 3.58v3.943h-3.126l1.216-1.572zm-2.662 1.572h-1.946l-1.512-1.954v-1.199l.832-1.074 1.632.713 1.673-.716.833 1.077v1.2zm-7.668-4.326v6.518l-3.673-4.746 2.667-3.447h2.3l-1.295 1.674m-.234 7.891-1.496.967-2.076-2.681v-2.901zm4.268 1.18-3.513 2.695-1.498-1.935 6.634-4.285h5.964L20.144 19.3zm8.474 0h-2.17l3.053-3.945v-5.126l-3.351-4.33H14.6L13.33 7.54H9.736l-3.32 4.29v4.54l-3.963 3.071L.207 16.54v-5.915l3.972-5.131H7.97L9.245 2.2 15.498 0l6.254 2.204 1.275 3.293h3.792l3.812 4.926zm-6.283 15.805 1.747-3.585 6.017-1.19 4.283 2.334-2.946 3.829-6.053 1.222zm-5.946-.178-1.173-3.805-5.764-2.076L0 30.712l2.32 4.225 5.794 2.114zM15.352 40l2.03-9.037-4 .003L11.345 40z" fill="#00ad00"/></svg>