<svg id="Laag_1" data-name="Laag 1" xmlns="http://www.w3.org/2000/svg" viewBox="0 0 99.78 113.39"><defs><style>.cls-1{fill:#ff6400;}.cls-2{fill:#0a2cca;}</style></defs><path class="cls-1" d="M83.88,46.71,61.45,24,39,1.38a4.53,4.53,0,0,0-1.51-1A4.78,4.78,0,0,0,35.71,0H3.14A3.14,3.14,0,0,0,0,3.15V95.46a3.14,3.14,0,0,0,3.14,3.15H35.39a5.53,5.53,0,0,0,2.09-.42A5.44,5.44,0,0,0,39.25,97L61.57,74.45,83.88,51.9a3.68,3.68,0,0,0,0-5.19Z"/><path class="cls-2" d="M98.87,61.87,84.07,46.92a3.68,3.68,0,0,1-.19,5L61.57,74.45,39.25,97a5.44,5.44,0,0,1-1.77,1.2,5.53,5.53,0,0,1-2.09.42H3.14A3.13,3.13,0,0,1,1,97.75l7,7.11,7.15,7.23a4.25,4.25,0,0,0,1.42,1,4.38,4.38,0,0,0,1.68.34h32A4.64,4.64,0,0,0,53.63,112L76.25,89.15,98.87,66.29a3.14,3.14,0,0,0,0-4.42Z"/></svg>