<svg id="VVD_Logo" data-name="VVD Logo" xmlns="http://www.w3.org/2000/svg" viewBox="0 0 170.08 170.08"><defs><style>.cls-2{fill:#0a2cca}</style></defs><path style="fill:transparent" d="M0 0h170.08v170.08H0z"/><path class="cls-2" d="m58.88 50.37-1.94-14.43-7.53-7.59 4.52 33.53zm3.25 69.47.6-13.91h5.93a17 17 0 0 1 2.3.15c-.65-4.88-3.68-7.55-9.85-7.55h-5l-.9 21.41h4.9a19 19 0 0 0 2.02-.1m20.15-72.95h7.25l5.29-11-7.52-7.54-24.07 49.81H39.67l6.13 6.19h16.6a39 39 0 0 1 8.6.9L84.11 58.1Zm27.35 22.02-1.94-14.43-7.52-7.59 4.51 33.54zm28.42-22.02-24.07 49.82H90.42l7.52 7.59h23.57l24.06-49.82z"/><path d="M68.34 28.35 53.93 61.88l-4.52-33.53H31.53l8.14 49.81h23.56L87.3 28.35zm-5.94 56H39.58l-2.2 49.78H61.3c16.11 0 26.68-9 27.45-24.76S79.6 84.35 62.4 84.35m8.65 25c-.37 7.08-3.65 10.57-11 10.57h-4.86l.89-21.41h5c7.46.02 10.33 3.91 9.97 10.86Zm48.04-62.46-14.41 33.54-4.51-33.54H82.28l8.14 49.82h23.56l24.07-49.82z" style="fill:#ff6400"/><path class="cls-2" d="M90.36 99.06 83 91.58l.08.09c4 4.25 6.08 10.25 5.71 17.7-.79 15.78-11.38 24.76-27.49 24.76H37.38l7.53 7.6h21.56c16.11 0 28.55-9 29.9-24.74.63-7.49-1.82-13.66-6.01-17.93"/></svg>