<svg xmlns="http://www.w3.org/2000/svg" version="1" viewBox="0 0 214 120" class="max-h-full max-w-full h-full"><path fill="currentColor" d="M24.9299 78.9324v8.0886c0 6.5687 2.1394 12.3683 10.7063 12.3683 6.2734 0 9.0202-5.6458 9.0202-11.4454 0-9.6177-7.9504-13.2821-14.9943-17.5616-8.2587-4.732-15.2935-9.1563-20.343-14.965-4.8954-5.7996-7.8054-12.8206-7.8054-22.8998C1.532 10.993 14.5318 0 35.3371 0c23.4071 0 35.3373 15.5711 34.1134 37.0957h-24.785c-.3083-6.7225 0-15.8788-8.8751-16.494-5.5119-.4524-8.7211 2.5967-9.3284 7.6363-.7615 6.8672 2.7559 10.3867 8.1045 14.042 10.099 6.4149 18.8109 10.3868 25.0842 16.1864 6.2734 5.7996 9.9449 13.4359 9.9449 27.3241 0 21.9865-12.2384 34.2005-34.5758 34.2005-24.631 0-35.029-13.734-35.029-28.8533V78.9233h24.93l.0091.0091ZM82.1421 117.249V2.7505h31.9739c10.398 0 25.393.9138 32.89 9.4639 6.273 7.021 7.497 15.5711 7.497 24.8813 0 12.3591-2.91 26.2565-15.149 31.9022-9.328 4.5782-20.188 3.2029-30.287 3.6644V117.24H82.1421v.009Zm26.9249-65.1884c5.049-.1538 10.86.4614 15.139-2.9043 2.756-3.0491 3.363-7.6363 3.363-11.5992 0-4.4243-.453-11.1468-5.049-13.2821-2.602-.9138-6.274-.9138-10.552-.9138h-2.901v28.6994ZM206.829 72.1465c-3.381-3.3748-7.588-5.1572-12.166-5.1572-3.962 0-6.618 1.3209-8.376 2.1986l-.064.0361-.072.0362c-.263.1358-.39.4343-.3.7148l1.043 3.1848c.082.2443.308.4072.562.4072h6.699c.254.009.481.1719.563.4161.081.2443 0 .5158-.218.6696l-5.412 3.9357c-.209.1448-.299.4162-.218.6605l2.058 6.3606c.082.2443 0 .5157-.208.6605a.5856.5856 0 0 1-.698 0l-5.422-3.9177c-.208-.1448-.489-.1448-.698 0l-5.421 3.9177a.5856.5856 0 0 1-.698 0c-.208-.1539-.299-.4162-.217-.6605l2.057-6.3606c.082-.2443 0-.5157-.217-.6605l-5.412-3.9357c-.209-.1538-.299-.4162-.218-.6696.082-.2442.308-.4071.571-.4071h6.691c.263-.009.48-.181.562-.4162l1.042-3.1848c.091-.2805-.036-.579-.299-.7148l-.072-.0362-.073-.0361c-1.75-.8777-4.406-2.1986-8.376-2.1986-4.579 0-8.794 1.7824-12.166 5.1572-4.488 4.4786-7.171 11.4363-7.171 18.6021 0 14.7384 13.344 26.7274 29.753 26.7274 16.408 0 29.753-11.989 29.753-26.7274 0-7.1658-2.684-14.1145-7.171-18.6021h.009Z"></path></svg>