<svg xmlns="http://www.w3.org/2000/svg" xmlns:xlink="http://www.w3.org/1999/xlink" width="500" zoomAndPan="magnify" viewBox="0 0 375 374.999991" height="500" preserveAspectRatio="xMidYMid meet" version="1.0"><path fill="#95c11f" d="M 124.355469 0 C 54.957031 0.0546875 -1.214844 56.242188 -1.269531 125.625 L -1.269531 356.839844 C -1.269531 357.480469 -1.238281 358.121094 -1.175781 358.757812 C -1.113281 359.398438 -1.019531 360.03125 -0.894531 360.660156 C -0.769531 361.289062 -0.613281 361.910156 -0.425781 362.523438 C -0.242188 363.136719 -0.0234375 363.742188 0.21875 364.335938 C 0.464844 364.925781 0.738281 365.507812 1.042969 366.070312 C 1.34375 366.636719 1.675781 367.1875 2.03125 367.722656 C 2.386719 368.253906 2.769531 368.769531 3.175781 369.265625 C 3.582031 369.761719 4.011719 370.234375 4.464844 370.6875 C 4.917969 371.144531 5.394531 371.574219 5.890625 371.980469 C 6.386719 372.386719 6.898438 372.769531 7.433594 373.125 C 7.964844 373.480469 8.515625 373.8125 9.082031 374.113281 C 9.648438 374.414062 10.226562 374.691406 10.820312 374.933594 C 11.410156 375.179688 12.015625 375.398438 12.628906 375.582031 C 13.242188 375.769531 13.863281 375.925781 14.492188 376.050781 C 15.121094 376.175781 15.753906 376.269531 16.394531 376.332031 C 17.03125 376.394531 17.671875 376.425781 18.3125 376.425781 L 249.472656 376.425781 C 318.84375 376.484375 375.097656 320.242188 375.097656 250.800781 C 375.097656 181.363281 319.121094 125.457031 249.980469 125.121094 C 249.726562 56.074219 193.554688 0 124.355469 0 M 284.101562 285.15625 L 284.355469 285.410156 C 265.21875 304.519531 234.289062 304.578125 215.238281 285.519531 L 197.308594 267.585938 C 188.175781 258.453125 188.203125 243.570312 197.363281 234.410156 L 215.351562 216.417969 L 215.097656 216.164062 C 234.234375 197.054688 265.164062 197 284.214844 216.054688 C 303.265625 235.109375 303.210938 266.074219 284.074219 285.183594 M 158.730469 159.757812 L 158.980469 160.007812 L 140.996094 178.027344 C 131.804688 187.191406 116.957031 187.21875 107.824219 178.082031 L 89.894531 160.121094 C 70.84375 141.066406 70.898438 110.101562 90.007812 90.988281 L 89.753906 90.738281 C 108.890625 71.597656 139.820312 71.542969 158.871094 90.597656 C 177.921875 109.652344 177.863281 140.617188 158.757812 159.726562 " fill-opacity="1" fill-rule="nonzero"/></svg>