<?xml version="1.0" encoding="UTF-8"?>
<svg id="Laag_2" data-name="Laag 2" xmlns="http://www.w3.org/2000/svg" viewBox="0 0 520 278.08">
  <defs>
    <style>
      .cls-1 {
        fill: #95c11f;
        stroke-width: 0px;
      }
    </style>
  </defs>
  <g id="Laag_1-2" data-name="Laag 1">
    <g>
      <path class="cls-1" d="M187.58,0c-24.77.02-44.82,20.07-44.84,44.83v82.51c0,3.86,3.13,6.99,6.99,6.99h82.51c24.76.02,44.84-20.05,44.84-44.83s-19.98-44.73-44.66-44.85C232.33,20.01,212.28,0,187.58,0M244.6,101.76l.09.09c-6.83,6.82-17.87,6.84-24.67.04l-6.4-6.4c-3.26-3.26-3.25-8.57.02-11.84l6.42-6.42-.09-.09c6.83-6.82,17.87-6.84,24.67-.04,6.8,6.8,6.78,17.85-.05,24.67M199.85,57.01l.09.09-6.42,6.43c-3.28,3.27-8.58,3.28-11.84.02l-6.4-6.41c-6.8-6.8-6.78-17.85.04-24.67l-.09-.09c6.83-6.83,17.87-6.85,24.67-.05,6.8,6.8,6.78,17.85-.04,24.67"/>
      <path class="cls-1" d="M89.5,278.08c24.77-.02,44.82-20.07,44.84-44.83v-82.51c0-3.86-3.13-6.99-6.99-6.99H44.84c-24.76-.02-44.84,20.05-44.84,44.83s19.98,44.73,44.66,44.85c.09,24.65,20.14,44.66,44.84,44.66M32.48,176.32l-.09-.09c6.83-6.82,17.87-6.84,24.67-.04l6.4,6.4c3.26,3.26,3.25,8.57-.02,11.84l-6.42,6.42.09.09c-6.83,6.82-17.87,6.84-24.67.04-6.8-6.8-6.78-17.85.04-24.67M77.23,221.07l-.09-.09,6.42-6.43c3.28-3.27,8.58-3.28,11.84-.02l6.4,6.41c6.8,6.8,6.78,17.85-.04,24.67l.09.09c-6.83,6.83-17.87,6.85-24.67.05-6.8-6.8-6.78-17.85.04-24.67"/>
      <path class="cls-1" d="M44.66,44.66C19.98,44.77,0,64.8,0,89.5s20.07,44.86,44.84,44.84h82.51c3.86,0,6.99-3.13,6.99-6.99V44.84C134.32,20.07,114.26.02,89.5,0c-24.7,0-44.75,20.01-44.84,44.66M32.44,77.09c6.8-6.8,17.84-6.78,24.67.04l-.09.09,6.42,6.42c3.28,3.28,3.29,8.58.02,11.84l-6.41,6.4c-6.8,6.8-17.85,6.78-24.67-.04l.09-.09c-6.82-6.83-6.84-17.87-.04-24.67M77.19,32.35c6.8-6.8,17.85-6.78,24.67.04l-.09.09c6.82,6.82,6.84,17.87.04,24.67l-6.4,6.4c-3.26,3.27-8.56,3.26-11.84-.02l-6.43-6.43.09-.09c-6.83-6.82-6.85-17.87-.04-24.67"/>
      <path class="cls-1" d="M255.71,219.46c-4.81-5.06-11.32-8.93-19.54-11.61,5.98-2.57,10.9-6.25,14.79-11.03,3.89-4.81,5.83-11.1,5.83-18.91v-.39c0-4.59-.77-8.68-2.3-12.27-1.52-3.58-3.64-6.72-6.33-9.4-3.96-3.97-8.95-6.96-14.94-9.03-6-2.03-13.23-3.06-21.64-3.06h-61.79c-3.85,0-6.99,3.13-6.99,6.99v82.54c.03,24.69,19.97,44.68,44.64,44.81h24.63c16.12,0,28.63-3.28,37.51-9.79,8.89-6.52,13.34-15.6,13.34-27.25v-.38c0-9.08-2.4-16.16-7.21-21.2M179.07,173.68h24.19c5.62,0,9.84.98,12.66,2.99,2.81,1.96,4.22,4.81,4.22,8.52v.38c0,3.96-1.5,6.92-4.52,8.84-3,1.92-7.39,2.87-13.15,2.87h-23.4v-23.6ZM225.69,235.85c0,3.97-1.53,7-4.61,9.12-3.06,2.1-7.48,3.15-13.24,3.15h-20.51c-4.63-.06-8.34-3.86-8.27-8.47v-16.27h28.4c6.27,0,10.87,1.08,13.83,3.25,2.93,2.19,4.4,5.12,4.4,8.84v.37Z"/>
      <path class="cls-1" d="M512.78,219.46c-4.81-5.06-11.32-8.93-19.53-11.61,5.98-2.57,10.9-6.25,14.79-11.03,3.89-4.81,5.83-11.1,5.83-18.91v-.39c0-4.59-.77-8.68-2.3-12.27-1.53-3.58-3.64-6.72-6.33-9.4-3.96-3.97-8.95-6.96-14.94-9.03-6-2.03-13.23-3.06-21.64-3.06h-61.79c-3.86,0-6.99,3.13-6.99,6.99v82.54c.02,24.69,19.97,44.68,44.64,44.81h24.63c16.12,0,28.63-3.28,37.52-9.79,8.88-6.52,13.34-15.6,13.34-27.25v-.38c0-9.08-2.41-16.16-7.22-21.2M436.14,173.68h24.19c5.62,0,9.84.98,12.67,2.99,2.81,1.96,4.22,4.81,4.22,8.52v.38c0,3.96-1.5,6.92-4.52,8.84-3,1.92-7.39,2.87-13.15,2.87h-23.4v-23.6ZM482.77,235.85c0,3.97-1.53,7-4.61,9.12-3.06,2.1-7.48,3.15-13.24,3.15h-20.51c-4.63-.06-8.34-3.86-8.27-8.47v-16.27h28.4c6.27,0,10.87,1.08,13.83,3.25,2.93,2.19,4.4,5.12,4.4,8.84v.37Z"/>
      <path class="cls-1" d="M384.25,219.46c-4.81-5.06-11.33-8.93-19.54-11.61,5.98-2.57,10.9-6.25,14.79-11.03,3.89-4.81,5.83-11.1,5.83-18.91v-.39c0-4.59-.77-8.68-2.3-12.27-1.53-3.58-3.64-6.72-6.33-9.4-3.96-3.97-8.95-6.96-14.94-9.03-6-2.03-13.23-3.06-21.65-3.06h-61.79c-3.85,0-6.98,3.13-6.98,6.99v82.54c.02,24.69,19.97,44.68,44.64,44.81h24.64c16.12,0,28.63-3.28,37.51-9.79,8.89-6.52,13.34-15.6,13.34-27.25v-.38c0-9.08-2.4-16.16-7.21-21.2M307.6,173.68h24.19c5.62,0,9.84.98,12.66,2.99,2.81,1.96,4.22,4.81,4.22,8.52v.38c0,3.96-1.5,6.92-4.51,8.84-3,1.92-7.39,2.87-13.15,2.87h-23.41v-23.6ZM354.23,235.85c0,3.97-1.53,7-4.61,9.12-3.06,2.1-7.48,3.15-13.24,3.15h-20.51c-4.63-.06-8.34-3.86-8.28-8.47v-16.27h28.4c6.27,0,10.87,1.08,13.83,3.25,2.94,2.19,4.4,5.12,4.4,8.84v.37Z"/>
    </g>
  </g>
</svg>