<svg xmlns="http://www.w3.org/2000/svg" xmlns:xlink="http://www.w3.org/1999/xlink" width="272" zoomAndPan="magnify" viewBox="0 0 204 86.999996" height="116" preserveAspectRatio="xMidYMid meet" version="1.0"><path fill="#01a747" d="M 39.726562 19.453125 L 23.015625 19.453125 L 23.015625 28.222656 L 28.570312 28.222656 C 27.941406 31.253906 24.960938 32.75 22.046875 32.75 C 14.378906 32.75 12.832031 26.046875 12.832031 22.207031 C 12.832031 19.402344 12.542969 10.289062 21.1875 10.289062 C 24.167969 10.289062 26.683594 12.410156 27.140625 15.386719 L 39.21875 15.386719 C 37.382812 5.757812 30.800781 0.0859375 20.382812 0.0859375 C 11.167969 0.0859375 0.230469 6.328125 0.230469 21.917969 C 0.230469 33.550781 7.671875 42.945312 19.753906 42.945312 C 24.222656 42.945312 28.570312 41.398438 31.371094 37.789062 L 31.769531 41.96875 L 39.726562 41.96875 Z M 81.726562 33.210938 C 81.265625 28.109375 79.152344 24.332031 75.710938 23.007812 C 79.890625 21.460938 81.835938 16.992188 81.835938 12.75 C 81.835938 5.011719 75.652344 1.0625 68.496094 1.0625 L 44.511719 1.0625 L 44.511719 41.976562 L 57.105469 41.976562 L 57.105469 27.703125 L 63.804688 27.703125 C 68.785156 27.703125 69.132812 31.773438 69.472656 35.664062 C 69.640625 37.789062 69.871094 39.90625 70.5 41.96875 L 83.09375 41.96875 C 81.953125 40.082031 81.894531 35.214844 81.726562 33.210938 Z M 63.6875 18.9375 L 57.105469 18.9375 L 57.105469 10.796875 L 63 10.796875 C 67.808594 10.796875 69.242188 12.285156 69.242188 14.867188 C 69.242188 18.539062 66.039062 18.9375 63.6875 18.9375 Z M 104.53125 0.0859375 C 92.105469 0.0859375 83.808594 9.023438 83.808594 21.511719 C 83.808594 34 92.105469 42.9375 104.53125 42.9375 C 116.953125 42.9375 125.25 34 125.25 21.511719 C 125.25 9.023438 116.945312 0.0859375 104.53125 0.0859375 Z M 104.53125 32.75 C 101.328125 32.75 96.402344 30.625 96.402344 21.519531 C 96.402344 12.410156 101.328125 10.289062 104.53125 10.289062 C 107.734375 10.289062 112.65625 12.410156 112.65625 21.519531 C 112.65625 30.625 107.734375 32.75 104.53125 32.75 Z M 163.144531 31.484375 L 141.277344 31.484375 L 141.277344 26.386719 L 160.570312 26.386719 L 160.570312 16.644531 L 141.277344 16.644531 L 141.277344 11.546875 L 162.515625 11.546875 L 162.515625 1.0625 L 128.683594 1.0625 L 128.683594 41.976562 L 163.144531 41.976562 Z M 179.398438 19.625 L 179.507812 19.625 L 192.042969 41.96875 L 204.296875 41.96875 L 204.296875 1.054688 L 192.390625 1.054688 L 192.390625 22.941406 L 192.28125 22.941406 L 180.375 1.054688 L 167.492188 1.054688 L 167.492188 41.96875 L 179.398438 41.96875 Z M 48.941406 46.238281 L 36.347656 46.238281 L 36.347656 87.152344 L 67.03125 87.152344 L 67.03125 76.667969 L 48.941406 76.667969 Z M 70.773438 87.144531 L 83.367188 87.144531 L 83.367188 46.230469 L 70.773438 46.230469 Z M 112.464844 68.125 L 112.355469 68.125 L 100.449219 46.238281 L 87.566406 46.238281 L 87.566406 87.152344 L 99.472656 87.152344 L 99.472656 64.808594 L 99.582031 64.808594 L 112.117188 87.152344 L 124.371094 87.152344 L 124.371094 46.238281 L 112.464844 46.238281 Z M 168.082031 46.238281 L 152.570312 46.238281 L 141.351562 60.332031 L 141.238281 60.332031 L 141.238281 46.238281 L 128.644531 46.238281 L 128.644531 87.152344 L 141.238281 87.152344 L 141.238281 75.0625 L 144.730469 71.222656 L 154.800781 87.152344 L 170.488281 87.152344 L 153.257812 62.226562 Z M 192.847656 62.21875 C 187.066406 60.613281 181.230469 59.984375 181.003906 57.0625 C 181.003906 54.769531 183.804688 54.308594 185.527344 54.308594 C 186.785156 54.308594 188.21875 54.597656 189.25 55.339844 C 190.277344 56.027344 190.964844 57.054688 190.734375 58.601562 L 202.640625 58.601562 C 202.300781 48.628906 194.453125 45.253906 185.582031 45.253906 C 177.164062 45.253906 169.097656 49.324219 169.097656 58.78125 C 169.097656 67.027344 176.484375 68.804688 182.949219 70.640625 C 189.988281 72.644531 191.761719 73.214844 191.761719 75.339844 C 191.761719 78.371094 188.613281 79.058594 186.554688 79.058594 C 184.210938 79.058594 181.460938 78.542969 180.542969 76.078125 C 180.253906 75.332031 180.085938 74.414062 180.085938 73.382812 L 167.492188 73.382812 C 167.601562 86.449219 180.832031 88.109375 185.46875 88.109375 C 194.574219 88.109375 204.355469 84.667969 204.355469 74.011719 C 204.355469 66.519531 198.632812 63.824219 192.847656 62.21875 Z M 192.847656 62.21875 " fill-opacity="1" fill-rule="nonzero"/></svg>