<svg xmlns="http://www.w3.org/2000/svg" xmlns:xlink="http://www.w3.org/1999/xlink" width="2000" zoomAndPan="magnify" viewBox="0 0 1500 1499.999933" height="2000" preserveAspectRatio="xMidYMid meet" version="1.0"><defs><clipPath id="da031b1279"><path d="M 3 0 L 1500 0 L 1500 638.25 L 3 638.25 Z M 3 0 " clip-rule="nonzero"/></clipPath><clipPath id="ac609f9281"><path d="M 1.605469 639.363281 L 290 639.363281 L 290 1235.980469 L 1.605469 1235.980469 Z M 1.605469 639.363281 " clip-rule="nonzero"/></clipPath><clipPath id="bab8dde004"><path d="M 293 771 L 611 771 L 611 1235.980469 L 293 1235.980469 Z M 293 771 " clip-rule="nonzero"/></clipPath><clipPath id="323b34c872"><path d="M 892 639.363281 L 1233 639.363281 L 1233 1235.980469 L 892 1235.980469 Z M 892 639.363281 " clip-rule="nonzero"/></clipPath><clipPath id="7db3ffd800"><path d="M 590 639.363281 L 883 639.363281 L 883 1235.980469 L 590 1235.980469 Z M 590 639.363281 " clip-rule="nonzero"/></clipPath><clipPath id="d18e2364e0"><path d="M 1177 736 L 1455.34375 736 L 1455.34375 917.617188 L 1177 917.617188 Z M 1177 736 " clip-rule="nonzero"/></clipPath><clipPath id="8f98a16470"><path d="M 1219 638.183594 L 1436 638.183594 L 1436 823 L 1219 823 Z M 1219 638.183594 " clip-rule="nonzero"/></clipPath></defs><g clip-path="url(#da031b1279)"><path fill="#01a747" d="M 293.199219 142.710938 L 170.617188 142.710938 L 170.617188 207.046875 L 211.363281 207.046875 C 206.75 229.285156 184.886719 240.261719 163.511719 240.261719 C 107.265625 240.261719 95.917969 191.085938 95.917969 162.914062 C 95.917969 142.339844 93.796875 75.484375 157.207031 75.484375 C 179.070312 75.484375 197.523438 91.042969 200.875 112.878906 L 289.472656 112.878906 C 276.007812 42.242188 227.726562 0.628906 151.304688 0.628906 C 83.710938 0.628906 3.480469 46.425781 3.480469 160.792969 C 3.480469 246.136719 58.066406 315.054688 146.691406 315.054688 C 179.472656 315.054688 211.363281 303.707031 231.910156 277.226562 L 234.832031 307.890625 L 293.199219 307.890625 Z M 601.285156 243.640625 C 597.90625 206.214844 582.402344 178.503906 557.160156 168.789062 C 587.820312 157.441406 602.089844 124.65625 602.089844 93.535156 C 602.089844 36.765625 556.730469 7.792969 504.234375 7.792969 L 328.300781 7.792969 L 328.300781 307.949219 L 420.679688 307.949219 L 420.679688 203.234375 L 469.820312 203.234375 C 506.355469 203.234375 508.90625 233.097656 511.398438 261.640625 C 512.632812 277.226562 514.320312 292.761719 518.933594 307.890625 L 611.316406 307.890625 C 602.949219 294.050781 602.519531 258.34375 601.285156 243.640625 Z M 468.960938 138.929688 L 420.679688 138.929688 L 420.679688 79.207031 L 463.917969 79.207031 C 499.191406 79.207031 509.707031 90.125 509.707031 109.070312 C 509.707031 136.007812 486.210938 138.929688 468.960938 138.929688 Z M 768.566406 0.628906 C 677.417969 0.628906 616.558594 66.199219 616.558594 157.8125 C 616.558594 249.429688 677.417969 315 768.566406 315 C 859.6875 315 920.546875 249.429688 920.546875 157.8125 C 920.546875 66.199219 859.628906 0.628906 768.566406 0.628906 Z M 768.566406 240.261719 C 745.070312 240.261719 708.9375 224.671875 708.9375 157.871094 C 708.9375 91.042969 745.070312 75.484375 768.566406 75.484375 C 792.0625 75.484375 828.167969 91.042969 828.167969 157.871094 C 828.167969 224.671875 792.0625 240.261719 768.566406 240.261719 Z M 1198.519531 230.976562 L 1038.113281 230.976562 L 1038.113281 193.578125 L 1179.636719 193.578125 L 1179.636719 122.109375 L 1038.113281 122.109375 L 1038.113281 84.710938 L 1193.90625 84.710938 L 1193.90625 7.792969 L 945.734375 7.792969 L 945.734375 307.949219 L 1198.519531 307.949219 Z M 1317.75 143.972656 L 1318.550781 143.972656 L 1410.5 307.890625 L 1500.386719 307.890625 L 1500.386719 7.738281 L 1413.050781 7.738281 L 1413.050781 168.304688 L 1412.25 168.304688 L 1324.910156 7.738281 L 1230.410156 7.738281 L 1230.410156 307.890625 L 1317.75 307.890625 Z M 360.792969 339.214844 L 268.414062 339.214844 L 268.414062 639.367188 L 493.492188 639.367188 L 493.492188 562.453125 L 360.792969 562.453125 Z M 520.941406 639.308594 L 613.320312 639.308594 L 613.320312 339.15625 L 520.941406 339.15625 Z M 826.765625 499.777344 L 825.960938 499.777344 L 738.625 339.214844 L 644.125 339.214844 L 644.125 639.367188 L 731.460938 639.367188 L 731.460938 475.449219 L 732.261719 475.449219 L 824.214844 639.367188 L 914.101562 639.367188 L 914.101562 339.214844 L 826.765625 339.214844 Z M 1234.738281 339.214844 L 1120.953125 339.214844 L 1038.660156 442.609375 L 1037.828125 442.609375 L 1037.828125 339.214844 L 945.449219 339.214844 L 945.449219 639.367188 L 1037.828125 639.367188 L 1037.828125 550.675781 L 1063.445312 522.503906 L 1137.316406 639.367188 L 1252.390625 639.367188 L 1125.996094 456.507812 Z M 1416.402344 456.449219 C 1373.996094 444.671875 1331.1875 440.058594 1329.523438 418.621094 C 1329.523438 401.800781 1350.070312 398.417969 1362.707031 398.417969 C 1371.933594 398.417969 1382.449219 400.539062 1390.011719 405.984375 C 1397.550781 411.027344 1402.59375 418.566406 1400.902344 429.914062 L 1488.238281 429.914062 C 1485.746094 356.75 1428.179688 331.992188 1363.105469 331.992188 C 1301.359375 331.992188 1242.1875 361.851562 1242.1875 431.230469 C 1242.1875 491.726562 1296.371094 504.765625 1343.792969 518.234375 C 1395.429688 532.933594 1408.4375 537.121094 1408.4375 552.707031 C 1408.4375 574.945312 1385.34375 579.988281 1370.242188 579.988281 C 1353.050781 579.988281 1332.878906 576.207031 1326.144531 558.125 C 1324.023438 552.652344 1322.792969 545.917969 1322.792969 538.351562 L 1230.410156 538.351562 C 1231.214844 634.210938 1328.265625 646.386719 1362.277344 646.386719 C 1429.070312 646.386719 1500.816406 621.140625 1500.816406 542.964844 C 1500.816406 488 1458.839844 468.226562 1416.402344 456.449219 Z M 1416.402344 456.449219 " fill-opacity="1" fill-rule="nonzero"/></g><g clip-path="url(#ac609f9281)"><path fill="#d81f27" d="M -1.359375 1241.660156 L 101.789062 1241.660156 L 101.789062 999.519531 L 136.105469 999.519531 C 251.625 999.519531 289.835938 933.867188 289.835938 831.339844 L 289.835938 795.933594 C 289.835938 686.96875 239.363281 638.464844 141.382812 638.464844 L -1.359375 638.464844 Z M 101.789062 722.648438 L 132.460938 722.648438 C 179.914062 722.648438 187.394531 755.800781 187.394531 797.753906 L 187.394531 828.296875 C 187.394531 885.089844 177.523438 915.796875 123.867188 915.796875 L 101.789062 915.796875 Z M 101.789062 722.648438 " fill-opacity="1" fill-rule="nonzero"/></g><g clip-path="url(#bab8dde004)"><path fill="#d81f27" d="M 293.886719 771.261719 L 392.300781 1241.632812 L 510.023438 1241.632812 L 610.125 771.261719 L 507.003906 771.261719 C 491.832031 872.375 463.710938 1024.597656 454.847656 1128.101562 L 453.734375 1128.101562 C 441.523438 1022.777344 419.550781 867.535156 404.484375 771.261719 Z M 293.886719 771.261719 " fill-opacity="1" fill-rule="nonzero"/></g><g clip-path="url(#323b34c872)"><path fill="#d81f27" d="M 1104.214844 1090.25 L 1125.261719 1241.660156 L 1232.949219 1241.660156 L 1134.371094 638.464844 L 987.660156 638.464844 L 892.453125 1241.632812 L 997.476562 1241.632812 L 1015.914062 1090.195312 L 1104.214844 1090.195312 Z M 1028.179688 996.039062 C 1038.648438 914.085938 1055.480469 785.664062 1058.066406 736.207031 L 1061.816406 736.207031 C 1068.835938 805.746094 1081.398438 904.328125 1092.738281 996.039062 Z M 1028.179688 996.039062 " fill-opacity="1" fill-rule="nonzero"/></g><g clip-path="url(#7db3ffd800)"><path fill="#d81f27" d="M 881.523438 1108.890625 L 881.523438 637.757812 L 778.375 637.757812 L 778.375 796.777344 C 764.859375 771.535156 733.261719 764.085938 704.136719 764.085938 C 626.035156 764.085938 590.628906 846.042969 590.628906 1015.605469 C 590.628906 1185.164062 612.246094 1248.941406 696.765625 1248.941406 C 741.71875 1248.941406 764.585938 1228.644531 780.386719 1197.53125 C 780.441406 1204.269531 782.261719 1229.050781 784.03125 1241.660156 L 882.472656 1241.660156 C 881.574219 1216.441406 881.523438 1183.671875 881.523438 1108.890625 Z M 778.375 1078.128906 C 778.375 1127.421875 771.957031 1157.285156 737.71875 1157.285156 C 707.671875 1157.285156 693.910156 1113.292969 693.910156 1002.152344 C 693.910156 891.015625 708.675781 855.660156 738.589844 855.660156 C 773.832031 855.660156 778.402344 884.492188 778.402344 933.976562 L 778.402344 1078.128906 Z M 778.375 1078.128906 " fill-opacity="1" fill-rule="nonzero"/></g><g clip-path="url(#d18e2364e0)"><path fill="#d81f27" d="M 1458.0625 777.292969 L 1436.960938 736.042969 L 1408.214844 826.667969 L 1333.433594 878.921875 L 1222.207031 847.292969 L 1177.964844 778.789062 L 1204.476562 859.25 L 1318.71875 917.617188 L 1417.515625 875.742188 Z M 1458.0625 777.292969 " fill-opacity="1" fill-rule="nonzero"/></g><g clip-path="url(#8f98a16470)"><path fill="#d81f27" d="M 1435.027344 732.675781 L 1399.050781 663.601562 L 1318.039062 637.703125 L 1219.652344 678.734375 L 1324.078125 662.050781 L 1401.5 722.59375 L 1399.105469 822.484375 Z M 1435.027344 732.675781 " fill-opacity="1" fill-rule="nonzero"/></g><path fill="#d81f27" d="M 1388.5 822.375 L 1396.683594 737.972656 L 1347.136719 686.207031 L 1288.78125 703.601562 L 1363.101562 730.339844 L 1374.113281 803.246094 L 1320.894531 834.414062 Z M 1388.5 822.375 " fill-opacity="1" fill-rule="nonzero"/><path fill="#d81f27" d="M 1388.148438 826.585938 L 1332.644531 874.140625 L 1218.265625 833.378906 L 1195.230469 733.136719 L 1269.089844 677.621094 L 1333.214844 678.246094 L 1232.1875 720.691406 L 1227.863281 792.128906 L 1295.957031 848.761719 Z M 1388.148438 826.585938 " fill-opacity="1" fill-rule="nonzero"/><path fill="#d81f27" d="M 1340.175781 736.996094 L 1324.160156 720.636719 L 1311.59375 726.179688 L 1317.117188 736.996094 Z M 1320.785156 740.582031 L 1356.65625 775.203125 L 1340.121094 767.160156 L 1306.5625 797.863281 L 1306.292969 836.585938 L 1370.28125 793.082031 L 1356.382812 741.289062 Z M 1320.785156 740.582031 " fill-opacity="1" fill-rule="nonzero"/><path fill="#d81f27" d="M 1309.882812 730.285156 L 1304.578125 725.992188 L 1292.371094 734.769531 L 1316.570312 775.257812 L 1334.820312 764.820312 L 1310.34375 751.371094 Z M 1314.289062 776.558594 L 1300.253906 784.605469 L 1270.914062 748.515625 L 1284.402344 738.4375 Z M 1298.488281 785.554688 L 1284.972656 793.082031 L 1258.59375 766.234375 L 1266.019531 752.839844 Z M 1298.488281 785.554688 " fill-opacity="1" fill-rule="nonzero"/><path fill="#d81f27" d="M 1289.757812 814.222656 L 1251.878906 760.527344 L 1300.148438 713.300781 L 1244.644531 724.523438 L 1231.726562 774.386719 L 1289.867188 840.90625 Z M 1289.757812 814.222656 " fill-opacity="1" fill-rule="nonzero"/></svg>