<?xml version="1.0" encoding="utf-8"?>
<!-- Generator: Adobe Illustrator 27.8.1, SVG Export Plug-In . SVG Version: 6.00 Build 0)  -->
<svg version="1.1" id="Layer_1" xmlns="http://www.w3.org/2000/svg" xmlns:xlink="http://www.w3.org/1999/xlink" x="0px" y="0px"
	 viewBox="0 0 595.28 137.86" style="enable-background:new 0 0 595.28 137.86;" xml:space="preserve">
<style type="text/css">
	.st0{fill:#01A747;}
	.st1{fill:#D81F27;}
</style>
<g>
	<g>
		<path class="st0" d="M69.34,35.67h-22.6v11.85h7.51c-0.85,4.1-4.88,6.12-8.82,6.12c-10.37,0-12.46-9.06-12.46-14.25
			c0-3.79-0.39-16.11,11.3-16.11c4.03,0,7.43,2.87,8.05,6.89h16.33C66.17,17.16,57.27,9.49,43.18,9.49
			c-12.46,0-27.25,8.44-27.25,29.51c0,15.72,10.06,28.42,26.4,28.42c6.04,0,11.92-2.09,15.71-6.97l0.54,5.65h10.76V35.67z
			 M126.13,54.26c-0.62-6.89-3.48-12-8.13-13.79c5.65-2.09,8.28-8.13,8.28-13.86c0-10.46-8.36-15.8-18.04-15.8H75.81v55.3h17.03
			V46.82h9.06c6.73,0,7.2,5.5,7.66,10.76c0.23,2.87,0.54,5.73,1.39,8.52h17.03C126.44,63.55,126.36,56.97,126.13,54.26z
			 M101.74,34.97h-8.9v-11h7.97c6.5,0,8.44,2.01,8.44,5.5C109.25,34.43,104.92,34.97,101.74,34.97z M156.97,9.49
			c-16.8,0-28.02,12.08-28.02,28.96s11.22,28.96,28.02,28.96s28.02-12.08,28.02-28.96S173.76,9.49,156.97,9.49z M156.97,53.64
			c-4.33,0-10.99-2.87-10.99-15.18s6.66-15.18,10.99-15.18c4.33,0,10.99,2.87,10.99,15.18S161.3,53.64,156.97,53.64z M236.23,51.93
			h-29.57v-6.89h26.09V31.87h-26.09v-6.89h28.72V10.81h-45.75v55.3h46.6V51.93z M258.21,35.9h0.15l16.95,30.2h16.57v-55.3h-16.1
			v29.58h-0.15l-16.1-29.58h-17.42v55.3h16.1V35.9z M81.8,71.87H64.77v55.3h41.49v-14.17H81.8V71.87z M111.32,127.16h17.03v-55.3
			h-17.03V127.16z M167.7,101.45h-0.15l-16.1-29.58h-17.42v55.3h16.1v-30.2h0.15l16.95,30.2h16.57v-55.3h-16.1V101.45z
			 M242.91,71.87h-20.98l-15.17,19.05h-0.15V71.87h-17.03v55.3h17.03v-16.34l4.72-5.19l13.62,21.53h21.21l-23.3-33.69L242.91,71.87z
			 M276.4,93.47c-7.82-2.17-15.71-3.02-16.02-6.97c0-3.1,3.79-3.72,6.12-3.72c1.7,0,3.64,0.39,5.03,1.39
			c1.39,0.93,2.32,2.32,2.01,4.41h16.1c-0.46-13.48-11.07-18.04-23.07-18.04c-11.38,0-22.29,5.5-22.29,18.28
			c0,11.15,9.99,13.55,18.73,16.03c9.52,2.71,11.92,3.48,11.92,6.35c0,4.1-4.26,5.03-7.04,5.03c-3.17,0-6.89-0.7-8.13-4.03
			c-0.39-1.01-0.62-2.25-0.62-3.64h-17.03c0.15,17.66,18.04,19.9,24.31,19.9c12.31,0,25.54-4.65,25.54-19.05
			C291.96,99.28,284.22,95.64,276.4,93.47z"/>
	</g>
</g>
<path class="st1" d="M299.26,127.03h19.85V80.4h6.6c22.23,0,29.58-12.64,29.58-32.38v-6.82c0-20.98-9.71-30.32-28.56-30.32h-27.47
	V127.03z M319.11,27.09h5.9c9.13,0,10.57,6.38,10.57,14.46v5.88c0,10.94-1.9,16.85-12.22,16.85h-4.25V27.09z"/>
<path class="st1" d="M356.07,36.45l18.94,90.57h22.65l19.26-90.57h-19.84c-2.92,19.47-8.33,48.78-10.04,68.71h-0.21
	c-2.35-20.28-6.58-50.17-9.48-68.71H356.07z"/>
<path class="st1" d="M511.99,97.87l4.05,29.16h20.72L517.79,10.88h-28.23l-18.32,116.14h20.21l3.55-29.16H511.99z M497.36,79.73
	c2.01-15.78,5.25-40.51,5.75-50.03h0.72c1.35,13.39,3.77,32.37,5.95,50.03H497.36z"/>
<g>
	<g>
		<path class="st1" d="M469.14,101.46V10.74h-19.85v30.62c-2.6-4.86-8.68-6.29-14.28-6.29c-15.03,0-21.84,15.78-21.84,48.43
			c0,32.65,4.16,44.93,20.42,44.93c8.65,0,13.05-3.91,16.09-9.9c0.01,1.3,0.36,6.07,0.7,8.5h18.94
			C469.15,122.17,469.14,115.86,469.14,101.46z M449.29,95.54c0,9.49-1.23,15.24-7.82,15.24c-5.78,0-8.43-8.47-8.43-29.87
			s2.84-28.21,8.6-28.21c6.78,0,7.66,5.55,7.66,15.08V95.54z"/>
	</g>
</g>
<path class="st1" d="M580.07,37.61l-4.06-7.94l-5.53,17.45l-14.39,10.06l-21.4-6.09l-8.51-13.19l5.1,15.49l21.98,11.24l19.01-8.06
	L580.07,37.61L580.07,37.61z"/>
<path class="st1" d="M575.64,29.02l-6.92-13.3l-15.59-4.99l-18.93,7.9l20.09-3.21l14.9,11.66l-0.46,19.23L575.64,29.02z"/>
<path class="st1" d="M566.69,46.29l1.57-16.25l-9.53-9.97l-11.23,3.35l14.3,5.15l2.12,14.04l-10.24,6L566.69,46.29L566.69,46.29z"/>
<path class="st1" d="M566.62,47.1l-10.68,9.16l-22.01-7.85l-4.43-19.3l14.21-10.69l12.34,0.12l-19.44,8.17l-0.83,13.76l13.1,10.9
	L566.62,47.1z"/>
<path class="st1" d="M557.39,29.85l-3.08-3.15l-2.42,1.07l1.06,2.08H557.39L557.39,29.85z M553.66,30.54l6.9,6.67l-3.18-1.55
	l-6.46,5.91l-0.05,7.46l12.31-8.38l-2.67-9.97L553.66,30.54L553.66,30.54z"/>
<path class="st1" d="M551.56,28.56l-1.02-0.83l-2.35,1.69l4.66,7.8l3.51-2.01l-4.71-2.59L551.56,28.56z M552.41,37.47l-2.7,1.55
	l-5.65-6.95l2.6-1.94L552.41,37.47L552.41,37.47z M549.37,39.2l-2.6,1.45l-5.08-5.17l1.43-2.58L549.37,39.2z"/>
<path class="st1" d="M547.69,44.72l-7.29-10.34l9.29-9.09l-10.68,2.16l-2.49,9.6l11.19,12.81L547.69,44.72L547.69,44.72z"/>
</svg>
