<svg xmlns="http://www.w3.org/2000/svg" xmlns:xlink="http://www.w3.org/1999/xlink" width="287" zoomAndPan="magnify" viewBox="0 0 215.25 88.499997" height="118" preserveAspectRatio="xMidYMid meet" version="1.0"><defs><clipPath id="8eca8fb906"><path d="M 0.230469 0 L 42 0 L 42 85.765625 L 0.230469 85.765625 Z M 0.230469 0 " clip-rule="nonzero"/></clipPath><clipPath id="6ebfe86da1"><path d="M 42 18 L 88 18 L 88 85.765625 L 42 85.765625 Z M 42 18 " clip-rule="nonzero"/></clipPath><clipPath id="0f01f9185e"><path d="M 128 0 L 178 0 L 178 85.765625 L 128 85.765625 Z M 128 0 " clip-rule="nonzero"/></clipPath><clipPath id="3bf73b7608"><path d="M 84 0 L 127 0 L 127 85.765625 L 84 85.765625 Z M 84 0 " clip-rule="nonzero"/></clipPath><clipPath id="81399d1a53"><path d="M 169 13 L 209.050781 13 L 209.050781 40 L 169 40 Z M 169 13 " clip-rule="nonzero"/></clipPath></defs><g clip-path="url(#8eca8fb906)"><path fill="#d81f27" d="M -0.195312 86.582031 L 14.621094 86.582031 L 14.621094 51.773438 L 19.550781 51.773438 C 36.144531 51.773438 41.632812 42.335938 41.632812 27.597656 L 41.632812 22.507812 C 41.632812 6.84375 34.382812 -0.128906 20.308594 -0.128906 L -0.195312 -0.128906 Z M 14.621094 11.972656 L 19.027344 11.972656 C 25.84375 11.972656 26.917969 16.738281 26.917969 22.769531 L 26.917969 27.160156 C 26.917969 35.324219 25.5 39.738281 17.792969 39.738281 L 14.621094 39.738281 Z M 14.621094 11.972656 " fill-opacity="1" fill-rule="nonzero"/></g><g clip-path="url(#6ebfe86da1)"><path fill="#d81f27" d="M 42.214844 18.960938 L 56.351562 86.578125 L 73.261719 86.578125 L 87.640625 18.960938 L 72.828125 18.960938 C 70.648438 33.496094 66.609375 55.378906 65.335938 70.257812 L 65.175781 70.257812 C 63.421875 55.117188 60.265625 32.800781 58.101562 18.960938 Z M 42.214844 18.960938 " fill-opacity="1" fill-rule="nonzero"/></g><g clip-path="url(#0f01f9185e)"><path fill="#d81f27" d="M 158.613281 64.816406 L 161.636719 86.582031 L 177.105469 86.582031 L 162.945312 -0.128906 L 141.871094 -0.128906 L 128.195312 86.578125 L 143.28125 86.578125 L 145.929688 64.808594 L 158.613281 64.808594 Z M 147.691406 51.273438 C 149.195312 39.492188 151.613281 21.03125 151.984375 13.921875 L 152.523438 13.921875 C 153.53125 23.917969 155.335938 38.089844 156.964844 51.273438 Z M 147.691406 51.273438 " fill-opacity="1" fill-rule="nonzero"/></g><g clip-path="url(#3bf73b7608)"><path fill="#d81f27" d="M 126.625 67.496094 L 126.625 -0.230469 L 111.808594 -0.230469 L 111.808594 22.628906 C 109.867188 19 105.328125 17.929688 101.144531 17.929688 C 89.925781 17.929688 84.839844 29.710938 84.839844 54.085938 C 84.839844 78.460938 87.945312 87.628906 100.085938 87.628906 C 106.542969 87.628906 109.828125 84.710938 112.097656 80.238281 C 112.105469 81.207031 112.367188 84.769531 112.621094 86.582031 L 126.761719 86.582031 C 126.632812 82.957031 126.625 78.246094 126.625 67.496094 Z M 111.808594 63.074219 C 111.808594 70.160156 110.886719 74.453125 105.96875 74.453125 C 101.652344 74.453125 99.675781 68.128906 99.675781 52.152344 C 99.675781 36.175781 101.796875 31.09375 106.09375 31.09375 C 111.15625 31.09375 111.8125 35.238281 111.8125 42.351562 L 111.8125 63.074219 Z M 111.808594 63.074219 " fill-opacity="1" fill-rule="nonzero"/></g><g clip-path="url(#81399d1a53)"><path fill="#d81f27" d="M 209.441406 19.828125 L 206.410156 13.898438 L 202.28125 26.925781 L 191.539062 34.4375 L 175.5625 29.890625 L 169.207031 20.042969 L 173.015625 31.609375 L 189.425781 40 L 203.617188 33.980469 Z M 209.441406 19.828125 " fill-opacity="1" fill-rule="nonzero"/></g><path fill="#d81f27" d="M 206.132812 13.414062 L 200.964844 3.484375 L 189.328125 -0.238281 L 175.195312 5.660156 L 190.195312 3.261719 L 201.316406 11.964844 L 200.972656 26.324219 Z M 206.132812 13.414062 " fill-opacity="1" fill-rule="nonzero"/><path fill="#d81f27" d="M 199.449219 26.308594 L 200.625 14.175781 L 193.507812 6.734375 L 185.125 9.234375 L 195.800781 13.078125 L 197.382812 23.558594 L 189.738281 28.039062 Z M 199.449219 26.308594 " fill-opacity="1" fill-rule="nonzero"/><path fill="#d81f27" d="M 199.398438 26.914062 L 191.425781 33.75 L 174.996094 27.890625 L 171.6875 13.480469 L 182.296875 5.5 L 191.507812 5.589844 L 176.996094 11.691406 L 176.375 21.960938 L 186.15625 30.101562 Z M 199.398438 26.914062 " fill-opacity="1" fill-rule="nonzero"/><path fill="#d81f27" d="M 192.507812 14.035156 L 190.207031 11.683594 L 188.402344 12.480469 L 189.195312 14.035156 Z M 189.722656 14.550781 L 194.875 19.527344 L 192.5 18.371094 L 187.679688 22.785156 L 187.640625 28.351562 L 196.832031 22.097656 L 194.835938 14.652344 Z M 189.722656 14.550781 " fill-opacity="1" fill-rule="nonzero"/><path fill="#d81f27" d="M 188.15625 13.070312 L 187.394531 12.453125 L 185.640625 13.714844 L 189.117188 19.535156 L 191.738281 18.035156 L 188.222656 16.101562 Z M 188.789062 19.722656 L 186.773438 20.878906 L 182.558594 15.691406 L 184.496094 14.242188 Z M 186.519531 21.015625 L 184.578125 22.097656 L 180.789062 18.238281 L 181.855469 16.3125 Z M 186.519531 21.015625 " fill-opacity="1" fill-rule="nonzero"/><path fill="#d81f27" d="M 185.265625 25.136719 L 179.824219 17.417969 L 186.757812 10.628906 L 178.785156 12.242188 L 176.929688 19.410156 L 185.28125 28.972656 Z M 185.265625 25.136719 " fill-opacity="1" fill-rule="nonzero"/></svg>