<?xml version="1.0" encoding="UTF-8" standalone="no"?>
<svg
   xmlns:dc="http://purl.org/dc/elements/1.1/"
   xmlns:cc="http://creativecommons.org/ns#"
   xmlns:rdf="http://www.w3.org/1999/02/22-rdf-syntax-ns#"
   xmlns:svg="http://www.w3.org/2000/svg"
   xmlns="http://www.w3.org/2000/svg"
   viewBox="0 0 1082 486.23999"
   height="486.23999"
   width="1082"
   xml:space="preserve"
   id="svg2"
   version="1.1"><metadata
     id="metadata8"><rdf:RDF><cc:Work
         rdf:about=""><dc:format>image/svg+xml</dc:format><dc:type
           rdf:resource="http://purl.org/dc/dcmitype/StillImage" /></cc:Work></rdf:RDF></metadata><defs
     id="defs6" /><g
     transform="matrix(1.3333333,0,0,-1.3333333,0,486.24)"
     id="g10"><g
       transform="scale(0.1)"
       id="g12"><path
         id="path14"
         style="fill:#f1511b;fill-opacity:1;fill-rule:nonzero;stroke:none"
         d="m 1417.56,2218.95 c -420.966,118.29 -494.986,179.11 -494.986,406.77 0,283.63 86.936,330.8 267.786,330.8 120.42,0 302.67,-3.22 375.58,-12.42 l 4.63,-477.24 c 0,-20.06 16.27,-36.34 36.35,-36.34 h 762.52 c 20.08,0 36.35,16.28 36.35,36.34 v 1048.53 c 0,16.18 -10.7,30.41 -26.23,34.92 -174.32,50.47 -742.01,96.45 -1179.5,96.45 C 280.387,3646.76 0,3373.93 0,2592.47 0,1808.53 202.547,1668.11 1069.05,1408.1 c 443.77,-131.09 505.14,-184.01 505.14,-435.518 0,-329.23 -51.08,-318.621 -369.28,-318.621 -90.69,0 -241.25,11.891 -320.945,21.777 l -4.86,471.642 c 0,20.07 -16.269,36.35 -36.347,36.35 H 99.4609 c -20.0781,0 -36.3476,-16.28 -36.3476,-36.35 V 95.1094 c 0,-17.6602 12.6836,-32.75 30.0664,-35.8086 C 229.859,35.3086 660.715,0 1195.21,0 c 1033.07,0 1315.94,181.609 1315.94,1034.34 0,767.23 -233.03,942.01 -1093.59,1184.61" /><path
         id="path16"
         style="fill:#f1511b;fill-opacity:1;fill-rule:nonzero;stroke:none"
         d="M 7521.25,2329.27 6441.13,1766.04 c -3.49,-1.79 -7.29,-2.71 -11.09,-2.71 -4.38,0 -8.75,1.2 -12.62,3.6 -7.21,4.46 -11.61,12.4 -11.61,20.96 v 1184.95 c 0,8.75 4.59,16.83 12.05,21.22 7.45,4.41 16.65,4.44 24.16,0.12 l 1080.11,-621.73 c 7.74,-4.43 12.45,-12.83 12.26,-21.84 -0.19,-9.02 -5.23,-17.19 -13.14,-21.34 z m 362.36,1057.03 c -148.39,168.14 -371.68,236.73 -770.71,236.73 H 5529.81 c -20.07,0 -36.35,-16.48 -36.35,-36.83 v -698.02 c 0,-20.33 16.28,-36.82 36.35,-36.82 h 149.04 l -2.69,-2092.411 h -146.35 c -20.07,0 -36.35,-16.5 -36.35,-36.828 V 43.3516 c 0,-20.3399 16.28,-36.83207 36.35,-36.83207 h 1404.43 c 20.07,0 36.35,16.49217 36.35,36.83207 V 697.969 c 0,20.34 -16.28,36.832 -36.35,36.832 h -320.97 v 393.319 h 490 c 393.45,0 625.4,72.96 775.59,243.98 163.3,185.95 236.13,497.66 236.13,1010.67 0,512.68 -71.37,822.18 -231.38,1003.53" /><path
         id="path18"
         style="fill:#f1511b;fill-opacity:1;fill-rule:nonzero;stroke:none"
         d="m 5221.57,1901.82 h -142.66 l 0.03,-0.41 -1020.42,2.24 c -20.07,0 -36.35,-16.28 -36.35,-36.35 v -645.42 c 0,-20.07 16.28,-36.35 36.35,-36.35 l 243.34,-0.73 0.01,-469.609 C 4223,705.82 4092.52,701.57 4010.2,701.57 c -279.95,0 -364.44,0 -364.44,875.71 v 446.48 c 0,885.25 75.15,885.25 354.74,885.25 102.69,0 229.18,-1.57 296.03,-8.03 l 0.86,-434.12 c 0,-20.06 16.28,-36.34 36.35,-36.34 h 767.78 c 20.07,0 36.35,16.28 36.35,36.34 v 1053.25 c 0,17.09 -11.91,31.87 -28.59,35.51 -126.81,27.72 -723.74,86.42 -1089.47,86.42 -1086.25,0 -1320.78,-324.47 -1320.78,-1827.32 0,-822.349 73.09,-1240.81 260.7,-1492.54 C 3167.43,43.5 3517.69,0 4012.23,0 c 367.67,0 868.75,27 1096.6,73.7383 16.9,3.4805 29.04,18.3633 29.04,35.6137 V 1184.8 h 83.7 c 20.06,0 36.34,16.28 36.34,36.35 v 644.32 c 0,20.07 -16.28,36.35 -36.34,36.35" /></g></g></svg>