<svg xmlns="http://www.w3.org/2000/svg" data-name="Layer 1" viewBox="0 0 1200 400"><rect width="1200" height="400" rx="100" fill="#00b7b2"/><path d="M103.74 93.37a33.56 33.56 0 0 1 3.68-15.18 44.5 44.5 0 0 1 9.79-13 51.4 51.4 0 0 1 13.71-9 36.2 36.2 0 0 1 14.93-3.43H185q38.19 0 66.58 12.73t47.25 33.78a143.9 143.9 0 0 1 28.4 47.5 158.8 158.8 0 0 1 9.55 54.35 160.8 160.8 0 0 1-9.06 53.38 131.7 131.7 0 0 1-27.42 46q-18.36 20.1-45.54 32.57t-63.41 12.49h-45.5q-19.09 0-30.6-11t-11.51-29.66Zm88.14 170.89q16.17 0 28.15-5.88a65.4 65.4 0 0 0 20.32-15.18 61.9 61.9 0 0 0 12.48-21.29 74.8 74.8 0 0 0 4.17-24.73 69.6 69.6 0 0 0-3.92-23 54.8 54.8 0 0 0-12-19.84 60.9 60.9 0 0 0-20.55-14Q208 135 191.38 135h-6.84v129.26Zm212.5 81.28q-40.15 0-40.14-40.64V93.37q0-40.64 40.14-40.64h137.11q19.1 0 29.87 12a41.48 41.48 0 0 1 10.77 28.64A41.48 41.48 0 0 1 571.36 122q-10.79 12-29.87 12h-96.95v24.48h77.37q19.08 0 29.86 12a43.45 43.45 0 0 1 0 57.29q-10.77 12-29.86 12h-77.37v24.48h96.95q19.1 0 29.87 12a43.48 43.48 0 0 1 0 57.29q-10.79 12-29.87 12Zm291.34-40.64q0 19.61-12 29.88t-28.64 10.27a41.9 41.9 0 0 1-28.15-10.27q-12-10.29-12-29.88V93.37q0-19.58 12-29.87a41.85 41.85 0 0 1 28.15-10.28h2q21.56 0 30.84 18.12l73.45 111.15V93.37q0-19.58 12-29.87a41.9 41.9 0 0 1 28.16-10.28q16.65 0 28.65 10.28t12 29.87V304.9q0 19.61-12 29.88t-28.65 10.27a45.1 45.1 0 0 1-14.2-1.95 38.3 38.3 0 0 1-10-4.9 34.2 34.2 0 0 1-6.62-5.87c-1.64-2-2.94-3.59-3.91-4.9l-71-105.76Zm260.98 0q0 19.61-12 29.88a41.88 41.88 0 0 1-28.15 10.27q-16.65 0-28.64-10.27t-12-29.88V93.37q0-19.58 12-29.87t28.64-10.28A41.84 41.84 0 0 1 944.7 63.5q12 10.29 12 29.87v67.09l65.62-93.53a55.2 55.2 0 0 1 14.2-11.26 35.9 35.9 0 0 1 17.14-3.92 38.3 38.3 0 0 1 15.91 3.43A51 51 0 0 1 1083 64a39.5 39.5 0 0 1 9.3 13 37.5 37.5 0 0 1-5.87 40.39L1015 197.67l71.5 81.77a37.82 37.82 0 0 1 9.79 25.46 34.5 34.5 0 0 1-3.67 15.67 43.3 43.3 0 0 1-9.62 12.73 50.3 50.3 0 0 1-13.47 8.82 37.1 37.1 0 0 1-15.42 3.43q-18.62 0-31.34-15.67l-66.07-92.06Z" style="fill:#fff"/></svg>