<svg xmlns="http://www.w3.org/2000/svg" xmlns:xlink="http://www.w3.org/1999/xlink" width="1100" zoomAndPan="magnify" viewBox="0 0 824.88 277.499997" height="370" preserveAspectRatio="xMidYMid meet" version="1.0"><defs><clipPath id="c719d9c97f"><path d="M 0.683594 0 L 824.078125 0 L 824.078125 277 L 0.683594 277 Z M 0.683594 0 " clip-rule="nonzero"/></clipPath><linearGradient x1="182.5" gradientTransform="matrix(0.748651, 0, 0, 0.748651, 0.681911, 0)" y1="-182.5" x2="917.419992" gradientUnits="userSpaceOnUse" y2="552.419992" id="357d2c187c"><stop stop-opacity="1" stop-color="rgb(13.729858%, 70.199585%, 61.569214%)" offset="0"/><stop stop-opacity="1" stop-color="rgb(14.019775%, 70.15686%, 61.392212%)" offset="0.00390625"/><stop stop-opacity="1" stop-color="rgb(14.311218%, 70.114136%, 61.216736%)" offset="0.0078125"/><stop stop-opacity="1" stop-color="rgb(14.601135%, 70.069885%, 61.039734%)" offset="0.0117188"/><stop stop-opacity="1" stop-color="rgb(14.892578%, 70.027161%, 60.864258%)" offset="0.015625"/><stop stop-opacity="1" stop-color="rgb(15.184021%, 69.984436%, 60.687256%)" offset="0.0195312"/><stop stop-opacity="1" stop-color="rgb(15.475464%, 69.941711%, 60.51178%)" offset="0.0234375"/><stop stop-opacity="1" stop-color="rgb(15.765381%, 69.898987%, 60.334778%)" offset="0.0273438"/><stop stop-opacity="1" stop-color="rgb(16.056824%, 69.856262%, 60.159302%)" offset="0.03125"/><stop stop-opacity="1" stop-color="rgb(16.348267%, 69.813538%, 59.983826%)" offset="0.0351562"/><stop stop-opacity="1" stop-color="rgb(16.639709%, 69.770813%, 59.80835%)" offset="0.0390625"/><stop stop-opacity="1" stop-color="rgb(16.929626%, 69.728088%, 59.631348%)" offset="0.0429688"/><stop stop-opacity="1" stop-color="rgb(17.221069%, 69.685364%, 59.455872%)" offset="0.046875"/><stop stop-opacity="1" stop-color="rgb(17.512512%, 69.641113%, 59.27887%)" offset="0.0507812"/><stop stop-opacity="1" stop-color="rgb(17.803955%, 69.598389%, 59.103394%)" offset="0.0546875"/><stop stop-opacity="1" stop-color="rgb(18.093872%, 69.555664%, 58.926392%)" offset="0.0585937"/><stop stop-opacity="1" stop-color="rgb(18.385315%, 69.512939%, 58.750916%)" offset="0.0625"/><stop stop-opacity="1" stop-color="rgb(18.676758%, 69.470215%, 58.573914%)" offset="0.0664062"/><stop stop-opacity="1" stop-color="rgb(18.968201%, 69.42749%, 58.398438%)" offset="0.0703125"/><stop stop-opacity="1" stop-color="rgb(19.258118%, 69.384766%, 58.221436%)" offset="0.0742188"/><stop stop-opacity="1" stop-color="rgb(19.549561%, 69.342041%, 58.045959%)" offset="0.078125"/><stop stop-opacity="1" stop-color="rgb(19.841003%, 69.297791%, 57.868958%)" offset="0.0820313"/><stop stop-opacity="1" stop-color="rgb(20.132446%, 69.255066%, 57.693481%)" offset="0.0859375"/><stop stop-opacity="1" stop-color="rgb(20.422363%, 69.212341%, 57.516479%)" offset="0.0898438"/><stop stop-opacity="1" stop-color="rgb(20.713806%, 69.169617%, 57.341003%)" offset="0.09375"/><stop stop-opacity="1" stop-color="rgb(21.003723%, 69.126892%, 57.164001%)" offset="0.0976562"/><stop stop-opacity="1" stop-color="rgb(21.295166%, 69.084167%, 56.988525%)" offset="0.101562"/><stop stop-opacity="1" stop-color="rgb(21.586609%, 69.041443%, 56.813049%)" offset="0.105469"/><stop stop-opacity="1" stop-color="rgb(21.878052%, 68.998718%, 56.637573%)" offset="0.109375"/><stop stop-opacity="1" stop-color="rgb(22.167969%, 68.955994%, 56.460571%)" offset="0.113281"/><stop stop-opacity="1" stop-color="rgb(22.459412%, 68.913269%, 56.285095%)" offset="0.117187"/><stop stop-opacity="1" stop-color="rgb(22.750854%, 68.869019%, 56.108093%)" offset="0.121094"/><stop stop-opacity="1" stop-color="rgb(23.042297%, 68.826294%, 55.932617%)" offset="0.125"/><stop stop-opacity="1" stop-color="rgb(23.332214%, 68.783569%, 55.755615%)" offset="0.128906"/><stop stop-opacity="1" stop-color="rgb(23.623657%, 68.740845%, 55.580139%)" offset="0.132812"/><stop stop-opacity="1" stop-color="rgb(23.9151%, 68.69812%, 55.403137%)" offset="0.136719"/><stop stop-opacity="1" stop-color="rgb(24.206543%, 68.655396%, 55.227661%)" offset="0.140625"/><stop stop-opacity="1" stop-color="rgb(24.49646%, 68.612671%, 55.050659%)" offset="0.144531"/><stop stop-opacity="1" stop-color="rgb(24.787903%, 68.569946%, 54.875183%)" offset="0.148438"/><stop stop-opacity="1" stop-color="rgb(25.079346%, 68.527222%, 54.698181%)" offset="0.152344"/><stop stop-opacity="1" stop-color="rgb(25.370789%, 68.484497%, 54.522705%)" offset="0.15625"/><stop stop-opacity="1" stop-color="rgb(25.660706%, 68.440247%, 54.345703%)" offset="0.160156"/><stop stop-opacity="1" stop-color="rgb(25.952148%, 68.397522%, 54.170227%)" offset="0.164063"/><stop stop-opacity="1" stop-color="rgb(26.242065%, 68.354797%, 53.994751%)" offset="0.167969"/><stop stop-opacity="1" stop-color="rgb(26.533508%, 68.312073%, 53.819275%)" offset="0.171875"/><stop stop-opacity="1" stop-color="rgb(26.824951%, 68.269348%, 53.642273%)" offset="0.175781"/><stop stop-opacity="1" stop-color="rgb(27.116394%, 68.226624%, 53.466797%)" offset="0.179688"/><stop stop-opacity="1" stop-color="rgb(27.406311%, 68.183899%, 53.289795%)" offset="0.183594"/><stop stop-opacity="1" stop-color="rgb(27.697754%, 68.141174%, 53.114319%)" offset="0.1875"/><stop stop-opacity="1" stop-color="rgb(27.989197%, 68.096924%, 52.937317%)" offset="0.191406"/><stop stop-opacity="1" stop-color="rgb(28.28064%, 68.054199%, 52.761841%)" offset="0.195312"/><stop stop-opacity="1" stop-color="rgb(28.570557%, 68.011475%, 52.584839%)" offset="0.199219"/><stop stop-opacity="1" stop-color="rgb(28.862%, 67.96875%, 52.409363%)" offset="0.203125"/><stop stop-opacity="1" stop-color="rgb(29.153442%, 67.926025%, 52.232361%)" offset="0.207031"/><stop stop-opacity="1" stop-color="rgb(29.444885%, 67.883301%, 52.056885%)" offset="0.210938"/><stop stop-opacity="1" stop-color="rgb(29.734802%, 67.840576%, 51.879883%)" offset="0.214844"/><stop stop-opacity="1" stop-color="rgb(30.026245%, 67.797852%, 51.704407%)" offset="0.21875"/><stop stop-opacity="1" stop-color="rgb(30.317688%, 67.755127%, 51.527405%)" offset="0.222656"/><stop stop-opacity="1" stop-color="rgb(30.609131%, 67.712402%, 51.351929%)" offset="0.226562"/><stop stop-opacity="1" stop-color="rgb(30.899048%, 67.668152%, 51.174927%)" offset="0.230469"/><stop stop-opacity="1" stop-color="rgb(31.190491%, 67.625427%, 50.999451%)" offset="0.234375"/><stop stop-opacity="1" stop-color="rgb(31.481934%, 67.582703%, 50.823975%)" offset="0.238281"/><stop stop-opacity="1" stop-color="rgb(31.773376%, 67.539978%, 50.648499%)" offset="0.242187"/><stop stop-opacity="1" stop-color="rgb(32.063293%, 67.497253%, 50.471497%)" offset="0.246094"/><stop stop-opacity="1" stop-color="rgb(32.354736%, 67.454529%, 50.296021%)" offset="0.25"/><stop stop-opacity="1" stop-color="rgb(32.644653%, 67.411804%, 50.119019%)" offset="0.253906"/><stop stop-opacity="1" stop-color="rgb(32.936096%, 67.36908%, 49.943542%)" offset="0.257812"/><stop stop-opacity="1" stop-color="rgb(33.227539%, 67.326355%, 49.766541%)" offset="0.261719"/><stop stop-opacity="1" stop-color="rgb(33.518982%, 67.28363%, 49.591064%)" offset="0.265625"/><stop stop-opacity="1" stop-color="rgb(33.808899%, 67.23938%, 49.414062%)" offset="0.269531"/><stop stop-opacity="1" stop-color="rgb(34.100342%, 67.196655%, 49.238586%)" offset="0.273438"/><stop stop-opacity="1" stop-color="rgb(34.391785%, 67.153931%, 49.061584%)" offset="0.277344"/><stop stop-opacity="1" stop-color="rgb(34.683228%, 67.111206%, 48.886108%)" offset="0.28125"/><stop stop-opacity="1" stop-color="rgb(34.973145%, 67.068481%, 48.709106%)" offset="0.285156"/><stop stop-opacity="1" stop-color="rgb(35.264587%, 67.025757%, 48.53363%)" offset="0.289062"/><stop stop-opacity="1" stop-color="rgb(35.55603%, 66.983032%, 48.356628%)" offset="0.292969"/><stop stop-opacity="1" stop-color="rgb(35.847473%, 66.940308%, 48.181152%)" offset="0.296875"/><stop stop-opacity="1" stop-color="rgb(36.13739%, 66.897583%, 48.00415%)" offset="0.300781"/><stop stop-opacity="1" stop-color="rgb(36.428833%, 66.854858%, 47.828674%)" offset="0.304688"/><stop stop-opacity="1" stop-color="rgb(36.720276%, 66.810608%, 47.653198%)" offset="0.308594"/><stop stop-opacity="1" stop-color="rgb(37.011719%, 66.767883%, 47.477722%)" offset="0.3125"/><stop stop-opacity="1" stop-color="rgb(37.301636%, 66.725159%, 47.30072%)" offset="0.316406"/><stop stop-opacity="1" stop-color="rgb(37.593079%, 66.682434%, 47.125244%)" offset="0.320313"/><stop stop-opacity="1" stop-color="rgb(37.882996%, 66.639709%, 46.948242%)" offset="0.324219"/><stop stop-opacity="1" stop-color="rgb(38.174438%, 66.596985%, 46.772766%)" offset="0.328125"/><stop stop-opacity="1" stop-color="rgb(38.465881%, 66.55426%, 46.595764%)" offset="0.332031"/><stop stop-opacity="1" stop-color="rgb(38.757324%, 66.511536%, 46.420288%)" offset="0.335938"/><stop stop-opacity="1" stop-color="rgb(39.047241%, 66.467285%, 46.243286%)" offset="0.339844"/><stop stop-opacity="1" stop-color="rgb(39.338684%, 66.424561%, 46.06781%)" offset="0.34375"/><stop stop-opacity="1" stop-color="rgb(39.630127%, 66.381836%, 45.890808%)" offset="0.347656"/><stop stop-opacity="1" stop-color="rgb(39.92157%, 66.339111%, 45.715332%)" offset="0.351562"/><stop stop-opacity="1" stop-color="rgb(40.211487%, 66.296387%, 45.53833%)" offset="0.355469"/><stop stop-opacity="1" stop-color="rgb(40.50293%, 66.253662%, 45.362854%)" offset="0.359375"/><stop stop-opacity="1" stop-color="rgb(40.794373%, 66.210938%, 45.185852%)" offset="0.363281"/><stop stop-opacity="1" stop-color="rgb(41.085815%, 66.168213%, 45.010376%)" offset="0.367188"/><stop stop-opacity="1" stop-color="rgb(41.375732%, 66.125488%, 44.833374%)" offset="0.371094"/><stop stop-opacity="1" stop-color="rgb(41.667175%, 66.082764%, 44.657898%)" offset="0.375"/><stop stop-opacity="1" stop-color="rgb(41.958618%, 66.038513%, 44.482422%)" offset="0.378906"/><stop stop-opacity="1" stop-color="rgb(42.250061%, 65.995789%, 44.306946%)" offset="0.382812"/><stop stop-opacity="1" stop-color="rgb(42.539978%, 65.953064%, 44.129944%)" offset="0.386719"/><stop stop-opacity="1" stop-color="rgb(42.831421%, 65.910339%, 43.954468%)" offset="0.390625"/><stop stop-opacity="1" stop-color="rgb(43.122864%, 65.867615%, 43.777466%)" offset="0.394531"/><stop stop-opacity="1" stop-color="rgb(43.414307%, 65.82489%, 43.60199%)" offset="0.398438"/><stop stop-opacity="1" stop-color="rgb(43.704224%, 65.782166%, 43.424988%)" offset="0.402344"/><stop stop-opacity="1" stop-color="rgb(43.995667%, 65.739441%, 43.249512%)" offset="0.40625"/><stop stop-opacity="1" stop-color="rgb(44.285583%, 65.696716%, 43.07251%)" offset="0.410156"/><stop stop-opacity="1" stop-color="rgb(44.577026%, 65.653992%, 42.897034%)" offset="0.414062"/><stop stop-opacity="1" stop-color="rgb(44.868469%, 65.609741%, 42.720032%)" offset="0.417969"/><stop stop-opacity="1" stop-color="rgb(45.159912%, 65.567017%, 42.544556%)" offset="0.421875"/><stop stop-opacity="1" stop-color="rgb(45.449829%, 65.524292%, 42.367554%)" offset="0.425781"/><stop stop-opacity="1" stop-color="rgb(45.741272%, 65.481567%, 42.192078%)" offset="0.429688"/><stop stop-opacity="1" stop-color="rgb(46.032715%, 65.438843%, 42.015076%)" offset="0.433594"/><stop stop-opacity="1" stop-color="rgb(46.324158%, 65.396118%, 41.8396%)" offset="0.4375"/><stop stop-opacity="1" stop-color="rgb(46.614075%, 65.353394%, 41.662598%)" offset="0.441406"/><stop stop-opacity="1" stop-color="rgb(46.905518%, 65.310669%, 41.487122%)" offset="0.445312"/><stop stop-opacity="1" stop-color="rgb(47.19696%, 65.267944%, 41.311646%)" offset="0.449219"/><stop stop-opacity="1" stop-color="rgb(47.488403%, 65.22522%, 41.136169%)" offset="0.453125"/><stop stop-opacity="1" stop-color="rgb(47.77832%, 65.180969%, 40.959167%)" offset="0.457031"/><stop stop-opacity="1" stop-color="rgb(48.069763%, 65.138245%, 40.783691%)" offset="0.460937"/><stop stop-opacity="1" stop-color="rgb(48.361206%, 65.09552%, 40.606689%)" offset="0.464844"/><stop stop-opacity="1" stop-color="rgb(48.652649%, 65.052795%, 40.431213%)" offset="0.46875"/><stop stop-opacity="1" stop-color="rgb(48.942566%, 65.010071%, 40.254211%)" offset="0.472656"/><stop stop-opacity="1" stop-color="rgb(49.234009%, 64.967346%, 40.078735%)" offset="0.476562"/><stop stop-opacity="1" stop-color="rgb(49.523926%, 64.924622%, 39.901733%)" offset="0.480469"/><stop stop-opacity="1" stop-color="rgb(49.815369%, 64.881897%, 39.726257%)" offset="0.484375"/><stop stop-opacity="1" stop-color="rgb(50.106812%, 64.837646%, 39.549255%)" offset="0.488281"/><stop stop-opacity="1" stop-color="rgb(50.398254%, 64.794922%, 39.373779%)" offset="0.492187"/><stop stop-opacity="1" stop-color="rgb(50.688171%, 64.752197%, 39.196777%)" offset="0.496094"/><stop stop-opacity="1" stop-color="rgb(50.979614%, 64.709473%, 39.021301%)" offset="0.5"/><stop stop-opacity="1" stop-color="rgb(51.271057%, 64.666748%, 38.844299%)" offset="0.503906"/><stop stop-opacity="1" stop-color="rgb(51.5625%, 64.624023%, 38.668823%)" offset="0.507812"/><stop stop-opacity="1" stop-color="rgb(51.852417%, 64.581299%, 38.491821%)" offset="0.511719"/><stop stop-opacity="1" stop-color="rgb(52.14386%, 64.538574%, 38.316345%)" offset="0.515625"/><stop stop-opacity="1" stop-color="rgb(52.435303%, 64.49585%, 38.140869%)" offset="0.519531"/><stop stop-opacity="1" stop-color="rgb(52.726746%, 64.453125%, 37.965393%)" offset="0.523438"/><stop stop-opacity="1" stop-color="rgb(53.016663%, 64.408875%, 37.788391%)" offset="0.527344"/><stop stop-opacity="1" stop-color="rgb(53.308105%, 64.36615%, 37.612915%)" offset="0.53125"/><stop stop-opacity="1" stop-color="rgb(53.599548%, 64.323425%, 37.435913%)" offset="0.535156"/><stop stop-opacity="1" stop-color="rgb(53.890991%, 64.280701%, 37.260437%)" offset="0.539062"/><stop stop-opacity="1" stop-color="rgb(54.180908%, 64.237976%, 37.083435%)" offset="0.542969"/><stop stop-opacity="1" stop-color="rgb(54.472351%, 64.195251%, 36.907959%)" offset="0.546875"/><stop stop-opacity="1" stop-color="rgb(54.763794%, 64.152527%, 36.730957%)" offset="0.550781"/><stop stop-opacity="1" stop-color="rgb(55.055237%, 64.109802%, 36.555481%)" offset="0.554688"/><stop stop-opacity="1" stop-color="rgb(55.345154%, 64.067078%, 36.378479%)" offset="0.558594"/><stop stop-opacity="1" stop-color="rgb(55.636597%, 64.024353%, 36.203003%)" offset="0.5625"/><stop stop-opacity="1" stop-color="rgb(55.926514%, 63.980103%, 36.026001%)" offset="0.566406"/><stop stop-opacity="1" stop-color="rgb(56.217957%, 63.937378%, 35.850525%)" offset="0.570312"/><stop stop-opacity="1" stop-color="rgb(56.509399%, 63.894653%, 35.673523%)" offset="0.574219"/><stop stop-opacity="1" stop-color="rgb(56.800842%, 63.851929%, 35.498047%)" offset="0.578125"/><stop stop-opacity="1" stop-color="rgb(57.090759%, 63.809204%, 35.322571%)" offset="0.582031"/><stop stop-opacity="1" stop-color="rgb(57.382202%, 63.766479%, 35.147095%)" offset="0.585938"/><stop stop-opacity="1" stop-color="rgb(57.673645%, 63.723755%, 34.970093%)" offset="0.589844"/><stop stop-opacity="1" stop-color="rgb(57.965088%, 63.68103%, 34.794617%)" offset="0.59375"/><stop stop-opacity="1" stop-color="rgb(58.255005%, 63.63678%, 34.617615%)" offset="0.597656"/><stop stop-opacity="1" stop-color="rgb(58.546448%, 63.594055%, 34.442139%)" offset="0.601562"/><stop stop-opacity="1" stop-color="rgb(58.837891%, 63.551331%, 34.265137%)" offset="0.605469"/><stop stop-opacity="1" stop-color="rgb(59.129333%, 63.508606%, 34.089661%)" offset="0.609375"/><stop stop-opacity="1" stop-color="rgb(59.41925%, 63.465881%, 33.912659%)" offset="0.613281"/><stop stop-opacity="1" stop-color="rgb(59.710693%, 63.423157%, 33.737183%)" offset="0.617188"/><stop stop-opacity="1" stop-color="rgb(60.002136%, 63.380432%, 33.560181%)" offset="0.621094"/><stop stop-opacity="1" stop-color="rgb(60.293579%, 63.337708%, 33.384705%)" offset="0.625"/><stop stop-opacity="1" stop-color="rgb(60.583496%, 63.294983%, 33.207703%)" offset="0.628906"/><stop stop-opacity="1" stop-color="rgb(60.874939%, 63.252258%, 33.032227%)" offset="0.632813"/><stop stop-opacity="1" stop-color="rgb(61.164856%, 63.208008%, 32.855225%)" offset="0.636719"/><stop stop-opacity="1" stop-color="rgb(61.456299%, 63.165283%, 32.679749%)" offset="0.640625"/><stop stop-opacity="1" stop-color="rgb(61.747742%, 63.122559%, 32.502747%)" offset="0.644531"/><stop stop-opacity="1" stop-color="rgb(62.039185%, 63.079834%, 32.327271%)" offset="0.648438"/><stop stop-opacity="1" stop-color="rgb(62.329102%, 63.037109%, 32.151794%)" offset="0.652344"/><stop stop-opacity="1" stop-color="rgb(62.620544%, 62.994385%, 31.976318%)" offset="0.65625"/><stop stop-opacity="1" stop-color="rgb(62.911987%, 62.95166%, 31.799316%)" offset="0.660156"/><stop stop-opacity="1" stop-color="rgb(63.20343%, 62.908936%, 31.62384%)" offset="0.664063"/><stop stop-opacity="1" stop-color="rgb(63.493347%, 62.866211%, 31.446838%)" offset="0.667969"/><stop stop-opacity="1" stop-color="rgb(63.78479%, 62.823486%, 31.271362%)" offset="0.671875"/><stop stop-opacity="1" stop-color="rgb(64.076233%, 62.779236%, 31.09436%)" offset="0.675781"/><stop stop-opacity="1" stop-color="rgb(64.367676%, 62.736511%, 30.918884%)" offset="0.679688"/><stop stop-opacity="1" stop-color="rgb(64.657593%, 62.693787%, 30.741882%)" offset="0.683594"/><stop stop-opacity="1" stop-color="rgb(64.949036%, 62.651062%, 30.566406%)" offset="0.6875"/><stop stop-opacity="1" stop-color="rgb(65.240479%, 62.608337%, 30.389404%)" offset="0.691406"/><stop stop-opacity="1" stop-color="rgb(65.531921%, 62.565613%, 30.213928%)" offset="0.695313"/><stop stop-opacity="1" stop-color="rgb(65.821838%, 62.522888%, 30.036926%)" offset="0.699219"/><stop stop-opacity="1" stop-color="rgb(66.113281%, 62.480164%, 29.86145%)" offset="0.703125"/><stop stop-opacity="1" stop-color="rgb(66.404724%, 62.437439%, 29.684448%)" offset="0.707031"/><stop stop-opacity="1" stop-color="rgb(66.696167%, 62.394714%, 29.508972%)" offset="0.710938"/><stop stop-opacity="1" stop-color="rgb(66.986084%, 62.350464%, 29.33197%)" offset="0.714844"/><stop stop-opacity="1" stop-color="rgb(67.277527%, 62.307739%, 29.156494%)" offset="0.71875"/><stop stop-opacity="1" stop-color="rgb(67.567444%, 62.265015%, 28.981018%)" offset="0.722656"/><stop stop-opacity="1" stop-color="rgb(67.858887%, 62.22229%, 28.805542%)" offset="0.726562"/><stop stop-opacity="1" stop-color="rgb(68.15033%, 62.179565%, 28.62854%)" offset="0.730469"/><stop stop-opacity="1" stop-color="rgb(68.441772%, 62.136841%, 28.453064%)" offset="0.734375"/><stop stop-opacity="1" stop-color="rgb(68.731689%, 62.094116%, 28.276062%)" offset="0.738281"/><stop stop-opacity="1" stop-color="rgb(69.023132%, 62.051392%, 28.100586%)" offset="0.742188"/><stop stop-opacity="1" stop-color="rgb(69.314575%, 62.007141%, 27.923584%)" offset="0.746094"/><stop stop-opacity="1" stop-color="rgb(69.606018%, 61.964417%, 27.748108%)" offset="0.75"/><stop stop-opacity="1" stop-color="rgb(69.895935%, 61.921692%, 27.571106%)" offset="0.753906"/><stop stop-opacity="1" stop-color="rgb(70.187378%, 61.878967%, 27.39563%)" offset="0.757812"/><stop stop-opacity="1" stop-color="rgb(70.478821%, 61.836243%, 27.218628%)" offset="0.761719"/><stop stop-opacity="1" stop-color="rgb(70.770264%, 61.793518%, 27.043152%)" offset="0.765625"/><stop stop-opacity="1" stop-color="rgb(71.060181%, 61.750793%, 26.86615%)" offset="0.769531"/><stop stop-opacity="1" stop-color="rgb(71.351624%, 61.708069%, 26.690674%)" offset="0.773438"/><stop stop-opacity="1" stop-color="rgb(71.643066%, 61.665344%, 26.513672%)" offset="0.777344"/><stop stop-opacity="1" stop-color="rgb(71.934509%, 61.62262%, 26.338196%)" offset="0.78125"/><stop stop-opacity="1" stop-color="rgb(72.224426%, 61.578369%, 26.161194%)" offset="0.785156"/><stop stop-opacity="1" stop-color="rgb(72.515869%, 61.535645%, 25.985718%)" offset="0.789062"/><stop stop-opacity="1" stop-color="rgb(72.805786%, 61.49292%, 25.810242%)" offset="0.792969"/><stop stop-opacity="1" stop-color="rgb(73.097229%, 61.450195%, 25.634766%)" offset="0.796875"/><stop stop-opacity="1" stop-color="rgb(73.388672%, 61.407471%, 25.457764%)" offset="0.800781"/><stop stop-opacity="1" stop-color="rgb(73.680115%, 61.364746%, 25.282288%)" offset="0.804688"/><stop stop-opacity="1" stop-color="rgb(73.970032%, 61.322021%, 25.105286%)" offset="0.808594"/><stop stop-opacity="1" stop-color="rgb(74.261475%, 61.279297%, 24.92981%)" offset="0.8125"/><stop stop-opacity="1" stop-color="rgb(74.552917%, 61.236572%, 24.752808%)" offset="0.816406"/><stop stop-opacity="1" stop-color="rgb(74.84436%, 61.193848%, 24.577332%)" offset="0.820312"/><stop stop-opacity="1" stop-color="rgb(75.134277%, 61.149597%, 24.40033%)" offset="0.824219"/><stop stop-opacity="1" stop-color="rgb(75.42572%, 61.106873%, 24.224854%)" offset="0.828125"/><stop stop-opacity="1" stop-color="rgb(75.717163%, 61.064148%, 24.047852%)" offset="0.832031"/><stop stop-opacity="1" stop-color="rgb(76.008606%, 61.021423%, 23.872375%)" offset="0.835938"/><stop stop-opacity="1" stop-color="rgb(76.298523%, 60.978699%, 23.695374%)" offset="0.839844"/><stop stop-opacity="1" stop-color="rgb(76.589966%, 60.935974%, 23.519897%)" offset="0.84375"/><stop stop-opacity="1" stop-color="rgb(76.881409%, 60.89325%, 23.342896%)" offset="0.847656"/><stop stop-opacity="1" stop-color="rgb(77.172852%, 60.850525%, 23.167419%)" offset="0.851562"/><stop stop-opacity="1" stop-color="rgb(77.462769%, 60.8078%, 22.990417%)" offset="0.855469"/><stop stop-opacity="1" stop-color="rgb(77.754211%, 60.765076%, 22.814941%)" offset="0.859375"/><stop stop-opacity="1" stop-color="rgb(78.045654%, 60.720825%, 22.639465%)" offset="0.863281"/><stop stop-opacity="1" stop-color="rgb(78.337097%, 60.678101%, 22.463989%)" offset="0.867188"/><stop stop-opacity="1" stop-color="rgb(78.627014%, 60.635376%, 22.286987%)" offset="0.871094"/><stop stop-opacity="1" stop-color="rgb(78.918457%, 60.592651%, 22.111511%)" offset="0.875"/><stop stop-opacity="1" stop-color="rgb(79.208374%, 60.549927%, 21.934509%)" offset="0.878906"/><stop stop-opacity="1" stop-color="rgb(79.499817%, 60.507202%, 21.759033%)" offset="0.882812"/><stop stop-opacity="1" stop-color="rgb(79.79126%, 60.464478%, 21.582031%)" offset="0.886719"/><stop stop-opacity="1" stop-color="rgb(80.082703%, 60.421753%, 21.406555%)" offset="0.890625"/><stop stop-opacity="1" stop-color="rgb(80.37262%, 60.377502%, 21.229553%)" offset="0.894531"/><stop stop-opacity="1" stop-color="rgb(80.664062%, 60.334778%, 21.054077%)" offset="0.898438"/><stop stop-opacity="1" stop-color="rgb(80.955505%, 60.292053%, 20.877075%)" offset="0.902344"/><stop stop-opacity="1" stop-color="rgb(81.246948%, 60.249329%, 20.701599%)" offset="0.90625"/><stop stop-opacity="1" stop-color="rgb(81.536865%, 60.206604%, 20.524597%)" offset="0.910156"/><stop stop-opacity="1" stop-color="rgb(81.828308%, 60.163879%, 20.349121%)" offset="0.914062"/><stop stop-opacity="1" stop-color="rgb(82.119751%, 60.121155%, 20.172119%)" offset="0.917969"/><stop stop-opacity="1" stop-color="rgb(82.411194%, 60.07843%, 19.996643%)" offset="0.921875"/><stop stop-opacity="1" stop-color="rgb(82.701111%, 60.035706%, 19.819641%)" offset="0.925781"/><stop stop-opacity="1" stop-color="rgb(82.992554%, 59.992981%, 19.644165%)" offset="0.929687"/><stop stop-opacity="1" stop-color="rgb(83.283997%, 59.94873%, 19.468689%)" offset="0.933594"/><stop stop-opacity="1" stop-color="rgb(83.575439%, 59.906006%, 19.293213%)" offset="0.9375"/><stop stop-opacity="1" stop-color="rgb(83.865356%, 59.863281%, 19.116211%)" offset="0.941406"/><stop stop-opacity="1" stop-color="rgb(84.156799%, 59.820557%, 18.940735%)" offset="0.945312"/><stop stop-opacity="1" stop-color="rgb(84.446716%, 59.777832%, 18.763733%)" offset="0.949219"/><stop stop-opacity="1" stop-color="rgb(84.738159%, 59.735107%, 18.588257%)" offset="0.953125"/><stop stop-opacity="1" stop-color="rgb(85.029602%, 59.692383%, 18.411255%)" offset="0.957031"/><stop stop-opacity="1" stop-color="rgb(85.321045%, 59.649658%, 18.235779%)" offset="0.960937"/><stop stop-opacity="1" stop-color="rgb(85.610962%, 59.606934%, 18.058777%)" offset="0.964844"/><stop stop-opacity="1" stop-color="rgb(85.902405%, 59.564209%, 17.883301%)" offset="0.96875"/><stop stop-opacity="1" stop-color="rgb(86.193848%, 59.519958%, 17.706299%)" offset="0.972656"/><stop stop-opacity="1" stop-color="rgb(86.485291%, 59.477234%, 17.530823%)" offset="0.976562"/><stop stop-opacity="1" stop-color="rgb(86.775208%, 59.434509%, 17.353821%)" offset="0.980469"/><stop stop-opacity="1" stop-color="rgb(87.06665%, 59.391785%, 17.178345%)" offset="0.984375"/><stop stop-opacity="1" stop-color="rgb(87.358093%, 59.34906%, 17.001343%)" offset="0.988281"/><stop stop-opacity="1" stop-color="rgb(87.649536%, 59.306335%, 16.825867%)" offset="0.992187"/><stop stop-opacity="1" stop-color="rgb(87.939453%, 59.263611%, 16.648865%)" offset="0.996094"/><stop stop-opacity="1" stop-color="rgb(88.230896%, 59.220886%, 16.473389%)" offset="1"/></linearGradient></defs><g clip-path="url(#c719d9c97f)"><path fill="#ffffff" d="M 0.683594 0 L 824.199219 0 L 824.199219 277 L 0.683594 277 Z M 0.683594 0 " fill-opacity="1" fill-rule="nonzero"/><path fill="url(#357d2c187c)" d="M 0.683594 0 L 0.683594 277 L 824.078125 277 L 824.078125 0 Z M 0.683594 0 " fill-rule="nonzero"/></g><path fill="#ffffff" d="M 40.914062 58.671875 C 40.925781 54.664062 41.84375 50.875 43.667969 47.308594 C 45.507812 43.609375 47.953125 40.363281 51 37.574219 C 54.058594 34.777344 57.480469 32.53125 61.261719 30.835938 C 64.804688 29.175781 68.527344 28.316406 72.441406 28.269531 L 101.75 28.269531 C 120.808594 28.269531 137.425781 31.445312 151.59375 37.800781 C 165.765625 44.152344 177.554688 52.582031 186.96875 63.089844 C 191.628906 68.273438 195.75 73.855469 199.324219 79.835938 C 202.902344 85.820312 205.871094 92.089844 208.230469 98.648438 C 213.007812 111.792969 215.390625 125.355469 215.378906 139.339844 C 215.394531 153.046875 213.132812 166.367188 208.597656 179.300781 C 206.390625 185.683594 203.558594 191.773438 200.101562 197.574219 C 196.644531 203.375 192.632812 208.765625 188.070312 213.738281 C 178.90625 223.773438 167.542969 231.898438 153.976562 238.125 C 140.410156 244.347656 124.585938 247.464844 106.503906 247.472656 L 72.441406 247.472656 C 62.914062 247.472656 55.277344 244.730469 49.53125 239.238281 C 43.785156 233.75 40.914062 226.347656 40.914062 217.035156 Z M 106.902344 186.609375 C 114.972656 186.609375 121.996094 185.140625 127.976562 182.207031 C 133.792969 179.421875 138.867188 175.632812 143.1875 170.84375 C 147.382812 166.164062 150.496094 160.851562 152.53125 154.902344 C 154.621094 148.910156 155.660156 142.738281 155.652344 136.390625 C 155.652344 130.484375 154.671875 124.742188 152.71875 119.171875 C 150.792969 113.570312 147.800781 108.621094 143.734375 104.316406 C 139.335938 99.753906 134.207031 96.261719 128.347656 93.835938 C 122.09375 91.171875 114.820312 89.839844 106.527344 89.839844 L 101.40625 89.839844 L 101.40625 186.609375 Z M 106.902344 186.609375 " fill-opacity="1" fill-rule="nonzero"/><path fill="#ffffff" d="M 265.988281 247.460938 C 245.949219 247.460938 235.933594 237.316406 235.9375 217.035156 L 235.9375 58.671875 C 235.9375 38.386719 245.953125 28.246094 265.988281 28.246094 L 368.636719 28.246094 C 378.167969 28.246094 385.625 31.242188 391 37.230469 C 392.316406 38.683594 393.488281 40.246094 394.511719 41.917969 C 395.53125 43.589844 396.390625 45.34375 397.078125 47.179688 C 397.769531 49.015625 398.28125 50.898438 398.613281 52.832031 C 398.949219 54.765625 399.097656 56.710938 399.0625 58.671875 C 399.097656 60.632812 398.945312 62.578125 398.613281 64.507812 C 398.28125 66.441406 397.769531 68.324219 397.078125 70.160156 C 396.386719 71.992188 395.53125 73.746094 394.507812 75.421875 C 393.488281 77.09375 392.316406 78.65625 391 80.105469 C 385.613281 86.09375 378.160156 89.089844 368.636719 89.089844 L 296.054688 89.089844 L 296.054688 107.417969 L 353.976562 107.417969 C 363.5 107.417969 370.953125 110.410156 376.332031 116.398438 C 376.976562 117.132812 377.585938 117.894531 378.160156 118.683594 C 378.734375 119.472656 379.273438 120.285156 379.777344 121.125 C 380.277344 121.960938 380.742188 122.820312 381.164062 123.699219 C 381.589844 124.578125 381.972656 125.476562 382.316406 126.390625 C 382.660156 127.300781 382.964844 128.230469 383.222656 129.171875 C 383.484375 130.113281 383.703125 131.0625 383.878906 132.023438 C 384.050781 132.984375 384.183594 133.949219 384.269531 134.921875 C 384.359375 135.894531 384.402344 136.867188 384.402344 137.84375 C 384.402344 138.820312 384.359375 139.796875 384.269531 140.769531 C 384.183594 141.742188 384.050781 142.707031 383.878906 143.667969 C 383.703125 144.628906 383.484375 145.578125 383.222656 146.519531 C 382.964844 147.460938 382.660156 148.386719 382.316406 149.300781 C 381.972656 150.214844 381.589844 151.113281 381.164062 151.992188 C 380.742188 152.871094 380.277344 153.730469 379.777344 154.566406 C 379.273438 155.402344 378.734375 156.21875 378.160156 157.007812 C 377.585938 157.792969 376.976562 158.554688 376.332031 159.289062 C 370.957031 165.28125 363.503906 168.273438 353.976562 168.273438 L 296.054688 168.273438 L 296.054688 186.601562 L 368.636719 186.601562 C 378.167969 186.601562 385.625 189.597656 391 195.585938 C 391.640625 196.320312 392.25 197.082031 392.824219 197.871094 C 393.398438 198.660156 393.9375 199.472656 394.4375 200.308594 C 394.941406 201.148438 395.402344 202.007812 395.828125 202.886719 C 396.25 203.765625 396.636719 204.660156 396.980469 205.574219 C 397.324219 206.488281 397.625 207.414062 397.882812 208.355469 C 398.144531 209.296875 398.363281 210.25 398.535156 211.207031 C 398.710938 212.167969 398.84375 213.136719 398.929688 214.109375 C 399.015625 215.078125 399.0625 216.054688 399.0625 217.03125 C 399.0625 218.007812 399.015625 218.980469 398.929688 219.953125 C 398.84375 220.925781 398.710938 221.890625 398.535156 222.851562 C 398.363281 223.8125 398.144531 224.761719 397.882812 225.703125 C 397.625 226.644531 397.324219 227.570312 396.980469 228.484375 C 396.636719 229.398438 396.25 230.296875 395.828125 231.175781 C 395.402344 232.054688 394.941406 232.914062 394.4375 233.75 C 393.9375 234.585938 393.398438 235.402344 392.824219 236.191406 C 392.25 236.980469 391.640625 237.742188 391 238.476562 C 385.613281 244.464844 378.160156 247.460938 368.636719 247.460938 Z M 265.988281 247.460938 " fill-opacity="1" fill-rule="nonzero"/><path fill="#ffffff" d="M 484.101562 217.035156 C 484.101562 226.820312 481.105469 234.277344 475.117188 239.402344 C 469.128906 244.53125 461.980469 247.09375 453.675781 247.09375 C 451.757812 247.121094 449.855469 246.976562 447.964844 246.660156 C 446.074219 246.339844 444.230469 245.851562 442.425781 245.195312 C 440.625 244.539062 438.898438 243.722656 437.25 242.75 C 435.597656 241.777344 434.046875 240.660156 432.601562 239.402344 C 426.613281 234.269531 423.617188 226.8125 423.617188 217.035156 L 423.617188 58.671875 C 423.617188 48.898438 426.613281 41.445312 432.601562 36.308594 C 434.046875 35.050781 435.597656 33.933594 437.246094 32.960938 C 438.898438 31.984375 440.625 31.167969 442.425781 30.511719 C 444.226562 29.851562 446.074219 29.363281 447.964844 29.046875 C 449.855469 28.726562 451.757812 28.582031 453.675781 28.613281 L 455.171875 28.613281 C 465.933594 28.613281 473.628906 33.136719 478.261719 42.179688 L 533.25 125.390625 L 533.25 58.671875 C 533.25 48.898438 536.246094 41.445312 542.234375 36.308594 C 543.679688 35.050781 545.230469 33.933594 546.882812 32.960938 C 548.535156 31.984375 550.261719 31.167969 552.0625 30.511719 C 553.863281 29.855469 555.710938 29.367188 557.601562 29.046875 C 559.492188 28.726562 561.398438 28.582031 563.316406 28.613281 C 571.625 28.613281 578.773438 31.179688 584.765625 36.308594 C 590.753906 41.441406 593.75 48.894531 593.75 58.671875 L 593.75 217.035156 C 593.75 226.820312 590.753906 234.277344 584.765625 239.402344 C 578.773438 244.53125 571.625 247.09375 563.316406 247.09375 C 559.695312 247.175781 556.148438 246.6875 552.683594 245.632812 C 550.007812 244.777344 547.515625 243.554688 545.199219 241.964844 C 543.355469 240.714844 541.703125 239.25 540.242188 237.570312 C 539.015625 236.070312 538.042969 234.882812 537.316406 233.902344 L 484.160156 154.722656 Z M 484.101562 217.035156 " fill-opacity="1" fill-rule="nonzero"/><path fill="#ffffff" d="M 679.484375 217.035156 C 679.484375 226.820312 676.488281 234.277344 670.5 239.402344 C 669.054688 240.660156 667.503906 241.777344 665.851562 242.75 C 664.199219 243.726562 662.476562 244.539062 660.675781 245.199219 C 658.871094 245.855469 657.027344 246.34375 655.136719 246.660156 C 653.246094 246.980469 651.34375 247.121094 649.425781 247.09375 C 641.117188 247.09375 633.96875 244.53125 627.984375 239.402344 C 622 234.277344 619.003906 226.820312 619 217.035156 L 619 58.671875 C 619 48.898438 621.996094 41.445312 627.984375 36.308594 C 633.972656 31.175781 641.121094 28.609375 649.425781 28.613281 C 651.34375 28.582031 653.246094 28.726562 655.136719 29.046875 C 657.027344 29.363281 658.875 29.851562 660.675781 30.511719 C 662.476562 31.167969 664.203125 31.984375 665.855469 32.957031 C 667.503906 33.933594 669.054688 35.050781 670.5 36.308594 C 676.488281 41.445312 679.484375 48.898438 679.484375 58.671875 L 679.484375 108.898438 L 728.609375 38.878906 C 731.6875 35.476562 735.230469 32.667969 739.242188 30.449219 C 743.273438 28.390625 747.550781 27.410156 752.074219 27.511719 C 756.230469 27.507812 760.199219 28.363281 763.984375 30.082031 C 767.6875 31.746094 771.039062 33.949219 774.039062 36.683594 C 777.03125 39.449219 779.351562 42.691406 781 46.417969 C 781.566406 47.640625 782.039062 48.902344 782.417969 50.195312 C 782.800781 51.488281 783.089844 52.800781 783.28125 54.136719 C 783.472656 55.472656 783.570312 56.8125 783.570312 58.160156 C 783.570312 59.507812 783.472656 60.851562 783.277344 62.1875 C 783.082031 63.519531 782.796875 64.832031 782.410156 66.125 C 782.027344 67.417969 781.554688 68.679688 780.988281 69.902344 C 780.425781 71.128906 779.777344 72.304688 779.042969 73.4375 C 778.308594 74.566406 777.496094 75.640625 776.605469 76.65625 L 723.128906 136.757812 L 776.660156 197.972656 C 777.832031 199.265625 778.875 200.65625 779.789062 202.144531 C 780.703125 203.632812 781.476562 205.191406 782.101562 206.820312 C 782.726562 208.449219 783.199219 210.121094 783.515625 211.839844 C 783.835938 213.554688 783.992188 215.289062 783.988281 217.035156 C 784.011719 221.164062 783.09375 225.074219 781.242188 228.765625 C 779.4375 232.390625 777.035156 235.570312 774.039062 238.296875 C 771.035156 241.042969 767.671875 243.242188 763.953125 244.898438 C 760.292969 246.59375 756.445312 247.449219 752.410156 247.464844 C 743.117188 247.464844 735.296875 243.554688 728.949219 235.734375 L 679.484375 166.8125 Z M 679.484375 217.035156 " fill-opacity="1" fill-rule="nonzero"/></svg>