<svg xmlns="http://www.w3.org/2000/svg" xmlns:xlink="http://www.w3.org/1999/xlink" width="2000" zoomAndPan="magnify" viewBox="0 0 1500 1499.999933" height="2000" preserveAspectRatio="xMidYMid meet" version="1.0"><path fill="#00743c" d="M 815.871094 1440.777344 C 831.199219 1439.292969 845.625 1445.761719 859.398438 1440.777344 C 862.644531 1439.585938 869.589844 1439.246094 871.753906 1437.488281 C 877.386719 1436.945312 879.734375 1436.585938 881.128906 1432.980469 L 891.542969 1431.558594 L 892.875 1432.980469 C 900.644531 1431.402344 908.414062 1429.800781 916.183594 1428.179688 C 936.042969 1424.4375 959.9375 1422.113281 976.890625 1416.1875 C 979.683594 1415.214844 993.277344 1411.949219 995.285156 1412.058594 C 996.972656 1412.152344 1001.144531 1412.375 1003.578125 1411.472656 C 1007.050781 1410.1875 1012.460938 1408.996094 1015.300781 1407.730469 L 1020.757812 1406.964844 L 1020.597656 1405.929688 L 1022.71875 1405.09375 C 1024.160156 1404.871094 1024.136719 1406.199219 1025.152344 1406.378906 C 1026.460938 1406.605469 1033.019531 1405.367188 1033.335938 1405.253906 C 1043.277344 1401.554688 1053.171875 1396.640625 1062.753906 1392.675781 C 1070.914062 1389.316406 1077.5625 1389.339844 1084.550781 1385.460938 C 1089.9375 1382.441406 1093.523438 1377.976562 1098.007812 1374.503906 C 1105.515625 1368.734375 1114.351562 1365.128906 1121.382812 1358.972656 L 1124.113281 1354.871094 C 1129.183594 1350.589844 1135.832031 1348.605469 1141.019531 1344.5 C 1144.039062 1342.136719 1147.601562 1339.542969 1150.484375 1336.816406 C 1150.980469 1336.320312 1150.847656 1334.964844 1151.273438 1334.5625 C 1152.605469 1333.207031 1152.941406 1335.054688 1154.542969 1334.109375 L 1156.4375 1331.699219 L 1164.640625 1326.828125 C 1167.683594 1324.394531 1170.277344 1320.585938 1173.410156 1318.148438 C 1176.207031 1315.964844 1180.21875 1315.511719 1182.699219 1313.125 L 1183.464844 1310.867188 C 1184.660156 1309.742188 1186.238281 1310.261719 1187.726562 1309.222656 C 1188.222656 1308.863281 1188.109375 1307.328125 1188.492188 1306.96875 C 1189.910156 1305.730469 1193.179688 1305.324219 1194.757812 1303.972656 C 1197.28125 1301.808594 1199.265625 1298.5625 1202.039062 1296.53125 C 1207.808594 1292.40625 1214.257812 1289.925781 1219.9375 1285.53125 C 1223.273438 1282.9375 1226.40625 1279.289062 1229.789062 1276.695312 C 1232.269531 1274.824219 1234.972656 1274.171875 1237.542969 1272.414062 C 1242.074219 1269.324219 1246.582031 1265.535156 1251.136719 1262.539062 L 1256.390625 1260.21875 L 1263.265625 1250.1875 C 1266.9375 1246.625 1270.882812 1243.625 1274.601562 1240.042969 C 1276.136719 1238.578125 1276.5625 1234.789062 1277.578125 1233.753906 L 1280.328125 1233.390625 C 1281.003906 1232.894531 1282.492188 1231.09375 1283.214844 1230.304688 C 1285.015625 1228.363281 1286.054688 1224.21875 1288.242188 1222.660156 L 1290.945312 1222.300781 C 1292.367188 1221.242188 1292.726562 1218.242188 1294.101562 1217.027344 C 1295.523438 1215.785156 1297.257812 1215.539062 1298.699219 1214.277344 C 1302.871094 1210.601562 1305.441406 1204.695312 1309.566406 1201 C 1310.691406 1200.007812 1312.136719 1199.9375 1313.171875 1198.902344 C 1313.984375 1198.070312 1313.601562 1196.308594 1314.34375 1195.519531 C 1316.078125 1193.761719 1318.738281 1193.132812 1320.453125 1191.507812 L 1324.601562 1185.558594 C 1329.492188 1180.824219 1333.796875 1176.042969 1338.691406 1171.3125 L 1350.816406 1155.191406 C 1358.933594 1146.042969 1366.527344 1136.980469 1372.796875 1126.472656 C 1376.761719 1119.824219 1386.164062 1113.355469 1389.453125 1107.089844 C 1392.699219 1100.867188 1393.625 1093.765625 1396.578125 1087.339844 C 1403.519531 1072.304688 1411.90625 1057.226562 1418.894531 1041.988281 C 1421.375 1036.644531 1421.871094 1031.234375 1424.304688 1025.710938 C 1437.445312 996.179688 1452.957031 967.011719 1465.941406 937.527344 C 1467.765625 933.402344 1466.730469 929.140625 1467.921875 924.40625 C 1469.164062 919.605469 1471.980469 913.585938 1473.402344 908.628906 C 1474.550781 904.707031 1473.964844 900.851562 1474.980469 896.636719 C 1475.835938 893.320312 1478.023438 889.242188 1478.992188 885.925781 C 1481.472656 877.363281 1482.125 869.472656 1484.175781 860.566406 C 1490.015625 835.09375 1494.5 807.660156 1499.957031 782.347656 C 1501.464844 775.359375 1498.941406 768.460938 1500.046875 760.367188 C 1502.164062 744.746094 1501.757812 725.765625 1503.203125 710.097656 L 1502.277344 703.789062 C 1502.550781 699.507812 1502.375 695.246094 1501.75 691 C 1501.121094 686.757812 1500.058594 682.625 1498.558594 678.609375 L 1496.53125 661.183594 C 1496.035156 657.847656 1494.433594 653.339844 1494.433594 650.769531 C 1494.433594 644.5 1491.480469 634.492188 1490.015625 624.574219 L 1488.683594 615.671875 C 1489.496094 604.105469 1484.289062 578.902344 1479.960938 568.105469 L 1472.746094 537.988281 C 1467.789062 526.3125 1463.078125 513.195312 1457.824219 501.472656 C 1455.230469 495.65625 1454.667969 490.246094 1451.984375 484.566406 C 1439.679688 458.371094 1431.269531 430.464844 1419.074219 405.464844 C 1413.597656 394.261719 1410.914062 381.277344 1404.488281 371.042969 C 1402.980469 368.632812 1400.050781 366.46875 1398.472656 364.371094 C 1391.84375 355.445312 1387.539062 345.210938 1380.4375 336.800781 C 1371.804688 326.613281 1361.953125 316.402344 1353.613281 306.167969 L 1351.246094 301.660156 C 1344.707031 294.21875 1337.15625 286.488281 1331.09375 278.6875 C 1327.375 273.910156 1324.714844 268.996094 1320.632812 264.578125 C 1318.019531 261.78125 1314.253906 259.480469 1311.683594 256.6875 C 1307.671875 252.449219 1304.855469 247.941406 1300.796875 243.726562 C 1296.355469 239.082031 1289.910156 235.542969 1285.46875 230.785156 C 1281.589844 226.617188 1278.929688 221.972656 1275.1875 217.734375 C 1270.589844 212.59375 1264.34375 208.175781 1259.65625 203.261719 C 1254.585938 197.988281 1250.257812 192.691406 1245.050781 187.550781 C 1240.855469 183.449219 1234.230469 179.75 1228.953125 176.910156 C 1224.3125 174.410156 1219.488281 170.035156 1215.699219 166.382812 L 1199.515625 155.203125 C 1190.859375 146.953125 1179.519531 140.867188 1171.066406 132.816406 C 1167.527344 129.4375 1163.3125 127.339844 1159.75 124.183594 C 1139.460938 106.082031 1114.621094 92.917969 1092.054688 77.679688 C 1088.449219 75.269531 1083.289062 75.246094 1079.117188 73.578125 C 1067.710938 68.933594 1056.351562 62.125 1044.921875 57.347656 C 1042.621094 56.332031 1040.253906 56.558594 1037.957031 55.613281 C 1033.648438 53.808594 1028.464844 51.101562 1023.753906 50.042969 L 1018.683594 49.660156 C 1009.824219 46.234375 1000.332031 42.445312 991.40625 38.90625 C 982.886719 35.527344 974.5 34.039062 966.160156 30.566406 C 952.621094 24.839844 938.847656 19.75 924.839844 15.304688 C 916.476562 12.734375 907.1875 14.699219 897.789062 13.617188 C 894.292969 13.210938 890.191406 11.949219 886.855469 11.359375 C 879.035156 10.007812 872.046875 10.820312 864.269531 9.625 C 845.492188 6.738281 825.179688 4.800781 805.660156 2.074219 C 790.148438 -0.0898438 773.378906 1.398438 757.890625 0 L 692.789062 5.140625 C 684.699219 4.464844 675.953125 7.167969 667.316406 6.492188 C 650.480469 5.09375 630.800781 7.460938 611.503906 10.324219 C 607.917969 13.253906 598.96875 11.40625 594.078125 13.230469 C 582.3125 17.652344 566.847656 16.410156 554.96875 20.695312 L 541.824219 22.496094 C 526.40625 28.695312 509.839844 36 494.554688 42.3125 C 488.714844 44.746094 483.148438 44.859375 477.421875 47.339844 C 467.414062 51.667969 456.007812 55.90625 445.839844 60.210938 C 425.058594 69.023438 400.847656 73.375 382.363281 83.878906 C 355.460938 99.039062 328.710938 114.464844 302.113281 130.15625 C 289.195312 137.84375 274.429688 145.464844 263.316406 154.730469 C 258.132812 159.058594 254.167969 166.96875 249.09375 171.65625 C 232.050781 187.460938 218.976562 205.402344 202.296875 221.476562 L 194.339844 231.664062 C 181.828125 243.546875 172.089844 256.730469 160.839844 269.421875 C 155.726562 275.195312 150.515625 280.695312 144.882812 286.082031 L 138.796875 293.882812 C 136.226562 296.25 133.113281 297.757812 130.792969 300.304688 C 128.089844 303.304688 126.015625 307.382812 123.984375 310.902344 C 118.664062 320.144531 111.632812 328.527344 106.222656 337.953125 C 100.699219 347.554688 91.796875 355.738281 86.273438 365.316406 C 79.523438 377.039062 72.902344 388.839844 66.414062 400.707031 C 62.398438 407.988281 56.855469 415.089844 52.863281 422.371094 C 47.363281 432.402344 42.722656 442.320312 37.199219 452.398438 C 31.945312 461.867188 24.640625 471.46875 20.292969 481.476562 L 19.910156 486.347656 C 18.871094 491.738281 17.617188 497.082031 16.144531 502.375 C 12.875 513.554688 7.984375 526.109375 6.339844 538.011719 L 7.238281 544.324219 C 6.5625 551.539062 9.292969 557.308594 8.027344 564.566406 C 5.976562 576.132812 8.929688 589.589844 7.441406 602.144531 C 4.195312 629.871094 5.933594 661.609375 1.964844 689.699219 L 2.191406 698.761719 C 0.00390625 713.820312 1.445312 728.671875 0.0507812 744.589844 C -0.265625 748.285156 1.445312 754.4375 2.484375 757.144531 C 5.753906 765.710938 4.242188 776.757812 6.96875 783.855469 C 7.9375 786.382812 11.5 801.101562 11.476562 803.039062 C 11.433594 808 12.988281 817.738281 14.996094 822.921875 L 20.652344 857.503906 C 25.996094 893.683594 33.390625 922.625 44.953125 950.105469 L 49.417969 965.050781 C 56.945312 981.6875 62.308594 999.3125 70.628906 1014.101562 C 72.117188 1016.761719 71.980469 1019.015625 73.421875 1021.765625 C 74.957031 1024.71875 77.660156 1028.550781 78.832031 1031.753906 L 78.722656 1034.976562 C 79.621094 1037.207031 81.988281 1039.710938 83.09375 1041.894531 L 86.363281 1052.671875 C 91.007812 1061.6875 95.492188 1072.304688 100.113281 1081.34375 C 104.351562 1089.664062 106.425781 1097.914062 110.957031 1105.578125 C 118.914062 1118.992188 129.824219 1130.9375 139.832031 1142.367188 C 140.960938 1143.628906 143.28125 1144.800781 144.296875 1146.0625 C 147.835938 1150.503906 149.820312 1154.921875 153.492188 1159.25 C 155.703125 1161.867188 162.714844 1167.09375 163.90625 1169.078125 L 163.660156 1171.265625 C 166.140625 1176.132812 171.59375 1179.378906 174.886719 1183.101562 L 175.898438 1186.210938 C 176.824219 1187.632812 178.605469 1188.375 179.730469 1189.433594 L 182.867188 1195.429688 L 186.539062 1197.617188 L 186.992188 1200.773438 C 187.667969 1201.675781 189.898438 1201.605469 190.597656 1202.417969 C 191.679688 1203.703125 191.273438 1205.347656 192.3125 1206.476562 C 198.082031 1212.832031 205.386719 1219.054688 210.796875 1225.929688 C 212.824219 1228.476562 213.636719 1231.476562 215.890625 1233.820312 C 217.21875 1235.171875 219.789062 1234.609375 221.210938 1235.734375 C 218.167969 1238.777344 226.035156 1243.085938 226.890625 1244.078125 L 229.300781 1249.105469 C 230.363281 1250.296875 231.828125 1249.507812 233.359375 1250.1875 L 236.808594 1254.515625 C 240.078125 1256.949219 244.449219 1258.144531 247.765625 1260.53125 C 258.089844 1267.972656 268.097656 1276.402344 279.480469 1282.464844 L 287.054688 1288.371094 C 292.691406 1291.371094 297.558594 1295.628906 303.058594 1298.515625 C 304.1875 1299.125 305.585938 1298.964844 306.578125 1299.644531 C 314.871094 1305.457031 323.304688 1311.207031 331.464844 1317.160156 C 334.730469 1319.523438 337.910156 1323.175781 341.5625 1324.890625 C 344.265625 1326.152344 347.378906 1325.882812 350.21875 1326.917969 C 357.140625 1329.421875 363.742188 1333.863281 370.617188 1336.453125 C 373.007812 1337.355469 375.804688 1336.632812 378.058594 1337.605469 C 388.742188 1342.335938 399.132812 1348.515625 409.4375 1353.675781 C 415.839844 1356.878906 422.960938 1357.960938 429.5 1361.117188 C 431.820312 1362.242188 433.554688 1365.039062 435.855469 1366.164062 C 446.40625 1371.214844 458.21875 1374.59375 468.585938 1379.914062 C 472.035156 1381.695312 475.257812 1385.214844 479.070312 1386.519531 L 484.164062 1386.902344 C 487.65625 1388.234375 491.242188 1391.863281 494.625 1393.507812 C 499.695312 1395.941406 504.429688 1397.566406 509.546875 1400.046875 C 511.257812 1400.878906 513.804688 1402.929688 515.632812 1403.496094 L 519.53125 1403.496094 C 521.832031 1404.484375 523.949219 1406.964844 526.339844 1407.914062 C 529.179688 1409.039062 532.15625 1408.070312 535.402344 1408.835938 C 537.65625 1409.378906 540.429688 1411.429688 542.59375 1412.152344 C 548.566406 1414.089844 554.382812 1414 560.402344 1415.621094 C 563.015625 1416.320312 566.105469 1418.257812 568.675781 1418.777344 L 574.21875 1418.550781 C 577.601562 1419.296875 581.320312 1422.25 584.949219 1422.992188 L 589.390625 1422.902344 C 590.96875 1423.511719 594.125 1425.519531 595.925781 1425.765625 L 599.152344 1424.796875 C 601.585938 1425.179688 604.742188 1427.660156 606.972656 1428.5625 C 610.871094 1430.140625 615.988281 1431.199219 619.777344 1432.167969 C 625.773438 1433.679688 632.492188 1431.199219 639.34375 1432.167969 C 644.101562 1432.84375 650.976562 1432.664062 656.226562 1433.09375 L 664.410156 1431.964844 C 673.609375 1433.003906 686.097656 1434.558594 695.992188 1434.105469 C 698.402344 1433.992188 696.917969 1432.03125 699.035156 1432.078125 C 700.296875 1432.121094 702.078125 1433.925781 703.273438 1434.195312 L 713.28125 1433.882812 L 715.761719 1435.683594 L 725.679688 1434.851562 L 746.171875 1437.441406 C 751.0625 1438.074219 755.636719 1435.910156 761.09375 1436.472656 C 765.0625 1436.902344 770.246094 1439.628906 774.304688 1438.976562 C 782.148438 1437.667969 792.945312 1439.359375 800.722656 1440.191406 C 802.933594 1440.417969 805.726562 1439.585938 807.371094 1439.808594 C 807.867188 1438.796875 808.433594 1437.421875 809.085938 1436.359375 L 808.996094 1435.84375 C 811.25 1436.496094 814.382812 1439.109375 815.871094 1440.800781 M 849.007812 362.613281 C 840.578125 363.199219 828.675781 362.769531 820.242188 360.628906 C 816.546875 354.382812 818.890625 350.101562 815.894531 342.460938 C 810.933594 330.0625 812.285156 317.257812 806.695312 303.011719 L 804.105469 289.441406 C 799.957031 279.160156 797.070312 264.597656 792.832031 254.546875 L 790.691406 244.109375 L 781.132812 224.519531 L 780.34375 219.289062 C 779.984375 218.433594 778.496094 216.585938 778.15625 215.816406 C 777.527344 214.421875 778.246094 211.492188 778 211.015625 C 773.941406 203.128906 770.765625 193.027344 766.773438 184.148438 C 760.597656 170.417969 757.261719 156.21875 751.105469 142.375 C 749.957031 139.785156 746.285156 130 747.273438 127.882812 C 748.019531 125.539062 757.9375 122.765625 761.925781 121.074219 C 772.320312 116.609375 784.582031 110.929688 797.949219 111.875 C 801.242188 112.101562 804.417969 110.589844 806.875 111.71875 C 810.394531 115.078125 808.566406 124.117188 810.574219 129.4375 C 812.941406 135.679688 814.675781 149.589844 815.824219 157.117188 L 817.449219 168.164062 C 821.890625 179.050781 820.535156 193.457031 825.066406 204.59375 C 826.601562 208.3125 826.421875 213.542969 828.109375 217.578125 C 834.332031 232.792969 835.1875 254.140625 835.484375 271.226562 C 835.640625 279.566406 840.441406 289.328125 842.109375 300.890625 L 842.71875 301.34375 C 845.378906 300.351562 851.285156 289.757812 852.886719 287.074219 C 853.695312 285.722656 853.085938 284.007812 853.921875 282.632812 C 858.023438 275.894531 861.472656 268.882812 865.351562 261.804688 C 866.546875 259.617188 868.890625 257.613281 869.972656 255.289062 C 872.226562 250.511719 873.351562 245.867188 875.675781 241.109375 C 886.269531 219.539062 903.785156 202.40625 916.703125 182.480469 C 918.617188 179.503906 919.722656 176.347656 921.457031 173.28125 L 929.527344 163.589844 C 931.488281 159.890625 931.105469 156.195312 934.148438 153.308594 C 935.703125 151.796875 938.859375 150.964844 940.234375 149.25 C 942.601562 146.34375 943.910156 142.464844 946.660156 139.804688 C 951.507812 135.183594 954.683594 130.113281 959.011719 125.289062 C 960.140625 124.027344 961.605469 123.574219 962.484375 122.132812 C 972.222656 121.570312 982.164062 127.925781 989.511719 131.285156 C 991.65625 132.277344 995.78125 132.773438 997.246094 134.53125 L 999.117188 139.625 C 1001.527344 143.953125 1004.839844 150.582031 1008.46875 153.894531 C 1008.402344 159.484375 1003.757812 163.5 1000.355469 166.8125 C 998.777344 168.976562 997.230469 171.148438 995.710938 173.328125 C 988.296875 180.710938 981.46875 188.601562 975.222656 196.996094 C 972.199219 200.941406 970.058594 206.484375 966.519531 209.980469 C 953.492188 222.828125 940.371094 235.859375 928.265625 249.472656 C 917.804688 261.261719 908.136719 273.820312 896.683594 284.863281 C 892.671875 288.765625 889.855469 294.265625 885.796875 298.140625 C 877.003906 306.527344 870.152344 315.859375 862.398438 324.898438 C 858.429688 329.5 849.886719 337.140625 848.308594 342.886719 C 846.867188 348.09375 848.78125 356.4375 848.984375 362.613281 M 936.179688 1272.277344 C 926.078125 1271.351562 915.640625 1272.164062 906.21875 1269.933594 C 904.101562 1269.414062 900.96875 1267.722656 898.578125 1267.226562 C 893.933594 1266.257812 890.011719 1266.890625 885.503906 1265.761719 C 876.328125 1263.507812 866.75 1260.578125 857.617188 1258.347656 C 851.984375 1256.949219 846.503906 1255.890625 841.433594 1254.648438 L 835.210938 1253.90625 L 823.78125 1244.730469 C 812.960938 1238.960938 804.105469 1230.867188 795.378906 1222.367188 C 790.058594 1217.183594 782.667969 1213.710938 777.164062 1208.753906 C 774.820312 1206.65625 773.785156 1203.75 771.644531 1201.496094 C 766.617188 1196.21875 760.148438 1191.53125 755.390625 1186.007812 L 752.324219 1180.53125 C 741.730469 1168.132812 732.148438 1155.285156 722.050781 1141.804688 C 717.40625 1135.582031 711.273438 1128.527344 707.398438 1121.851562 C 699.890625 1108.960938 695.878906 1094.308594 688.011719 1081.59375 C 685.308594 1077.175781 682.828125 1071.945312 679.738281 1067.210938 C 677.84375 1064.257812 674.507812 1061.757812 673.335938 1057.902344 C 666.890625 1057.855469 659.765625 1064.4375 655.304688 1067.863281 C 641.980469 1078.007812 626.808594 1086.6875 613.757812 1096.5625 C 610.242188 1099.199219 606.183594 1100.144531 602.351562 1102.421875 C 598.746094 1104.5625 595.835938 1108.417969 592.386719 1110.71875 C 585.558594 1115.316406 577.691406 1117.027344 570.523438 1121.199219 C 564.660156 1124.625 558.9375 1129.40625 552.058594 1132.3125 L 542.75 1133.550781 C 536.304688 1136.121094 527.625 1136.484375 519.621094 1139.390625 L 509.792969 1140.742188 C 495.976562 1145.839844 464.980469 1149.714844 451.230469 1148.699219 L 417.621094 1151.699219 C 412.503906 1150.753906 408.039062 1147.101562 403.777344 1145.003906 C 400.105469 1143.199219 395.867188 1142.886719 392.054688 1141.238281 C 385.609375 1138.445312 379.5 1134.027344 373.257812 1130.960938 C 361.398438 1125.167969 348.730469 1120.769531 337.773438 1113.828125 C 334.753906 1111.890625 329.953125 1108.777344 327.675781 1106.097656 L 326.773438 1103.527344 L 324.589844 1103.820312 C 322.109375 1102.761719 319.425781 1099.152344 317.464844 1097.28125 L 308.785156 1091.511719 C 307.386719 1090.046875 307.183594 1088.039062 305.832031 1086.550781 C 303.171875 1083.644531 299.363281 1081.097656 296.75 1078.144531 C 293.1875 1074.109375 290.773438 1069.488281 287.101562 1065.519531 C 272.605469 1049.964844 258.066406 1034.503906 248.53125 1012.390625 L 245.261719 990.34375 C 242.941406 984.097656 239.402344 962.976562 239.988281 954.636719 L 238.996094 947.78125 C 239.851562 938.246094 237.777344 926.367188 240.101562 917.644531 C 243.84375 903.667969 245.351562 888.25 249.34375 874.589844 C 254.550781 856.714844 264.535156 841 272.761719 825.3125 C 275.515625 820.105469 276.371094 813.996094 279.253906 808.902344 C 281.21875 805.496094 285.636719 803.355469 288.65625 800.671875 C 290.007812 799.476562 290.234375 797.40625 291.316406 796.03125 C 294.425781 792.039062 298.753906 789.355469 302.65625 785.886719 C 304.660156 784.105469 305.292969 780.746094 307.183594 778.851562 C 309.574219 776.464844 312.6875 775.222656 315.253906 772.921875 L 318.546875 768.730469 C 333.808594 756.648438 350.242188 746.460938 367.171875 735.300781 C 374.878906 730.25 383.964844 727.09375 391.46875 722.339844 C 395.527344 719.792969 400.125 718.957031 403.371094 715.914062 C 403.890625 714.019531 401.1875 710.773438 400.105469 708.859375 C 396.113281 701.757812 392.957031 694.207031 388.652344 687.894531 C 371.609375 663.167969 358.492188 631.878906 342.441406 605.796875 C 339.511719 601.0625 338.160156 596.644531 335.339844 591.773438 C 328.667969 580.167969 321.816406 568.152344 315.503906 555.886719 C 315.820312 550.703125 310.996094 541.304688 308.742188 536.457031 C 306.488281 531.566406 306.148438 527.484375 303.917969 522.683594 C 301.976562 518.511719 299.363281 513.800781 297.515625 509.609375 L 295.847656 502.328125 C 293.433594 496.851562 290.074219 490.875 287.28125 485.828125 C 284.957031 481.613281 285.183594 477.238281 283.089844 472.460938 C 280.96875 467.726562 278.511719 462.675781 276.371094 457.289062 C 273.753906 450.75 274.949219 440.992188 275.355469 435.445312 L 274.363281 428.636719 C 274.453125 427.738281 275.039062 424.804688 274.769531 423.792969 C 272.492188 415.429688 275.289062 405.53125 276.890625 396.695312 L 277.519531 385.875 C 278.714844 382.449219 281.710938 378.84375 283.246094 375.460938 C 288.699219 363.402344 292.984375 350.441406 297.808594 338.109375 C 298.933594 335.179688 299.09375 332.542969 300.46875 329.722656 C 305.3125 319.851562 315.164062 312.792969 320.574219 303.394531 C 323.257812 298.773438 326.730469 292.730469 330.765625 289.191406 L 330.539062 287.59375 C 335.226562 285.96875 334.933594 280.738281 338.023438 277.988281 C 342.191406 274.316406 347.128906 272.511719 351.820312 269.128906 C 355.289062 266.652344 359.078125 263.179688 362.84375 260.675781 C 391.578125 241.683594 421.996094 225.933594 454.09375 213.429688 C 461.597656 210.453125 472.214844 211.738281 479.789062 209.933594 C 487.949219 207.996094 501.769531 207.746094 510.265625 208.425781 L 521.855469 207.410156 C 529.472656 208.355469 537.835938 207.410156 545.972656 208.402344 C 551.765625 209.101562 558.507812 210.136719 564.210938 210.746094 L 568.582031 210.136719 C 574.398438 210.8125 581.050781 212.347656 586.867188 213 L 592.433594 212.773438 C 595.410156 213.585938 598.203125 216.292969 600.933594 217.507812 C 607.898438 220.710938 615.042969 222.511719 621.714844 225.9375 L 628.027344 230.964844 C 629.558594 231.3125 631.101562 231.636719 632.648438 231.9375 C 634.316406 233.019531 635.355469 235.273438 637.203125 236.152344 C 639.570312 237.277344 641.957031 237.253906 644.210938 238.40625 C 646.960938 239.804688 649.148438 242.710938 651.785156 244.332031 C 653.523438 245.394531 655.84375 245.304688 657.648438 246.226562 C 665.085938 249.992188 670.65625 257.429688 676.402344 263.496094 C 678.410156 265.589844 681.675781 266.378906 684.292969 267.753906 C 687.15625 269.265625 689.65625 272.511719 692 274.742188 C 694.863281 277.402344 699.304688 278.417969 701.921875 281.4375 C 705.59375 285.652344 706.609375 291.558594 710.214844 295.863281 C 713.890625 300.238281 719.59375 303.664062 722.703125 308.625 C 724.847656 312.027344 725.183594 314.328125 727.394531 317.617188 C 727.957031 318.429688 730.730469 319.871094 731.136719 320.324219 C 732.261719 321.585938 732.261719 324.5625 733.613281 325.867188 L 738.304688 327.378906 L 741.347656 332.855469 C 745.246094 337.363281 748.964844 341.828125 752.933594 346.808594 C 759.246094 354.769531 767.472656 362.410156 774.234375 370.164062 C 778.226562 374.738281 780.390625 379.925781 784.199219 384.882812 C 787.128906 388.625 791.617188 391.308594 794.613281 394.710938 C 799.503906 400.28125 801.648438 407.472656 806.335938 413.46875 L 809.988281 415.652344 C 808.679688 418.269531 810.054688 419.261719 811.386719 421.355469 C 821.234375 421.921875 834.289062 409.34375 841.207031 403.910156 C 855.90625 392.300781 871.078125 382.945312 887.9375 372.890625 C 896.074219 368.046875 904.617188 361.847656 913.589844 357.585938 C 922.539062 353.371094 932.886719 352.199219 941.835938 348.386719 C 971.050781 335.898438 1012.980469 320.1875 1050.261719 322.914062 L 1063.382812 321.113281 C 1068.207031 321.496094 1072.691406 322.511719 1077.042969 322.984375 L 1084.257812 322.53125 C 1096.339844 324.269531 1107.476562 329.882812 1118.703125 332.855469 C 1122.578125 333.871094 1126.140625 333.511719 1130.109375 334.523438 C 1139.035156 336.800781 1148.253906 341.289062 1157.160156 343.699219 C 1163.246094 345.34375 1168.65625 346.15625 1174.582031 348.277344 L 1180.195312 352.332031 C 1182.226562 353.121094 1183.894531 352.402344 1185.921875 353.167969 C 1189.304688 354.429688 1192.503906 357.832031 1195.75 359.34375 L 1202.0625 360.605469 C 1205.015625 361.824219 1208.214844 363.988281 1211.148438 365.25 C 1213.492188 366.308594 1217.164062 365.925781 1219.261719 367.367188 C 1221.675781 369.015625 1223.183594 372.011719 1225.304688 374.0625 C 1229.066406 377.714844 1234.34375 380.015625 1237.925781 384.117188 C 1240.8125 387.410156 1241.871094 391.351562 1244.578125 395.003906 C 1254.042969 407.765625 1263.558594 423.09375 1271.964844 436.820312 C 1273.226562 438.917969 1272.6875 441.015625 1274.0625 443.492188 C 1275.4375 445.972656 1279.066406 448.769531 1280.800781 451.136719 C 1283.371094 454.695312 1283.980469 458.484375 1286.324219 462.179688 C 1294.078125 474.488281 1303.410156 488.554688 1309.65625 502.9375 L 1314.074219 529.085938 C 1313.960938 530.304688 1313.398438 533.007812 1313.78125 534.496094 C 1315.515625 541.347656 1315.089844 554.109375 1314.390625 561.230469 L 1314.90625 568.648438 C 1312.742188 585.53125 1311.660156 604.265625 1308.617188 620.402344 C 1307.039062 628.765625 1305.304688 636.386719 1303.726562 644.09375 C 1303.1875 646.847656 1304.246094 648.988281 1303.117188 651.152344 C 1302.464844 652.367188 1300.480469 653.136719 1299.691406 654.308594 L 1299.445312 656.472656 C 1295.746094 661.453125 1290.699219 666.007812 1287.722656 671.460938 C 1286.03125 674.503906 1285.289062 677.707031 1283.4375 680.613281 L 1281.457031 681.964844 C 1280.351562 683.703125 1280.394531 686.25 1278.953125 687.667969 C 1274.804688 691.703125 1268.515625 693.867188 1263.601562 697.273438 C 1256.570312 702.117188 1249.988281 707.777344 1243.585938 712.847656 C 1241.511719 714.496094 1238.738281 714.515625 1236.234375 715.984375 C 1233.597656 717.515625 1229.8125 720.941406 1227.21875 723.105469 C 1222.53125 727.074219 1218.226562 732.28125 1213.535156 736.203125 C 1211.371094 738.050781 1208.578125 738.613281 1206.367188 740.417969 C 1199.132812 746.1875 1191.601562 752.230469 1184.433594 758.40625 C 1177.039062 764.785156 1170.234375 772.472656 1162.953125 779.03125 C 1148.90625 791.65625 1133.488281 803.828125 1118.65625 815.597656 C 1109.863281 822.539062 1098.367188 826.144531 1088.179688 832.050781 C 1077.921875 838.003906 1067.597656 844.71875 1057.433594 850.695312 C 1058.222656 853.21875 1062.4375 860.816406 1064.238281 862.640625 C 1066.042969 864.535156 1069.628906 865.03125 1071.566406 866.992188 C 1074.269531 869.765625 1075.351562 873.191406 1077.992188 876.324219 C 1082.183594 881.304688 1087.390625 886.0625 1091.402344 891.652344 C 1094.289062 895.664062 1094.917969 899.589844 1097.714844 904.140625 C 1099.519531 907.070312 1102.742188 910.003906 1104.589844 912.867188 C 1107.882812 917.960938 1109.257812 923.59375 1112.546875 928.914062 C 1113.179688 929.953125 1115.117188 930.808594 1115.769531 931.710938 L 1118.566406 939.351562 C 1118.8125 939.804688 1120.300781 940.816406 1120.527344 941.246094 L 1120.414062 944.46875 C 1121.269531 946.09375 1124.15625 948.390625 1125.195312 950.21875 C 1126.570312 952.652344 1127.582031 955.265625 1128.484375 957.296875 L 1129.183594 962.03125 C 1130.128906 963.855469 1132.453125 965.953125 1133.398438 967.890625 L 1136.035156 978.238281 C 1139.011719 985.066406 1141.71875 994.988281 1141.582031 1000.53125 L 1143.292969 1008.332031 C 1144.941406 1018.992188 1147.714844 1030.828125 1146.925781 1040.5 L 1149.019531 1054.699219 C 1147.441406 1070.839844 1153.980469 1092.1875 1147.714844 1106.320312 C 1138.5625 1126.902344 1129.410156 1147.753906 1118.835938 1167.546875 C 1116.46875 1172.007812 1112.613281 1176.179688 1110.136719 1180.507812 C 1107.023438 1185.984375 1101.839844 1197.503906 1097.625 1201.515625 C 1090.660156 1208.121094 1081.597656 1212.789062 1074.542969 1219.121094 C 1070.257812 1222.976562 1066.109375 1227.011719 1061.804688 1231.070312 C 1059.101562 1233.570312 1057.5 1237.585938 1054.140625 1239.589844 C 1048.664062 1242.882812 1041.742188 1243.289062 1035.609375 1246.421875 C 1025.421875 1251.605469 1015.03125 1257.601562 1003.847656 1261.976562 L 986.492188 1265.425781 C 975.175781 1269.660156 958.902344 1272.707031 947.179688 1271.332031 Z M 936.179688 1272.277344 " fill-opacity="1" fill-rule="nonzero"/></svg>