<svg xmlns="http://www.w3.org/2000/svg" width="174" height="64" viewBox="0 0 174 64" fill="none"><path d="M80.698 19.183c1.526 0 2.454-.849 2.454-2.143 0-1.336-.928-2.164-2.454-2.164H78.29v4.307zm-2.431 2.524v5.664h-3.05v-15.04h5.857c3.095 0 5.15 1.972 5.15 4.688 0 2.737-2.055 4.688-5.15 4.688zm15.46 1.446v-.466l-2.454.36c-.751.106-1.348.51-1.348 1.315 0 .615.464 1.21 1.415 1.21 1.237 0 2.387-.573 2.387-2.419m-3.492-1.782 2.674-.381c.62-.085.818-.382.818-.743 0-.743-.597-1.357-1.835-1.357-1.282 0-1.99.784-2.078 1.696l-2.608-.53c.177-1.634 1.747-3.436 4.664-3.436 3.448 0 4.73 1.867 4.73 3.966v5.135c0 .551.066 1.293.133 1.654h-2.697c-.066-.276-.11-.849-.11-1.252-.553.827-1.592 1.549-3.206 1.549-2.32 0-3.735-1.506-3.735-3.14 0-1.866 1.437-2.906 3.25-3.16m15.383-1.638a4.6 4.6 0 0 0-.884-.085c-1.503 0-2.807.7-2.807 2.95v4.772h-2.94V16.934h2.851v1.548c.663-1.378 2.166-1.633 3.095-1.633.243 0 .464.021.685.043zm5.674-2.796h2.188v2.503h-2.188v4.37c0 .913.442 1.21 1.282 1.21.354 0 .751-.043.906-.085v2.334c-.265.105-.795.253-1.658.253-2.122 0-3.447-1.209-3.447-3.224v-4.858h-1.968v-2.503h.553c1.149 0 1.679-.72 1.679-1.655V13.82h2.653zm4.034-.004h2.939V27.37h-2.939zm1.458-5.176c1.017 0 1.813.785 1.813 1.76 0 .933-.796 1.718-1.813 1.718-.994 0-1.812-.785-1.812-1.717 0-.976.818-1.761 1.812-1.761m5.464-.018c1.016 0 1.812.784 1.812 1.76 0 .954-.796 1.718-1.812 1.718-.995 0-1.813-.764-1.813-1.718 0-.976.818-1.76 1.813-1.76m-1.459 5.197h2.939v11.349c0 2.016-1.304 3.437-3.403 3.437-.863 0-1.503-.17-1.658-.234v-2.355c.199.043.486.106.906.106.885 0 1.216-.466 1.216-1.23zm16.483 10.434h-2.94l-4.442-10.437h3.226l2.697 7 2.586-7h3.094zm12.781-5.216c0-1.973-1.326-2.97-2.763-2.97s-2.763.997-2.763 2.97c0 1.952 1.327 2.97 2.763 2.97 1.437 0 2.763-.997 2.763-2.97m2.939 0c0 3.203-2.453 5.536-5.702 5.536s-5.702-2.332-5.702-5.536c0-3.225 2.453-5.537 5.702-5.537s5.702 2.312 5.702 5.537m9.597 0c0-1.973-1.326-2.97-2.763-2.97s-2.763.997-2.763 2.97c0 1.952 1.327 2.97 2.763 2.97 1.437 0 2.763-.997 2.763-2.97m2.94 0c0 3.203-2.453 5.536-5.703 5.536-3.249 0-5.702-2.332-5.702-5.536 0-3.225 2.453-5.537 5.702-5.537s5.703 2.312 5.703 5.537M174 19.734a4.6 4.6 0 0 0-.884-.085c-1.503 0-2.807.7-2.807 2.95v4.772h-2.94V16.934h2.851v1.548c.663-1.378 2.166-1.633 3.095-1.633.243 0 .464.021.685.043zM79.838 49.847c1.503 0 2.675-1.104 2.675-2.992 0-1.866-1.172-2.905-2.675-2.905s-2.696 1.06-2.696 2.927 1.148 2.97 2.696 2.97m5.526.381c0 .7.044 1.464.088 1.888h-2.807a7 7 0 0 1-.11-1.209c-.486.828-1.592 1.464-3.05 1.464-3.095 0-5.305-2.334-5.305-5.494 0-3.055 2.144-5.452 5.216-5.452 1.879 0 2.763.742 3.072 1.294v-5.962h2.896zm9.556-4.516c-.046-1.039-.753-2.057-2.433-2.057-1.524 0-2.364 1.103-2.43 2.057zm2.74 3.416c-.552 1.804-2.277 3.31-4.952 3.31-2.984 0-5.614-2.059-5.614-5.58 0-3.33 2.565-5.494 5.35-5.494 3.36 0 5.37 2.057 5.37 5.409 0 .403-.044.828-.044.87h-7.78c.067 1.379 1.282 2.376 2.74 2.376 1.371 0 2.123-.657 2.476-1.591zm12.015.274c2.565 0 4.708-1.528 4.708-4.795s-2.122-4.815-4.685-4.815h-2.454v9.61zm-5.481 2.715v-15.04h5.614c4.465 0 7.736 2.778 7.736 7.53s-3.293 7.51-7.758 7.51zm15.36-10.437h2.939v10.437h-2.939zm1.458-5.176c1.017 0 1.813.785 1.813 1.76 0 .934-.796 1.719-1.813 1.719-.994 0-1.812-.785-1.812-1.719 0-.975.818-1.76 1.812-1.76m11.075 9.208c-.045-1.039-.751-2.057-2.432-2.057-1.524 0-2.364 1.103-2.43 2.057zm2.741 3.416c-.553 1.804-2.277 3.31-4.952 3.31-2.984 0-5.614-2.059-5.614-5.58 0-3.33 2.565-5.494 5.35-5.494 3.359 0 5.371 2.057 5.371 5.409 0 .403-.045.828-.045.87h-7.78c.067 1.379 1.282 2.376 2.741 2.376 1.37 0 2.121-.657 2.476-1.591zm8.66-4.648a4.6 4.6 0 0 0-.884-.085c-1.503 0-2.808.7-2.808 2.95v4.772h-2.939V41.68h2.851v1.548c.663-1.378 2.166-1.633 3.095-1.633.243 0 .464.021.685.043zm8.602 1.232c-.045-1.039-.751-2.057-2.432-2.057-1.524 0-2.364 1.103-2.43 2.057zm2.741 3.416c-.553 1.804-2.277 3.31-4.952 3.31-2.984 0-5.614-2.059-5.614-5.58 0-3.33 2.565-5.494 5.35-5.494 3.359 0 5.371 2.057 5.371 5.409 0 .403-.045.828-.045.87h-7.78c.067 1.379 1.282 2.376 2.741 2.376 1.37 0 2.121-.657 2.475-1.591zm4.964 2.989h-2.94V41.68h2.852v1.294c.663-1.082 1.967-1.57 3.138-1.57 2.697 0 3.934 1.846 3.934 4.137v6.576h-2.94V46.03c0-1.167-.596-2.079-2.011-2.079-1.282 0-2.033.955-2.033 2.164z" fill="#000"/><path d="M36.193 63.915c.68-.066 1.32.221 1.931 0 .144-.053.452-.068.548-.146.25-.024.354-.04.416-.2l.462-.063.059.063q.517-.105 1.034-.213c.881-.166 1.941-.269 2.693-.532.124-.043.727-.188.816-.183.075.004.26.014.368-.026.154-.057.394-.11.52-.166l.242-.034-.007-.046.094-.037c.064-.01.063.049.108.057.058.01.349-.045.363-.05.441-.164.88-.382 1.305-.558.362-.149.657-.148.967-.32.239-.134.398-.332.597-.486.333-.256.725-.416 1.037-.689l.121-.182c.225-.19.52-.278.75-.46.134-.105.292-.22.42-.341.022-.022.016-.082.035-.1.059-.06.074.022.145-.02l.084-.107.364-.216c.135-.108.25-.277.389-.385.124-.097.302-.117.412-.223l.034-.1c.053-.05.123-.027.189-.073.022-.016.017-.084.034-.1.063-.055.208-.073.278-.133.112-.096.2-.24.323-.33.256-.183.542-.293.794-.488.148-.115.287-.277.437-.392.11-.083.23-.112.344-.19.201-.137.401-.305.603-.438l.233-.103.305-.445c.163-.158.338-.291.503-.45.068-.065.087-.233.132-.279l.122-.016c.03-.022.096-.102.128-.137.08-.086.126-.27.223-.339l.12-.016c.063-.047.079-.18.14-.234.063-.055.14-.066.204-.122.185-.163.299-.425.482-.589.05-.044.114-.047.16-.093.036-.037.019-.115.052-.15.077-.078.195-.106.271-.178l.184-.264c.217-.21.408-.422.625-.632l.538-.715c.36-.406.697-.808.975-1.274.176-.295.593-.582.739-.86.144-.276.185-.591.316-.876.308-.667.68-1.336.99-2.012.11-.237.132-.477.24-.722.583-1.31 1.271-2.604 1.847-3.912.081-.183.035-.372.088-.582.055-.213.18-.48.243-.7.051-.174.025-.345.07-.532.038-.147.135-.328.178-.475.11-.38.139-.73.23-1.125.259-1.13.458-2.347.7-3.47.067-.31-.045-.616.004-.975.094-.693.076-1.535.14-2.23l-.041-.28a2.7 2.7 0 0 0-.165-1.117l-.09-.773c-.022-.148-.093-.348-.093-.462 0-.278-.131-.722-.196-1.162l-.059-.395c.036-.513-.195-1.631-.387-2.11l-.32-1.336c-.22-.518-.429-1.1-.662-1.62-.115-.258-.14-.498-.259-.75-.546-1.162-.919-2.4-1.46-3.509-.243-.497-.362-1.073-.647-1.527-.067-.107-.197-.203-.267-.296-.294-.396-.485-.85-.8-1.223-.383-.452-.82-.905-1.19-1.359l-.105-.2c-.29-.33-.625-.673-.894-1.019-.165-.212-.283-.43-.464-.626-.116-.124-.283-.226-.397-.35-.178-.188-.303-.388-.483-.575-.197-.206-.483-.363-.68-.574-.172-.185-.29-.391-.456-.579-.204-.228-.481-.424-.689-.642-.225-.234-.417-.469-.648-.697-.186-.182-.48-.346-.714-.472-.206-.111-.42-.305-.588-.467l-.718-.496c-.384-.366-.887-.636-1.262-.993-.157-.15-.344-.243-.502-.383-.9-.803-2.002-1.387-3.003-2.063-.16-.107-.389-.108-.574-.182-.506-.206-1.01-.508-1.517-.72-.102-.045-.207-.035-.309-.077-.191-.08-.421-.2-.63-.247l-.225-.017c-.393-.152-.814-.32-1.21-.477-.378-.15-.75-.216-1.12-.37a21 21 0 0 0-1.833-.677c-.371-.114-.783-.027-1.2-.075-.155-.018-.337-.074-.485-.1-.347-.06-.657-.024-1.002-.077-.833-.128-1.734-.214-2.6-.335-.688-.096-1.432-.03-2.119-.092l-2.888.228c-.359-.03-.747.09-1.13.06-.747-.062-1.62.043-2.476.17-.159.13-.556.048-.773.129-.522.196-1.208.141-1.735.331l-.583.08c-.684.275-1.419.599-2.097.879-.259.108-.506.113-.76.223-.444.192-.95.38-1.401.571-.922.391-1.996.584-2.816 1.05a207 207 0 0 0-3.56 2.053c-.573.341-1.228.679-1.721 1.09-.23.192-.406.543-.631.751-.756.701-1.336 1.497-2.076 2.21l-.353.452c-.555.527-.987 1.112-1.486 1.675-.227.256-.458.5-.708.739l-.27.346c-.114.105-.252.172-.355.285-.12.133-.212.314-.302.47-.236.41-.548.782-.788 1.2-.245.426-.64.789-.885 1.214a81 81 0 0 0-.881 1.57c-.178.323-.424.638-.601.961-.244.445-.45.885-.695 1.332-.233.42-.557.846-.75 1.29l-.017.216a9 9 0 0 1-.167.711c-.145.496-.362 1.053-.435 1.581l.04.28c-.03.32.091.576.035.898-.091.513.04 1.11-.026 1.667-.144 1.23-.067 2.638-.243 3.884l.01.402C0 31.666.064 32.325.002 33.031c-.014.164.062.437.108.557.145.38.078.87.199 1.185.043.112.201.765.2.851-.002.22.067.652.156.882l.251 1.534c.237 1.605.565 2.889 1.078 4.108l.198.663c.334.738.572 1.52.941 2.176.066.118.06.218.124.34.068.131.188.301.24.443l-.005.143c.04.099.145.21.194.307l.145.478c.206.4.405.871.61 1.272.188.369.28.735.481 1.075.353.595.837 1.125 1.281 1.632.05.056.153.108.198.164.157.197.245.393.408.585.098.116.409.348.462.436l-.011.097c.11.216.352.36.498.525l.045.138c.041.063.12.096.17.143l.139.266.163.097.02.14c.03.04.129.037.16.073.048.057.03.13.076.18.256.282.58.558.82.863.09.113.126.246.226.35.059.06.173.035.236.085-.135.135.214.326.252.37l.107.223c.047.053.112.018.18.048l.153.192c.145.108.339.161.486.267.458.33.902.704 1.407.973l.336.262c.25.133.466.322.71.45.05.027.112.02.156.05.368.258.742.513 1.104.777.145.105.286.267.448.343.12.056.258.044.384.09.307.111.6.308.905.423.106.04.23.008.33.051.474.21.935.484 1.392.713.284.142.6.19.89.33.103.05.18.174.282.224.468.224.992.374 1.452.61.153.079.296.235.465.293l.226.017c.155.059.314.22.464.293.225.108.435.18.662.29.076.037.189.128.27.153h.173c.102.044.196.154.302.196.126.05.258.007.402.041.1.024.223.115.319.147.265.086.523.082.79.154.116.031.253.117.367.14l.246-.01c.15.033.315.164.476.197l.197-.004c.07.027.21.116.29.127l.143-.043c.108.017.248.127.347.167.173.07.4.117.568.16.266.067.564-.043.868 0 .211.03.516.022.749.041l.363-.05c.408.046.962.115 1.401.095.107-.005.041-.092.135-.09.056.002.135.082.188.094l.444-.014.11.08.44-.037.909.115c.217.028.42-.068.662-.043.176.019.406.14.586.111.348-.058.827.017 1.172.054.098.01.222-.027.295-.017.022-.045.047-.106.076-.153l-.004-.023c.1.029.239.145.305.22m1.47-47.83c-.374.026-.902.007-1.276-.088-.164-.277-.06-.467-.193-.806-.22-.55-.16-1.118-.408-1.75l-.115-.602c-.184-.456-.312-1.102-.5-1.548l-.095-.463-.424-.869-.035-.232c-.016-.038-.082-.12-.097-.154-.028-.062.004-.192-.007-.213-.18-.35-.321-.798-.498-1.192-.274-.609-.422-1.239-.695-1.853-.051-.115-.214-.549-.17-.643.033-.104.473-.227.65-.302.461-.198 1.005-.45 1.598-.408.146.01.287-.057.396-.007.156.149.075.55.164.786.105.277.182.894.233 1.228l.072.49c.197.483.137 1.122.338 1.616.068.165.06.397.135.576.276.675.314 1.622.327 2.38.007.37.22.803.294 1.316l.027.02c.118-.044.38-.514.451-.633.036-.06.009-.136.046-.197.182-.299.335-.61.507-.924.053-.097.157-.186.205-.289.1-.212.15-.418.253-.629.47-.957 1.247-1.717 1.82-2.601.085-.132.134-.272.211-.408l.358-.43c.087-.164.07-.328.205-.456.069-.067.209-.104.27-.18.105-.129.163-.301.285-.419.215-.205.356-.43.548-.644.05-.056.115-.076.154-.14.432-.025.873.257 1.199.406.095.044.278.066.343.144l.083.226c.107.192.254.486.415.633-.003.248-.209.426-.36.573q-.105.144-.206.289a9.4 9.4 0 0 0-.909 1.05c-.134.175-.229.421-.386.576-.578.57-1.16 1.148-1.697 1.752-.464.523-.893 1.08-1.401 1.57-.178.173-.303.417-.483.589-.39.372-.694.786-1.038 1.187-.176.204-.555.543-.625.798-.064.231.021.601.03.875M41.53 56.44c-.448-.041-.911-.005-1.329-.104-.094-.023-.233-.098-.339-.12-.206-.043-.38-.015-.58-.065-.407-.1-.832-.23-1.237-.329-.25-.062-.493-.109-.718-.164l-.276-.033-.507-.407c-.48-.256-.873-.615-1.26-.992-.236-.23-.564-.384-.808-.604-.104-.093-.15-.222-.245-.322-.223-.234-.51-.442-.721-.687l-.136-.243c-.47-.55-.895-1.12-1.343-1.718-.206-.276-.478-.589-.65-.885-.333-.572-.511-1.222-.86-1.786-.12-.196-.23-.428-.367-.638-.084-.131-.232-.242-.284-.413-.286-.002-.602.29-.8.442-.591.45-1.264.835-1.843 1.273-.156.117-.336.159-.506.26-.16.095-.289.266-.442.368-.303.204-.652.28-.97.465-.26.152-.514.364-.819.493l-.413.055c-.286.114-.671.13-1.026.259l-.436.06c-.613.226-1.988.398-2.598.353l-1.491.133c-.227-.042-.425-.204-.614-.297-.163-.08-.351-.094-.52-.167-.286-.124-.557-.32-.834-.456-.526-.257-1.088-.452-1.574-.76-.134-.086-.347-.224-.448-.343l-.04-.114-.097.013c-.11-.047-.229-.207-.316-.29l-.385-.256c-.062-.065-.071-.154-.131-.22-.118-.129-.287-.242-.403-.373-.158-.179-.265-.384-.428-.56-.643-.69-1.288-1.376-1.711-2.357l-.145-.978c-.103-.277-.26-1.214-.234-1.584l-.044-.304c.038-.423-.054-.95.049-1.337.166-.62.233-1.304.41-1.91.231-.793.674-1.49 1.039-2.186.122-.231.16-.502.288-.728.087-.151.283-.246.417-.365.06-.053.07-.145.118-.206.138-.177.33-.296.503-.45.089-.079.117-.228.201-.312.106-.106.244-.161.358-.263l.146-.186c.677-.536 1.406-.988 2.157-1.483.342-.224.745-.364 1.078-.575.18-.113.384-.15.528-.285.023-.084-.097-.228-.145-.313-.177-.315-.317-.65-.508-.93-.756-1.097-1.338-2.485-2.05-3.642-.13-.21-.19-.406-.315-.622-.296-.515-.6-1.048-.88-1.592.014-.23-.2-.647-.3-.862-.1-.217-.115-.398-.214-.611-.086-.185-.202-.394-.284-.58l-.074-.323c-.107-.243-.256-.508-.38-.732-.103-.187-.093-.381-.186-.593-.094-.21-.203-.434-.298-.673-.116-.29-.063-.723-.045-.969l-.044-.302c.004-.04.03-.17.018-.215-.101-.371.023-.81.094-1.202l.028-.48c.053-.152.186-.312.254-.462.242-.535.432-1.11.646-1.657.05-.13.057-.247.118-.372.215-.438.652-.751.892-1.168.119-.205.273-.473.452-.63l-.01-.071c.208-.072.195-.304.332-.426.185-.163.404-.243.612-.393.154-.11.322-.264.489-.375a21.5 21.5 0 0 1 4.048-2.096c.333-.132.804-.075 1.14-.155.362-.086.975-.097 1.352-.067l.514-.045c.338.042.709 0 1.07.044.257.031.556.077.809.104l.194-.027c.258.03.553.098.811.127l.247-.01c.132.036.256.156.377.21.309.142.626.222.922.374l.28.223q.102.023.205.043c.074.048.12.148.202.187.105.05.211.049.311.1.122.062.219.191.336.263.077.047.18.043.26.084.33.167.577.497.832.766.089.093.234.128.35.189.127.067.238.211.342.31.127.118.324.163.44.297.163.187.208.449.368.64.163.194.416.346.554.566.095.151.11.253.208.399.025.036.148.1.166.12.05.056.05.188.11.246l.208.067.135.243c.173.2.338.398.514.619.28.353.645.692.945 1.036.177.203.273.433.442.653.13.166.329.285.462.436.217.247.312.566.52.832l.162.097c-.058.116.003.16.062.253.437.025 1.016-.533 1.323-.774.652-.515 1.325-.93 2.073-1.376.361-.215.74-.49 1.138-.679.397-.187.856-.239 1.253-.408 1.296-.554 3.156-1.251 4.81-1.13l.582-.08c.214.017.413.062.606.083l.32-.02c.536.077 1.03.326 1.528.458.172.045.33.029.506.074.396.101.805.3 1.2.407.27.073.51.109.773.203l.249.18c.09.035.164.003.254.037.15.056.292.207.436.274l.28.056c.131.054.273.15.403.206.104.047.267.03.36.094.107.073.174.206.268.297.167.162.401.264.56.446.128.146.175.321.295.483.42.566.842 1.246 1.215 1.855.056.093.032.186.093.296s.222.234.299.339c.114.158.141.326.245.49.344.546.758 1.17 1.035 1.808l.196 1.16c-.005.054-.03.174-.013.24.077.304.058.87.027 1.186l.023.329c-.096.749-.144 1.58-.279 2.296-.07.371-.147.709-.217 1.051-.024.122.023.217-.027.313-.029.054-.117.088-.152.14l-.011.096c-.164.221-.388.423-.52.665-.075.135-.108.277-.19.406l-.088.06c-.049.077-.047.19-.111.253-.184.179-.463.275-.681.426-.312.215-.604.466-.888.691-.092.073-.215.074-.326.139-.117.068-.285.22-.4.316-.208.176-.399.407-.607.581-.096.082-.22.107-.318.187-.321.256-.655.524-.973.798-.328.283-.63.624-.953.915-.623.56-1.307 1.1-1.965 1.622-.39.308-.9.468-1.352.73-.455.264-.913.562-1.364.827.035.112.222.449.302.53.08.084.239.106.325.193.12.123.168.275.285.414.186.221.417.432.595.68.128.178.156.352.28.554.08.13.223.26.305.387.146.226.207.476.353.712.028.046.114.084.143.124l.124.339c.011.02.077.065.087.084l-.005.143c.038.072.166.174.212.255.061.108.106.224.146.314l.031.21c.042.081.145.174.187.26l.117.459c.132.303.252.743.246.989l.076.346c.073.473.196.998.161 1.427l.093.63c-.07.716.22 1.663-.058 2.29-.406.913-.812 1.838-1.281 2.716-.105.198-.276.383-.386.575-.138.243-.368.754-.555.932-.309.293-.711.5-1.024.781-.19.171-.374.35-.565.53-.12.111-.191.289-.34.378-.243.146-.55.164-.822.303-.452.23-.913.496-1.409.69l-.77.153c-.502.188-1.224.323-1.744.262z" fill="#00743c"/></svg>